<?xml version="1.0" standalone="no"?>
<!DOCTYPE svg PUBLIC "-//W3C//DTD SVG 1.1//EN" "http://www.w3.org/Graphics/SVG/1.1/DTD/svg11.dtd" >
<svg xmlns="http://www.w3.org/2000/svg" xmlns:xlink="http://www.w3.org/1999/xlink" version="1.1">
<metadata>
Created by FontForge 20170731 at Wed Apr 27 08:46:50 2022
 By Aleksey,,,
Copyright (c) 2011 by Hannes von Doehren. All rights reserved.
</metadata>
<defs>
<font id="PlutoCondRegular" horiz-adv-x="1044" >
  <font-face 
    font-family="Pluto Cond Regular"
    font-weight="400"
    font-stretch="condensed"
    units-per-em="2048"
    panose-1="2 11 5 6 2 2 3 6 2 4"
    ascent="1536"
    descent="-512"
    x-height="1071"
    cap-height="1393"
    bbox="-240 -532 2173 1858"
    underline-thickness="102"
    underline-position="-204"
    unicode-range="U+0020-FB02"
  />
<missing-glyph horiz-adv-x="1253" 
d="M102 1475h1049v-1475h-1049v1475zM545 580h98q0 45 20.5 83.5t51.5 63.5t67.5 53t67.5 53.5t51.5 64.5t20.5 85q0 104 -75 174t-208 70q-65 0 -115 -20.5t-79 -51t-47.5 -70t-24.5 -73t-6 -64.5h96q0 82 43.5 136.5t132.5 54.5q83 0 130.5 -44.5t47.5 -111.5
q0 -39 -28 -74.5t-68 -65t-80 -63.5t-68 -85.5t-28 -114.5zM522 397v-145h140v145h-140z" />
    <glyph glyph-name=".notdef" horiz-adv-x="1253" 
d="M102 1475h1049v-1475h-1049v1475zM545 580h98q0 45 20.5 83.5t51.5 63.5t67.5 53t67.5 53.5t51.5 64.5t20.5 85q0 104 -75 174t-208 70q-65 0 -115 -20.5t-79 -51t-47.5 -70t-24.5 -73t-6 -64.5h96q0 82 43.5 136.5t132.5 54.5q83 0 130.5 -44.5t47.5 -111.5
q0 -39 -28 -74.5t-68 -65t-80 -63.5t-68 -85.5t-28 -114.5zM522 397v-145h140v145h-140z" />
    <glyph glyph-name=".null" horiz-adv-x="0" 
 />
    <glyph glyph-name=".null" horiz-adv-x="0" 
 />
    <glyph glyph-name="nonmarkingreturn" horiz-adv-x="682" 
 />
    <glyph glyph-name="space" unicode=" " horiz-adv-x="440" 
 />
    <glyph glyph-name="exclam" unicode="!" horiz-adv-x="569" 
d="M211 485l-27 908h199l-29 -908h-143zM156 115q0 66 33 102.5t96 36.5q62 0 96.5 -36.5t34.5 -102.5q0 -67 -34.5 -103.5t-96.5 -36.5q-63 0 -96 36t-33 104z" />
    <glyph glyph-name="quotedbl" unicode="&#x22;" horiz-adv-x="827" 
d="M305 1393l-8 -504h-141l-6 504h155zM678 1393l-8 -504h-142l-6 504h156z" />
    <glyph glyph-name="numbersign" unicode="#" horiz-adv-x="1232" 
d="M610 16l66 308h-289l-68 -324h-149v16l66 308h-154v151h186l94 443h-149v153h182l70 322h147v-17l-65 -305h287l69 322h148v-17l-66 -305h168v-153h-201l-94 -443h164v-151h-197l-67 -324h-148v16zM514 918l-94 -443h287l94 443h-287z" />
    <glyph glyph-name="dollar" unicode="$" 
d="M457 -264v246q-107 5 -206.5 38t-162.5 72l47 189q152 -106 322 -117v465l-119 37q-268 80 -268 342q0 99 42.5 182t131.5 141.5t213 73.5v172h123v-166q103 -4 204.5 -33.5t169.5 -68.5l-57 -181q-58 40 -145 66t-172 31v-441l77 -24q161 -51 239.5 -135.5t78.5 -221.5
q0 -169 -107 -282t-288 -135v-250h-123zM768 391q0 75 -45.5 122t-142.5 77v-418q87 20 137.5 75.5t50.5 143.5zM266 1020q0 -140 162 -189l29 -10v398q-94 -18 -142.5 -71t-48.5 -128z" />
    <glyph glyph-name="percent" unicode="%" horiz-adv-x="1564" 
d="M391 16l615 1377h170v-17l-615 -1376h-170v16zM80 1051q0 169 86 265.5t227 96.5t228.5 -96.5t87.5 -265.5t-87 -264t-229 -95q-141 0 -227 94.5t-86 264.5zM227 1051q0 -102 45 -156.5t121 -54.5q77 0 122.5 54.5t45.5 156.5t-45.5 156.5t-122.5 54.5q-76 0 -121 -54.5
t-45 -156.5zM854 338q0 170 87 266t228 96t228.5 -96t87.5 -266q0 -168 -87.5 -263t-228.5 -95t-228 95t-87 263zM1001 338q0 -101 46 -155t122 -54q77 0 121.5 53.5t44.5 155.5q0 103 -44.5 157t-121.5 54q-76 0 -122 -54t-46 -157z" />
    <glyph glyph-name="ampersand" unicode="&#x26;" horiz-adv-x="1339" 
d="M1260 23v-31h-232l-117 131q-177 -143 -395 -143q-186 0 -295.5 100.5t-109.5 267.5q0 66 22 124t62.5 103t87 79.5t106.5 66.5q-79 88 -119.5 166t-40.5 178q0 149 100 248.5t275 99.5q171 0 273 -94.5t102 -253.5q0 -236 -268 -367l-47 -22l262 -287q122 166 184 395
l150 -100q-81 -254 -216 -426zM555 156q124 0 244 96l-301 344q-91 -47 -138 -96.5t-47 -126.5q0 -98 66 -157.5t176 -59.5zM424 1051q0 -65 35 -125.5t94 -128.5l84 39q147 66 147 215q0 80 -51 134t-129 54q-83 0 -131.5 -52.5t-48.5 -135.5z" />
    <glyph glyph-name="quotesingle" unicode="'" horiz-adv-x="454" 
d="M305 1393l-8 -504h-141l-6 504h155z" />
    <glyph glyph-name="parenleft" unicode="(" horiz-adv-x="569" 
d="M379 1466l115 -69q-36 -58 -69 -135t-67 -185t-54.5 -249.5t-20.5 -292.5q0 -150 20.5 -291.5t54 -249.5t67.5 -185.5t69 -134.5l-115 -69q-41 48 -83.5 127t-86.5 195t-72 276.5t-28 333.5q0 172 28 332t72 275.5t86.5 194.5t83.5 127z" />
    <glyph glyph-name="parenright" unicode=")" horiz-adv-x="569" 
d="M76 1397l114 69q41 -48 83.5 -127t87 -194.5t72.5 -275.5t28 -332q0 -173 -28 -333.5t-72.5 -276.5t-87 -195t-83.5 -127l-114 69q35 57 69 134.5t67.5 185.5t54 249.5t20.5 291.5q0 151 -20.5 292.5t-54.5 249.5t-67 185t-69 135z" />
    <glyph glyph-name="asterisk" unicode="*" horiz-adv-x="956" 
d="M430 1102q-27 135 -27 268q0 39 22 61.5t52 22.5t52 -22.5t22 -61.5q0 -97 -31 -260q133 82 228 113q43 14 71.5 -9t28.5 -59q0 -26 -16.5 -47.5t-47.5 -28.5q-88 -29 -243 -47q88 -79 182 -205q29 -44 6.5 -81t-65.5 -37q-42 0 -68 39q-30 43 -67.5 116t-51.5 121
q-50 -135 -115 -233q-30 -43 -69 -43q-45 0 -67 38t10 84q99 136 165 193q-107 18 -233 61q-29 9 -44 29t-15 45q2 38 32 61t76 7q72 -25 213 -125z" />
    <glyph glyph-name="plus" unicode="+" 
d="M600 1096v-396h332v-161h-332v-396h-158v396h-331v161h331v396h158z" />
    <glyph glyph-name="comma" unicode="," horiz-adv-x="520" 
d="M145 -303l78 278q-45 9 -69.5 44t-24.5 87q0 69 33.5 106.5t95.5 37.5q61 0 96 -40t35 -104q0 -94 -44 -237t-87 -219z" />
    <glyph glyph-name="hyphen" unicode="-" horiz-adv-x="983" 
d="M152 700h679v-161h-679v161z" />
    <glyph glyph-name="period" unicode="." horiz-adv-x="522" 
d="M131 115q0 66 34 102.5t95 36.5q63 0 98 -36.5t35 -102.5q0 -67 -35 -103.5t-98 -36.5q-62 0 -95.5 36.5t-33.5 103.5z" />
    <glyph glyph-name="slash" unicode="/" horiz-adv-x="884" 
d="M49 16l617 1377h170v-17l-615 -1376h-172v16z" />
    <glyph glyph-name="zero" unicode="0" horiz-adv-x="1290" 
d="M133 694q0 218 54.5 377t170.5 250.5t285 91.5q171 0 288 -91.5t171.5 -250.5t54.5 -377q0 -216 -54.5 -374t-171.5 -249t-288 -91q-169 0 -285 91t-170.5 249t-54.5 374zM324 694q0 -246 78 -386t241 -140q113 0 186.5 68t104.5 182.5t31 275.5q0 164 -31 280
t-104.5 185.5t-186.5 69.5q-163 0 -241 -143t-78 -392z" />
    <glyph glyph-name="one" unicode="1" horiz-adv-x="886" 
d="M29 1094l508 299h149v-1393h-199v1157l-385 -217z" />
    <glyph glyph-name="two" unicode="2" horiz-adv-x="1153" 
d="M139 0v154l473 444q100 95 144.5 176.5t44.5 183.5q0 122 -63 196.5t-185 74.5q-126 0 -192 -90.5t-68 -241.5l-180 33q5 222 122 352.5t328 130.5q108 0 193.5 -34t139 -94.5t81 -139.5t27.5 -172q0 -132 -58.5 -239.5t-189.5 -235.5l-336 -322h616v-176h-897z" />
    <glyph glyph-name="three" unicode="3" horiz-adv-x="1142" 
d="M256 807h293q105 0 164 60.5t59 148.5q0 108 -77 166.5t-197 58.5q-94 0 -187 -31t-147 -65l-47 172q69 36 177 66t218 30q222 0 341.5 -96.5t119.5 -276.5q0 -112 -58.5 -200.5t-152.5 -112.5q254 -76 254 -348q0 -186 -133 -292.5t-371 -106.5q-189 0 -397 92l51 170
q171 -90 338 -90q133 0 221 69t88 187q0 108 -67 164.5t-197 56.5h-293v178z" />
    <glyph glyph-name="four" unicode="4" horiz-adv-x="1245" 
d="M1171 289h-231v-289h-199v289h-682v135l619 969h262v-953h231v-151zM260 440h481v758z" />
    <glyph glyph-name="five" unicode="5" horiz-adv-x="1136" 
d="M178 686l-10 10l51 697h758v-176h-590l-25 -379h164q233 0 361.5 -94.5t128.5 -294.5q0 -96 -25.5 -174.5t-70.5 -132.5t-108.5 -91t-138.5 -54t-161 -17q-221 0 -410 96l52 170q162 -94 338 -94q65 0 121 16.5t101.5 50t72 90.5t26.5 133q0 128 -83.5 186t-225.5 58
h-326z" />
    <glyph glyph-name="six" unicode="6" horiz-adv-x="1247" 
d="M1079 1290l-59 -164q-54 45 -141.5 80t-184.5 35q-92 0 -161.5 -38t-113 -108.5t-65.5 -165.5t-24 -214q24 37 54 69.5t75 67.5t106.5 55.5t130.5 20.5q205 0 319.5 -120.5t114.5 -334.5q0 -221 -129.5 -357t-332.5 -136q-253 0 -395 194.5t-142 523.5q0 213 62.5 373.5
t185.5 251t293 90.5q127 0 237.5 -38.5t169.5 -84.5zM664 762q-51 0 -98 -17t-81 -41.5t-64 -58t-47.5 -60t-31.5 -53.5q26 -171 106.5 -269.5t210.5 -98.5q119 0 197 88.5t78 220.5q0 139 -74 214t-196 75z" />
    <glyph glyph-name="seven" unicode="7" horiz-adv-x="978" 
d="M207 18l498 1199h-648v176h871v-146l-502 -1247h-219v18z" />
    <glyph glyph-name="eight" unicode="8" horiz-adv-x="1249" 
d="M627 -20q-235 0 -366.5 106.5t-131.5 292.5q0 282 270 348q-107 24 -168 111.5t-61 201.5q0 179 119.5 276t337.5 97q215 0 332.5 -97t117.5 -276q0 -114 -60 -201.5t-167 -111.5q270 -65 270 -348q0 -185 -131 -292t-362 -107zM625 651q-146 0 -220.5 -66.5
t-74.5 -176.5q0 -119 83 -192t214 -73q129 0 211 73t82 192q0 110 -73 176.5t-222 66.5zM627 1251q-121 0 -190.5 -59t-69.5 -170q0 -96 64 -161.5t194 -65.5q129 0 192.5 65.5t63.5 161.5q0 110 -68.5 169.5t-185.5 59.5z" />
    <glyph glyph-name="nine" unicode="9" horiz-adv-x="1247" 
d="M168 102l59 164q54 -45 141.5 -79.5t184.5 -34.5q122 0 204.5 67t120.5 181.5t40 273.5q-25 -37 -55.5 -69t-75.5 -66t-106.5 -54t-129.5 -20q-205 0 -319.5 120.5t-114.5 334.5q0 220 130.5 356.5t332.5 136.5q254 0 395 -195t141 -524q0 -213 -62 -373t-185 -250.5
t-294 -90.5q-127 0 -236 38t-171 84zM586 631q62 0 117 23.5t94.5 63t64 73t43.5 69.5q-27 170 -108 269.5t-209 99.5q-119 0 -197 -88.5t-78 -220.5q0 -139 74.5 -214t198.5 -75z" />
    <glyph glyph-name="colon" unicode=":" horiz-adv-x="559" 
d="M150 965q0 66 33 101.5t93 35.5q63 0 97.5 -35.5t34.5 -101.5t-34.5 -102t-97.5 -36q-60 0 -93 36t-33 102zM150 111q0 66 33 101.5t93 35.5q63 0 97.5 -35.5t34.5 -101.5t-34.5 -102t-97.5 -36q-60 0 -93 36t-33 102z" />
    <glyph glyph-name="semicolon" unicode=";" horiz-adv-x="567" 
d="M172 -299l76 272q-44 9 -68 44t-24 85q0 67 33.5 104.5t93.5 37.5q59 0 94 -39.5t35 -102.5q0 -93 -43 -233.5t-86 -214.5zM154 965q0 66 33.5 101.5t93.5 35.5q63 0 97 -35.5t34 -101.5t-34 -102t-97 -36q-60 0 -93.5 36t-33.5 102z" />
    <glyph glyph-name="less" unicode="&#x3c;" 
d="M113 537v159l805 408h14v-156l-660 -330l660 -325v-158h-14z" />
    <glyph glyph-name="equal" unicode="=" 
d="M113 987h819v-160h-819v160zM113 412h819v-160h-819v160z" />
    <glyph glyph-name="greater" unicode="&#x3e;" 
d="M932 696v-159l-803 -402h-16v158l659 325l-659 330v156h16z" />
    <glyph glyph-name="question" unicode="?" horiz-adv-x="868" 
d="M455 485h-164q-17 62 -17 103q0 49 23.5 87t73.5 83l84 80q28 28 42.5 44.5t34 46t28.5 64t9 76.5q0 78 -48.5 127t-133.5 49q-154 0 -246 -151l-59 153q134 166 350 166q154 0 246 -90.5t92 -228.5q0 -62 -14.5 -116t-43 -98.5t-52 -73t-58.5 -63.5l-92 -94
q-27 -27 -36.5 -37.5t-17 -28.5t-7.5 -42q0 -26 6 -56zM246 115q0 66 33 102.5t96 36.5q62 0 96.5 -36.5t34.5 -102.5q0 -67 -34.5 -103.5t-96.5 -36.5q-63 0 -96 36t-33 104z" />
    <glyph glyph-name="at" unicode="@" horiz-adv-x="1761" 
d="M1262 1006v-715q0 -71 14.5 -99t58.5 -28q79 0 140 125.5t61 357.5q0 319 -172 502.5t-467 183.5q-143 0 -262 -52.5t-206.5 -151t-136 -250t-48.5 -340.5q0 -377 177 -587t476 -210q171 0 313 82l47 -127q-163 -94 -360 -94q-366 0 -581.5 249.5t-215.5 686.5
q0 209 59.5 384.5t164.5 295.5t252.5 187t320.5 67q232 0 409.5 -100.5t275 -285.5t97.5 -428q0 -165 -32 -290t-88.5 -199.5t-128.5 -110.5t-158 -36q-81 0 -122 27t-65 89q-83 -114 -266 -114q-174 0 -280.5 138.5t-106.5 356.5q0 221 107 361.5t280 140.5q176 0 254 -98
v82h189zM625 520q0 -146 69.5 -236.5t184.5 -90.5q59 0 109.5 27t84.5 69v471q-30 41 -81.5 66.5t-112.5 25.5q-115 0 -184.5 -91.5t-69.5 -240.5z" />
    <glyph glyph-name="A" unicode="A" horiz-adv-x="1269" 
d="M39 0l485 1393h232l465 -1393h-199l-102 313h-578l-104 -313h-199zM639 1192l-244 -727h475z" />
    <glyph glyph-name="B" unicode="B" horiz-adv-x="1275" 
d="M199 0v1393h471q192 0 297.5 -91t105.5 -274q0 -113 -51 -190t-143 -113q288 -59 288 -348q0 -177 -108 -277t-309 -100h-551zM399 618v-442h324q119 0 177 55.5t58 157.5q0 113 -67 171t-197 58h-295zM399 1217v-412h236q113 0 174 53.5t61 153.5q0 205 -227 205h-244z
" />
    <glyph glyph-name="C" unicode="C" horiz-adv-x="1320" 
d="M1133 354l84 -164q-86 -90 -216 -150t-270 -60q-268 0 -437 192t-169 522q0 333 169 526t437 193q230 0 354.5 -121.5t128.5 -363.5l-182 -35q-6 332 -309 332q-180 0 -286.5 -141t-106.5 -390q0 -252 111 -390t304 -138q104 0 208 55t180 133z" />
    <glyph glyph-name="D" unicode="D" horiz-adv-x="1427" 
d="M199 0v1393h491q132 0 243.5 -46.5t194 -133.5t129 -220t46.5 -299q0 -165 -46.5 -297.5t-129 -218.5t-194 -132t-243.5 -46h-491zM399 176h267q199 0 315.5 135t116.5 383q0 250 -116.5 386.5t-315.5 136.5h-267v-1041z" />
    <glyph glyph-name="E" unicode="E" horiz-adv-x="1245" 
d="M1124 0h-925v1393h925v-179h-733v-405h606v-176h-606v-457h733v-176z" />
    <glyph glyph-name="F" unicode="F" horiz-adv-x="1165" 
d="M995 541h-604v-541h-192v1393h891v-179h-699v-495h604v-178z" />
    <glyph glyph-name="G" unicode="G" horiz-adv-x="1390" 
d="M1204 1237l-86 -160q-161 148 -344 148q-202 0 -325 -141.5t-123 -389.5q0 -251 122 -389.5t316 -138.5q84 0 163 26t136 70v336h-363v174h549v-625q-85 -72 -224.5 -119.5t-272.5 -47.5q-131 0 -246 49t-200.5 139t-135 226t-49.5 300q0 166 49.5 303t135 227
t200.5 139.5t246 49.5q267 0 452 -176z" />
    <glyph glyph-name="H" unicode="H" horiz-adv-x="1507" 
d="M1108 0v612h-709v-612h-200v1393h200v-605h709v605h201v-1393h-201z" />
    <glyph glyph-name="I" unicode="I" horiz-adv-x="598" 
d="M199 0v1393h200v-1393h-200z" />
    <glyph glyph-name="J" unicode="J" horiz-adv-x="1165" 
d="M47 465l193 18q9 -168 73.5 -246.5t194.5 -78.5q131 0 200.5 84.5t69.5 253.5v897h201v-895q0 -241 -122 -381t-353 -140q-217 0 -333 127.5t-124 360.5z" />
    <glyph glyph-name="K" unicode="K" horiz-adv-x="1384" 
d="M1214 1393v-31l-407 -678q24 -31 59 -101.5t69.5 -139.5t75 -136t91 -109t102.5 -42q57 0 129 37l23 -160q-90 -53 -199 -53q-70 0 -131.5 36.5t-104.5 91.5t-85 128t-71.5 139t-63.5 131t-62 98h-240v-604h-200v1393h200v-613h258l351 613h206z" />
    <glyph glyph-name="L" unicode="L" horiz-adv-x="1079" 
d="M1038 0h-839v1393h200v-1217h639v-176z" />
    <glyph glyph-name="M" unicode="M" horiz-adv-x="1703" 
d="M1305 0v1059l-435 -633h-36l-435 633v-1059h-200v1393h196l457 -670l457 670h196v-1393h-200z" />
    <glyph glyph-name="N" unicode="N" horiz-adv-x="1503" 
d="M1126 0l-729 1057v-1057h-198v1393h174l729 -1059v1059h203v-1393h-179z" />
    <glyph glyph-name="O" unicode="O" horiz-adv-x="1462" 
d="M121 694q0 320 168.5 519.5t439.5 199.5q273 0 441.5 -199.5t168.5 -519.5q0 -209 -76 -371.5t-215 -252.5t-319 -90q-179 0 -317.5 90t-214.5 252.5t-76 371.5zM319 694q0 -250 112.5 -387t297.5 -137q187 0 300.5 137t113.5 387q0 252 -113.5 390.5t-300.5 138.5
q-185 0 -297.5 -138.5t-112.5 -390.5z" />
    <glyph glyph-name="P" unicode="P" horiz-adv-x="1257" 
d="M199 0v1393h542q87 0 163 -30.5t136.5 -89.5t95.5 -156t35 -220q0 -112 -35 -205.5t-94.5 -154.5t-137.5 -95t-163 -34h-342v-408h-200zM700 1217h-301v-633h301q111 0 189 85.5t78 227.5q0 153 -76.5 236.5t-190.5 83.5z" />
    <glyph glyph-name="Q" unicode="Q" horiz-adv-x="1464" 
d="M123 694q0 320 168.5 519.5t439.5 199.5q273 0 441.5 -199.5t168.5 -519.5q0 -250 -107.5 -431t-293.5 -249q2 -2 25 -27t28 -30t27 -27.5t30.5 -29t30 -24.5t34.5 -24t34.5 -18t38.5 -16.5t38.5 -8.5t43.5 -4q108 0 180 31l23 -166q-97 -39 -218 -39q-80 0 -156 31.5
t-132 79t-101 95.5t-82.5 90t-58.5 53q-268 3 -435 201t-167 513zM317 694q0 -250 114 -387t300 -137q187 0 300.5 137t113.5 387q0 252 -113.5 390.5t-300.5 138.5q-185 0 -299.5 -139t-114.5 -390z" />
    <glyph glyph-name="R" unicode="R" horiz-adv-x="1368" 
d="M199 0v1393h551q183 0 301 -121t118 -326q0 -179 -106 -295.5t-266 -134.5q23 -28 70.5 -89t80 -99.5t76.5 -83t87 -66.5t85 -22q65 0 135 39l23 -162q-38 -23 -95.5 -38t-111.5 -15q-76 0 -151.5 45t-137 114.5t-115 141.5t-106 139.5t-88.5 93.5h-150v-514h-200z
M399 1217v-541h301q114 0 189.5 72t75.5 196q0 132 -74.5 202.5t-190.5 70.5h-301z" />
    <glyph glyph-name="S" unicode="S" horiz-adv-x="1136" 
d="M137 92l47 189q70 -49 164.5 -83t190.5 -34q123 0 200.5 58.5t77.5 168.5q0 77 -49.5 124t-155.5 79l-225 68q-270 83 -270 346q0 82 31 154t89.5 128t150.5 88.5t206 32.5q112 0 224 -29.5t186 -72.5l-58 -181q-65 43 -161.5 71t-184.5 28q-139 0 -212 -57.5t-73 -149.5
q0 -72 41 -116t121 -68l228 -72q161 -52 239 -137.5t78 -223.5q0 -188 -129 -305.5t-344 -117.5q-118 0 -230.5 34.5t-181.5 77.5z" />
    <glyph glyph-name="T" unicode="T" horiz-adv-x="1118" 
d="M1063 1214h-395v-1214h-201v1214h-414v179h1010v-179z" />
    <glyph glyph-name="U" unicode="U" horiz-adv-x="1421" 
d="M385 1393v-824q0 -405 324 -405q167 0 248 108.5t81 298.5v822h201v-834q0 -123 -32 -227t-95.5 -184.5t-166.5 -125.5t-236 -45q-176 0 -295.5 74t-174.5 202.5t-55 305.5v834h201z" />
    <glyph glyph-name="V" unicode="V" horiz-adv-x="1284" 
d="M514 0l-465 1393h213l375 -1184l391 1184h217l-485 -1393h-246z" />
    <glyph glyph-name="W" unicode="W" horiz-adv-x="1931" 
d="M1190 0l-223 686l-238 -686h-215l-465 1393h211l377 -1168l244 699l-152 469h213l352 -1137l381 1137h215l-483 -1393h-217z" />
    <glyph glyph-name="X" unicode="X" horiz-adv-x="1280" 
d="M1217 1393v-17l-439 -682l439 -678v-16h-232l-346 561l-346 -561h-230v16l437 678l-437 682v17h228l348 -564l348 564h230z" />
    <glyph glyph-name="Y" unicode="Y" horiz-adv-x="1198" 
d="M500 0v573l-475 803v17h221l354 -635l354 635h220v-17l-476 -803v-573h-198z" />
    <glyph glyph-name="Z" unicode="Z" horiz-adv-x="1122" 
d="M109 145l649 1072h-649v176h905v-146l-649 -1071h649v-176h-905v145z" />
    <glyph glyph-name="bracketleft" unicode="[" horiz-adv-x="630" 
d="M561 -385h-385v1839h385v-162h-225v-1515h225v-162z" />
    <glyph glyph-name="backslash" unicode="\" horiz-adv-x="884" 
d="M219 1393l617 -1377v-16h-172l-615 1376v17h170z" />
    <glyph glyph-name="bracketright" unicode="]" horiz-adv-x="630" 
d="M70 1454h385v-1839h-385v162h225v1515h-225v162z" />
    <glyph glyph-name="asciicircum" unicode="^" 
d="M442 1393h150l326 -564v-16h-183l-217 420l-217 -420h-178v16z" />
    <glyph glyph-name="underscore" unicode="_" horiz-adv-x="1292" 
d="M211 -76h870v-162h-870v162z" />
    <glyph glyph-name="grave" unicode="`" 
d="M524 1225l-172 293h197l143 -293h-168z" />
    <glyph glyph-name="a" unicode="a" horiz-adv-x="1245" 
d="M1020 1071v-805q0 -114 72 -114q41 0 96 38l10 -159q-76 -51 -182 -51q-76 0 -119.5 32.5t-60.5 108.5q-48 -64 -126.5 -101.5t-172.5 -37.5q-199 0 -316 145.5t-117 404.5q0 257 117 407.5t322 150.5q81 0 158 -30.5t122 -86.5v98h197zM823 793q-38 50 -98.5 85
t-128.5 35q-135 0 -213 -101.5t-78 -279.5q0 -174 78.5 -275t212.5 -101q66 0 127 38.5t100 90.5v508z" />
    <glyph glyph-name="b" unicode="b" horiz-adv-x="1187" 
d="M362 1454v-483q112 119 293 119q196 0 312 -146t116 -407t-116 -409t-312 -148q-187 0 -293 124v-104h-196v1454h196zM883 532q0 178 -78.5 279.5t-212.5 101.5q-68 0 -130.5 -34t-99.5 -82v-527q39 -47 101 -80.5t129 -33.5q134 0 212.5 101t78.5 275z" />
    <glyph glyph-name="c" unicode="c" horiz-adv-x="1077" 
d="M903 276l80 -157q-175 -148 -389 -148q-126 0 -221 41t-154 116t-88 176.5t-29 227.5q0 253 131.5 410.5t348.5 157.5q186 0 287 -97.5t124 -275.5l-157 -55q-9 121 -68.5 185.5t-167.5 64.5q-136 0 -215.5 -105.5t-79.5 -277.5q0 -183 75.5 -286t235.5 -103q74 0 149 35
t138 91z" />
    <glyph glyph-name="d" unicode="d" horiz-adv-x="1245" 
d="M825 1454h197v-1186q0 -57 16 -86.5t58 -29.5q41 0 92 38l12 -159q-76 -51 -184 -51q-145 0 -178 139q-109 -139 -301 -139q-197 0 -315 148t-118 409q0 260 117.5 406.5t315.5 146.5q176 0 288 -119v483zM305 532q0 -174 78.5 -275t212.5 -101q68 0 129 34t98 82v525
q-35 48 -96.5 82t-130.5 34q-135 0 -213 -101.5t-78 -279.5z" />
    <glyph glyph-name="e" unicode="e" horiz-adv-x="1089" 
d="M961 469h-664q6 -153 82.5 -240.5t232.5 -87.5q151 0 285 117l78 -152q-154 -135 -391 -135q-122 0 -215 42t-151 117.5t-87 176.5t-29 225q0 164 58 292.5t167 202t253 73.5q104 0 183 -34t127 -94t71.5 -137t23.5 -169q0 -96 -24 -197zM307 627h492q6 30 6 65
q0 107 -58.5 171.5t-166.5 64.5q-123 0 -195 -82t-78 -219z" />
    <glyph glyph-name="f" unicode="f" horiz-adv-x="802" 
d="M74 852v160h174v114q0 349 307 349q132 0 229 -74l-49 -170q-75 65 -149 65q-142 0 -142 -161v-123h301v-160h-301v-852h-196v852h-174z" />
    <glyph glyph-name="g" unicode="g" horiz-adv-x="1189" 
d="M106 573q0 235 119 376t318 141q169 0 282 -123v104h197v-1010q0 -119 -34 -210t-94.5 -146.5t-139.5 -83t-174 -27.5q-68 0 -127.5 9.5t-108 29t-72.5 31t-59 31.5l45 176q151 -100 299 -100q57 0 103 13t84.5 42.5t59.5 83t21 127.5v137q-110 -113 -282 -113
q-199 0 -318 140t-119 372zM307 573q0 -153 78.5 -244t212.5 -91q124 0 227 112v441q-93 122 -225 122q-135 0 -214 -91.5t-79 -248.5z" />
    <glyph glyph-name="h" unicode="h" horiz-adv-x="1222" 
d="M362 0h-196v1454h196v-522q46 76 127 117t187 41q169 0 253.5 -108.5t84.5 -311.5v-420q0 -54 16 -76t53 -22q46 0 95 36l12 -157q-76 -51 -176 -51q-102 0 -150.5 52.5t-48.5 166.5v434q0 133 -54.5 201.5t-160.5 68.5q-88 0 -149.5 -61t-88.5 -152v-690z" />
    <glyph glyph-name="i" unicode="i" horiz-adv-x="595" 
d="M143 1380q0 115 125 115q119 0 119 -115q0 -116 -119 -116q-125 0 -125 116zM166 1071h199v-821q0 -53 16.5 -75.5t52.5 -22.5q45 0 94 36l13 -157q-72 -51 -176 -51q-101 0 -150 52.5t-49 166.5v872z" />
    <glyph glyph-name="j" unicode="j" horiz-adv-x="528" 
d="M166 1071h196v-1030q0 -88 -17 -159t-50 -123.5t-73 -90.5t-95 -71l-115 133q78 54 116 122t38 181v1038zM143 1380q0 115 123 115q121 0 121 -115q0 -116 -121 -116q-123 0 -123 116z" />
    <glyph glyph-name="k" unicode="k" horiz-adv-x="1120" 
d="M362 0h-196v1454h196v-833q74 1 129.5 11t111.5 39t96 77.5t72 129.5t50 193h199q-53 -384 -270 -526l303 -520v-25h-209l-260 469q-106 -25 -222 -25v-444z" />
    <glyph glyph-name="l" unicode="l" horiz-adv-x="602" 
d="M160 1454h198v-1184q0 -66 21 -92t65 -26q55 0 111 36l12 -157q-88 -51 -192 -51q-108 0 -161.5 56.5t-53.5 184.5v1233z" />
    <glyph glyph-name="m" unicode="m" horiz-adv-x="1814" 
d="M362 0h-196v1071h196v-135q94 154 302 154q221 0 292 -193q97 193 310 193q178 0 259 -102t81 -306v-432q0 -53 16.5 -75.5t52.5 -22.5q48 0 97 36l12 -157q-72 -51 -178 -51q-101 0 -149 52.5t-48 166.5v446q0 133 -50.5 195.5t-156.5 62.5q-151 0 -213 -190
q0 -5 1 -15.5t1 -15.5v-682h-196v645q0 130 -54 194t-153 64q-167 0 -226 -201v-702z" />
    <glyph glyph-name="n" unicode="n" horiz-adv-x="1222" 
d="M362 0h-196v1071h196v-139q46 76 127 117t187 41q169 0 253.5 -108.5t84.5 -311.5v-420q0 -54 16 -76t53 -22q46 0 95 36l12 -157q-76 -51 -176 -51q-102 0 -150.5 52.5t-48.5 166.5v434q0 133 -54.5 201.5t-160.5 68.5q-88 0 -149.5 -61t-88.5 -152v-690z" />
    <glyph glyph-name="o" unicode="o" horiz-adv-x="1177" 
d="M102 532q0 263 133 415.5t353 152.5q222 0 354.5 -152.5t132.5 -415.5q0 -260 -132.5 -410.5t-354.5 -150.5q-220 0 -353 150.5t-133 410.5zM297 532q0 -179 78.5 -277.5t212.5 -98.5t212.5 98.5t78.5 277.5q0 182 -78.5 282.5t-212.5 100.5t-212.5 -100.5t-78.5 -282.5z
" />
    <glyph glyph-name="p" unicode="p" horiz-adv-x="1247" 
d="M1143 535q0 -260 -117.5 -406.5t-314.5 -146.5q-180 0 -289 116v-481h-199v1186q0 59 -15.5 88t-57.5 29t-91 -39l-14 161q86 50 184 50q144 0 181 -138q49 64 126 101t175 37q196 0 314 -148t118 -409zM942 541q0 174 -78.5 274t-212.5 100q-69 0 -130.5 -33t-98.5 -81
v-527q37 -48 98.5 -81t130.5 -33q134 0 212.5 101.5t78.5 279.5z" />
    <glyph glyph-name="q" unicode="q" horiz-adv-x="1187" 
d="M104 532q0 261 116 409.5t312 148.5q182 0 293 -125v106h197v-1456h-197v481q-113 -116 -293 -116q-196 0 -312 145.5t-116 406.5zM305 539q0 -178 79 -280.5t214 -102.5q66 0 127 33.5t100 80.5v527q-38 48 -99 81t-128 33q-136 0 -214.5 -99t-78.5 -273z" />
    <glyph glyph-name="r" unicode="r" horiz-adv-x="845" 
d="M811 1030l-33 -182q-68 55 -157 55q-85 0 -129.5 -65.5t-69.5 -186.5v-651h-199v803q0 59 -15.5 88t-57.5 29t-91 -39l-14 161q86 50 184 50q149 0 183 -152q36 77 90 113.5t141 36.5q105 0 168 -60z" />
    <glyph glyph-name="s" unicode="s" horiz-adv-x="927" 
d="M821 1018l-49 -170q-140 70 -276 70q-94 0 -144.5 -39.5t-50.5 -110.5q0 -50 32 -78.5t111 -50.5l160 -47q223 -66 223 -277q0 -143 -98 -239t-270 -96q-101 0 -191.5 24t-152.5 57l41 179q154 -93 293 -93q87 0 133.5 42t46.5 110q0 59 -34.5 88t-105.5 51l-165 49
q-226 68 -226 277q0 142 103.5 234t283.5 92q84 0 182 -22t154 -50z" />
    <glyph glyph-name="t" unicode="t" horiz-adv-x="858" 
d="M418 911v-587q0 -168 143 -168q48 0 104 20.5t97 52.5l51 -159q-145 -90 -297 -90q-137 0 -216 78.5t-79 240.5v612h-168v160h180l23 272h162v-272h350v-160h-350z" />
    <glyph glyph-name="u" unicode="u" horiz-adv-x="1224" 
d="M805 1071h196v-821q0 -53 17 -75.5t55 -22.5q45 0 94 36l13 -157q-72 -51 -179 -51q-164 0 -190 141q-102 -141 -313 -141q-342 0 -342 419v672h196v-647q0 -128 49 -194t160 -66q91 0 151.5 50t92.5 132v725z" />
    <glyph glyph-name="v" unicode="v" horiz-adv-x="1216" 
d="M414 840v-377q0 -141 61 -220t166 -79q106 0 176 92t70 246q0 156 -27 309t-61 260h200q30 -97 58 -259.5t28 -322.5q0 -232 -121.5 -370.5t-324.5 -138.5q-202 0 -312 119.5t-110 334.5v371q0 59 -17 87t-57 28q-46 0 -94 -39l-10 159q69 50 182 50q97 0 145 -60.5
t48 -189.5z" />
    <glyph glyph-name="w" unicode="w" horiz-adv-x="1812" 
d="M1032 1071v-616q0 -133 56 -212t155 -79q110 0 170 93t60 245q0 276 -78 569h202q82 -292 82 -569q0 -247 -108.5 -384.5t-302.5 -137.5q-127 0 -206.5 49.5t-125.5 169.5q-48 -117 -131 -168t-207 -51q-189 0 -284 115.5t-95 338.5v371q0 58 -18 86.5t-58 28.5
q-46 0 -92 -39l-12 161q98 48 188 48q189 0 189 -246v-385q0 -145 52.5 -220t154.5 -75t162.5 79t60.5 220v608h186z" />
    <glyph glyph-name="x" unicode="x" horiz-adv-x="1042" 
d="M981 1071v-16l-324 -523l324 -516v-16h-217l-244 422l-241 -422h-218v16l320 516l-320 523v16h213l246 -428l248 428h213z" />
    <glyph glyph-name="y" unicode="y" horiz-adv-x="1048" 
d="M47 -344l31 151q75 -45 164 -45q72 0 114 43.5t74 139.5l23 73l-424 1053h217l295 -852l272 852h201l-412 -1165q-55 -159 -132.5 -235.5t-215.5 -76.5q-119 0 -207 62z" />
    <glyph glyph-name="z" unicode="z" horiz-adv-x="933" 
d="M98 145l490 764h-490v162h738v-145l-490 -766h490v-160h-738v145z" />
    <glyph glyph-name="braceleft" unicode="{" horiz-adv-x="600" 
d="M455 -254h47v-145h-80q-129 0 -192.5 65.5t-63.5 177.5q0 74 49 235t49 247q0 74 -42 107.5t-136 33.5v125q92 0 135 37t43 112q0 85 -49 245t-49 233q0 107 63.5 171t192.5 64h80v-145h-47q-67 0 -99 -36.5t-32 -94.5q0 -57 49 -216.5t49 -244.5q0 -80 -34 -126
t-107 -63q73 -17 107 -62.5t34 -127.5q0 -83 -49 -242.5t-49 -216.5q0 -60 32 -96.5t99 -36.5z" />
    <glyph glyph-name="bar" unicode="|" horiz-adv-x="509" 
d="M176 -385v1839h158v-1839h-158z" />
    <glyph glyph-name="braceright" unicode="}" horiz-adv-x="602" 
d="M180 -399h-82v145h52q64 0 96.5 37t32.5 96q0 57 -49.5 216.5t-49.5 242.5q0 82 33.5 127.5t108.5 62.5q-74 17 -108 63t-34 126q0 85 49.5 244.5t49.5 216.5q0 58 -32.5 94.5t-96.5 36.5h-52v145h82q128 0 191 -64t63 -171q0 -73 -48 -233t-48 -245q0 -75 42.5 -112
t135.5 -37v-125q-95 0 -136.5 -33.5t-41.5 -107.5q0 -86 48 -247t48 -235q0 -111 -63 -177t-191 -66z" />
    <glyph glyph-name="asciitilde" unicode="~" horiz-adv-x="956" 
d="M754 737l73 -90q-21 -86 -73 -138t-121 -52q-35 0 -69.5 17t-62 41.5t-54.5 49t-58 41.5t-61 17q-43 0 -77.5 -34.5t-47.5 -96.5l-74 96q16 76 68 130t122 54q37 0 73.5 -17t66.5 -41t57.5 -48t56.5 -41t54 -17q47 0 77 33t50 96z" />
    <glyph glyph-name="uni00A0" unicode="&#xa0;" horiz-adv-x="440" 
 />
    <glyph glyph-name="exclamdown" unicode="&#xa1;" horiz-adv-x="542" 
d="M342 584l29 -908h-199l29 908h141zM401 958q0 -68 -34 -104.5t-97 -36.5t-98 37t-35 104q0 69 35 105.5t98 36.5t97 -36.5t34 -105.5z" />
    <glyph glyph-name="cent" unicode="&#xa2;" 
d="M881 274l73 -155q-76 -69 -175 -108.5t-208 -39.5q-43 0 -84 6l-59 -256l-115 33l58 250q-146 57 -218.5 195t-72.5 333q0 163 58.5 292t168 202.5t252.5 73.5q48 0 68 -4l53 221l117 -35l-52 -217q182 -75 238 -328l-149 -63q-32 161 -129 223l-177 -752q36 -4 60 -4
q152 0 293 133zM264 539q0 -256 150 -353l176 748q-5 0 -14.5 1t-14.5 1q-135 0 -216 -111t-81 -286z" />
    <glyph glyph-name="sterling" unicode="&#xa3;" 
d="M797 647h-342q26 -178 26 -278q0 -42 -2 -62q16 -12 47.5 -41t57 -52.5t58 -42.5t58.5 -19q68 0 96.5 65.5t28.5 196.5v32h168q2 -27 2 -77q0 -389 -247 -389q-43 0 -90.5 24t-81 52.5t-76 67t-62.5 52.5q-35 -95 -84 -145.5t-133 -50.5q-83 0 -128.5 56t-45.5 148
q0 88 50.5 144.5t129.5 56.5q47 0 84 -23v17q0 19 -2 42.5t-4 39.5t-7.5 47t-7.5 42t-10 50.5t-10 46.5h-166v127h142q-23 122 -23 238q0 178 92 289.5t269 111.5q111 0 205.5 -46t148.5 -101l-64 -172q-115 135 -256 135q-95 0 -145.5 -72t-50.5 -190q0 -77 14 -193h361
v-127zM240 268q-36 0 -59 -25t-23 -67q0 -36 14.5 -59t44.5 -23q72 0 88 150q-28 24 -65 24z" />
    <glyph glyph-name="currency" unicode="&#xa4;" horiz-adv-x="1132" 
d="M872 1040l117 -114l-121 -119q58 -80 58 -189q0 -106 -56 -188l119 -117l-117 -114l-118 118q-79 -57 -193 -57q-107 0 -186 51l-113 -112l-117 114l111 109q-61 83 -61 196q0 114 61 197l-111 111l117 114l113 -116q80 55 186 55q116 0 193 -59zM340 618
q0 -96 62 -159.5t159 -63.5t159 63.5t62 159.5q0 95 -62 159.5t-159 64.5t-159 -64.5t-62 -159.5z" />
    <glyph glyph-name="yen" unicode="&#xa5;" 
d="M895 285h-279v-285h-198v285h-277v125h277v133h-277v127h232l-318 706v17h205l258 -656l264 656h205v-17l-328 -706h236v-127h-279v-133h279v-125z" />
    <glyph glyph-name="brokenbar" unicode="&#xa6;" horiz-adv-x="530" 
d="M344 -385h-158v711h158v-711zM186 1454h158v-686h-158v686z" />
    <glyph glyph-name="section" unicode="&#xa7;" horiz-adv-x="1163" 
d="M156 -104l45 163q193 -92 379 -92q114 0 181.5 38.5t67.5 107.5q0 26 -11.5 46t-27.5 33t-48.5 25.5t-59 20t-74.5 18.5l-207 47q-138 32 -200 100t-62 187q0 85 41 157.5t121 118.5q-78 33 -119 87.5t-41 142.5q0 136 120 226.5t329 90.5q116 0 228 -26.5t186 -61.5
l-54 -164q-198 90 -377 90q-115 0 -177 -42t-62 -107q0 -53 40 -79t115 -42l222 -43q154 -34 234.5 -117t80.5 -205q0 -89 -43 -159t-123 -115q82 -37 124 -90.5t42 -132.5q0 -146 -126 -232t-331 -86q-120 0 -232.5 29t-180.5 66zM643 788l-115 23q-108 -11 -162.5 -69.5
t-54.5 -131.5q0 -68 36 -106t122 -58l152 -36q102 8 162.5 57t60.5 131q0 74 -52.5 122.5t-148.5 67.5z" />
    <glyph glyph-name="dieresis" unicode="&#xa8;" 
d="M186 1376q0 111 117 111q113 0 113 -111q0 -56 -30.5 -83t-82.5 -27q-117 0 -117 110zM629 1376q0 111 116 111q113 0 113 -111q0 -56 -30.5 -83t-82.5 -27q-116 0 -116 110z" />
    <glyph glyph-name="copyright" unicode="&#xa9;" horiz-adv-x="1648" 
d="M109 694q0 203 93 368t256.5 258t364.5 93q152 0 285.5 -55t228.5 -150t150 -228.5t55 -285.5q0 -201 -93 -364.5t-258 -256.5t-368 -93q-201 0 -364.5 93t-256.5 256.5t-93 364.5zM225 694q0 -170 77 -307t214 -215t307 -78q127 0 238.5 45.5t191 125t125 191
t45.5 238.5q0 171 -77.5 309t-215 216.5t-307.5 78.5t-307 -78.5t-214 -216.5t-77 -309zM1030 557l86 -108q-51 -48 -127.5 -80.5t-159.5 -32.5q-157 0 -256.5 96.5t-99.5 261.5q0 166 99.5 262.5t256.5 96.5q132 0 207 -70t78 -192l-131 -31q0 71 -40 110t-114 39
q-91 0 -145.5 -57t-54.5 -158t55.5 -158t149.5 -57q107 0 196 78z" />
    <glyph glyph-name="ordfeminine" unicode="&#xaa;" horiz-adv-x="915" 
d="M764 838l8 -113q-60 -33 -125 -33q-84 0 -110 80q-76 -80 -177 -80q-93 0 -148.5 58.5t-55.5 150.5q0 117 83 178.5t228 61.5q23 0 59 -4v26q0 68 -27 96.5t-85 28.5q-45 0 -94 -14.5t-82 -36.5l-25 125q40 19 111 32t120 13q120 0 169 -56.5t49 -174.5v-304
q0 -34 9 -47.5t36 -13.5q18 0 57 27zM195 522h540v-116h-540v116zM393 809q74 0 133 51v176q-37 11 -77 11q-76 0 -125.5 -32t-49.5 -97q0 -52 32 -80.5t87 -28.5z" />
    <glyph glyph-name="guillemotleft" unicode="&#xab;" horiz-adv-x="985" 
d="M102 598v41l279 412h16l72 -47l-201 -386l201 -385l-72 -47h-16zM489 598v41l281 412h14l72 -47l-199 -386l201 -385l-74 -47h-14z" />
    <glyph glyph-name="logicalnot" unicode="&#xac;" 
d="M932 823l-2 -557h-156v396h-661v161h819z" />
    <glyph glyph-name="uni00AD" unicode="&#xad;" horiz-adv-x="983" 
d="M152 700h679v-161h-679v161z" />
    <glyph glyph-name="registered" unicode="&#xae;" horiz-adv-x="1648" 
d="M109 694q0 203 93 368t256.5 258t364.5 93q152 0 285.5 -55t228.5 -150t150 -228.5t55 -285.5q0 -201 -93 -364.5t-258 -256.5t-368 -93q-201 0 -364.5 93t-256.5 256.5t-93 364.5zM225 694q0 -170 77 -307t214 -215t307 -78t307 78t214 215t77 307q0 171 -77 309
t-214 216.5t-307 78.5t-307 -78.5t-214 -216.5t-77 -309zM690 346h-151v696h311q262 0 262 -231q0 -89 -55 -144t-142 -71q83 -75 119 -97q48 -28 88 -28q41 0 82 18l17 -127q-54 -26 -115 -26q-60 0 -122.5 34t-104 76t-88 87t-72.5 59h-29v-246zM854 920h-164v-218h164
q48 0 80.5 30t32.5 77q0 53 -32.5 82t-80.5 29z" />
    <glyph glyph-name="macron" unicode="&#xaf;" 
d="M737 1280h-432v141h432v-141z" />
    <glyph glyph-name="degree" unicode="&#xb0;" horiz-adv-x="854" 
d="M111 1051q0 168 87.5 265t227.5 97q141 0 228 -96.5t87 -265.5t-87 -264t-228 -95q-140 0 -227.5 95t-87.5 264zM250 1051q0 -110 47 -167t129 -57t130 58t48 166q0 109 -48 166t-130 57t-129 -56.5t-47 -166.5z" />
    <glyph glyph-name="plusminus" unicode="&#xb1;" 
d="M600 1323v-395h332v-162h-332v-291h-156v291h-331v162h331v395h156zM113 303h819v-162h-819v162z" />
    <glyph glyph-name="twosuperior" unicode="&#xb2;" horiz-adv-x="606" 
d="M88 938v88l225 203q88 76 88 162q0 52 -28 85t-80 33q-57 0 -86 -40t-29 -107l-106 18q3 109 63 173.5t164 64.5q105 0 161 -60.5t56 -156.5q0 -66 -28 -122t-93 -112l-145 -127h280v-102h-442z" />
    <glyph glyph-name="threesuperior" unicode="&#xb3;" horiz-adv-x="595" 
d="M141 1331h138q48 0 74 26.5t26 65.5q0 45 -30.5 69t-86.5 24q-88 0 -164 -41l-24 100q94 43 198 43q106 0 165 -47.5t59 -136.5q0 -51 -26 -90t-73 -56q56 -14 87.5 -57t31.5 -111q0 -90 -64 -141t-180 -51q-94 0 -200 41l28 98q81 -39 166 -39q59 0 95 29.5t36 81.5
q0 92 -118 92h-138v100z" />
    <glyph glyph-name="acute" unicode="&#xb4;" 
d="M692 1518l-172 -293h-168l144 293h196z" />
    <glyph glyph-name="mu" unicode="&#xb5;" horiz-adv-x="1171" 
d="M379 1071v-573q0 -169 49 -251.5t164 -82.5q161 0 235 174v733h199v-1071h-199v109q-105 -129 -305 -129q-82 0 -143 24v-389h-199v1456h199z" />
    <glyph glyph-name="paragraph" unicode="&#xb6;" horiz-adv-x="1013" 
d="M408 -385v944h-101q-104 0 -169.5 67.5t-65.5 188.5q0 120 65.5 188t169.5 68h256v-1456h-155zM700 -385v1456h156v-1456h-156z" />
    <glyph glyph-name="periodcentered" unicode="&#xb7;" horiz-adv-x="542" 
d="M141 608q0 66 34 103t95 37q63 0 98 -37t35 -103q0 -67 -35 -103t-98 -36q-62 0 -95.5 36t-33.5 103z" />
    <glyph glyph-name="cedilla" unicode="&#xb8;" 
d="M383 -197l47 201h84l-31 -133q28 8 52 8q69 0 109 -36.5t40 -96.5q0 -71 -53.5 -111.5t-136.5 -40.5q-72 0 -134 25l19 74q67 -23 108 -23q99 0 99 74q0 63 -90 63q-62 0 -109 -14z" />
    <glyph glyph-name="onesuperior" unicode="&#xb9;" horiz-adv-x="479" 
d="M27 1456l252 150h81v-670h-112v537l-176 -105z" />
    <glyph glyph-name="ordmasculine" unicode="&#xba;" horiz-adv-x="905" 
d="M139 1051q0 171 87 266.5t227 95.5q141 0 228 -95.5t87 -266.5q0 -172 -86.5 -265.5t-228.5 -93.5q-141 0 -227.5 93.5t-86.5 265.5zM266 1051q0 -115 50.5 -175.5t136.5 -60.5q87 0 137.5 60t50.5 176t-50.5 176.5t-137.5 60.5q-86 0 -136.5 -61t-50.5 -176zM184 522
h541v-116h-541v116z" />
    <glyph glyph-name="guillemotright" unicode="&#xbb;" horiz-adv-x="983" 
d="M494 639v-41l-281 -412h-14l-72 47l199 385l-201 386l74 47h14zM881 639v-41l-279 -412h-16l-72 47l201 385l-201 386l72 47h16z" />
    <glyph glyph-name="onequarter" unicode="&#xbc;" horiz-adv-x="1447" 
d="M1370 131h-104v-131h-115v131h-322v80l289 459l33 -2v2h115v-449h104v-90zM293 16l643 1377h117v-17l-641 -1376h-119v16zM59 1251l252 150h82v-670h-112v537l-177 -105zM946 221h205v328z" />
    <glyph glyph-name="onehalf" unicode="&#xbd;" horiz-adv-x="1423" 
d="M293 16l643 1377h117v-17l-641 -1376h-119v16zM885 0v90l225 201q88 76 88 162q0 53 -28 86.5t-80 33.5q-56 0 -85.5 -41t-29.5 -108l-107 18q3 109 63.5 173.5t164.5 64.5q105 0 161 -60.5t56 -156.5q0 -66 -28 -122t-93 -112l-145 -127h280v-102h-442zM59 1251l252 150
h82v-670h-112v537l-177 -105z" />
    <glyph glyph-name="threequarters" unicode="&#xbe;" horiz-adv-x="1550" 
d="M1483 131h-105v-131h-114v131h-322v80l289 459l33 -2v2h114v-449h105v-90zM403 16l644 1377h116v-17l-641 -1376h-119v16zM164 1126h137q48 0 74 27t26 66q0 92 -116 92q-88 0 -164 -41l-25 100q94 43 199 43q106 0 164.5 -47.5t58.5 -136.5q0 -52 -25.5 -90.5
t-72.5 -55.5q56 -14 87.5 -57t31.5 -111q0 -90 -64 -141t-180 -51q-95 0 -201 41l29 98q81 -39 166 -39q59 0 95 29.5t36 81.5q0 92 -119 92h-137v100zM1059 221h205v328z" />
    <glyph glyph-name="questiondown" unicode="&#xbf;" horiz-adv-x="849" 
d="M403 588h164q19 -74 19 -105q0 -48 -23.5 -84.5t-75.5 -85.5l-84 -77q-28 -29 -42 -45.5t-34 -47t-29 -65t-9 -76.5q0 -77 49 -125.5t135 -48.5q152 0 246 149l57 -153q-132 -164 -348 -164q-155 0 -246.5 90t-91.5 230q0 61 14.5 114.5t43 98.5t51 72t57.5 63l94 94
q3 3 12.5 13.5t11.5 13t9.5 11t9 11l6 10t5.5 11.5t3 11t2.5 14t0.5 15q0 16 -7 56zM614 956q0 -65 -33.5 -102t-95.5 -37q-63 0 -98 37t-35 102q0 69 35 105.5t98 36.5t96 -36.5t33 -105.5z" />
    <glyph glyph-name="Agrave" unicode="&#xc0;" horiz-adv-x="1269" 
d="M39 0l485 1393h232l465 -1393h-199l-102 313h-578l-104 -313h-199zM639 1192l-244 -727h475zM565 1546l-172 293h197l143 -293h-168z" />
    <glyph glyph-name="Aacute" unicode="&#xc1;" horiz-adv-x="1269" 
d="M39 0l485 1393h232l465 -1393h-199l-102 313h-578l-104 -313h-199zM639 1192l-244 -727h475zM866 1839l-172 -293h-168l144 293h196z" />
    <glyph glyph-name="Acircumflex" unicode="&#xc2;" horiz-adv-x="1269" 
d="M39 0l485 1393h232l465 -1393h-199l-102 313h-578l-104 -313h-199zM639 1192l-244 -727h475zM764 1546l-125 189l-127 -189h-154l183 293h196l183 -293h-156z" />
    <glyph glyph-name="Atilde" unicode="&#xc3;" horiz-adv-x="1269" 
d="M39 0l485 1393h232l465 -1393h-199l-102 313h-578l-104 -313h-199zM639 1192l-244 -727h475zM385 1581l-59 84q25 63 75 108.5t107 45.5q41 0 79.5 -20.5t63.5 -45t57 -45t60 -20.5q79 0 121 96l61 -80q-31 -72 -77.5 -115t-104.5 -43q-38 0 -77 21t-65.5 45.5t-59 45.5
t-58.5 21q-71 0 -123 -98z" />
    <glyph glyph-name="Adieresis" unicode="&#xc4;" horiz-adv-x="1269" 
d="M39 0l485 1393h232l465 -1393h-199l-102 313h-578l-104 -313h-199zM639 1192l-244 -727h475zM303 1698q0 110 117 110q112 0 112 -110q0 -56 -30 -83.5t-82 -27.5q-117 0 -117 111zM745 1698q0 110 117 110q113 0 113 -110q0 -56 -30.5 -83.5t-82.5 -27.5
q-117 0 -117 111z" />
    <glyph glyph-name="Aring" unicode="&#xc5;" horiz-adv-x="1269" 
d="M438 1522q0 83 59 141.5t142 58.5t142 -58.5t59 -141.5q0 -98 -76 -158l457 -1364h-199l-102 313h-578l-104 -313h-199l475 1364q-76 60 -76 158zM639 1192l-244 -727h475zM528 1522q0 -46 32.5 -78.5t78.5 -32.5q44 0 76.5 32.5t32.5 78.5q0 44 -32.5 76t-76.5 32
q-46 0 -78.5 -32t-32.5 -76z" />
    <glyph glyph-name="AE" unicode="&#xc6;" horiz-adv-x="1880" 
d="M834 0v313h-459l-154 -313h-213l711 1393h1038v-179h-733v-411h606v-164h-606v-463h733v-176h-923zM453 465h381v741z" />
    <glyph glyph-name="Ccedilla" unicode="&#xc7;" horiz-adv-x="1323" 
d="M592 -197l43 185q-231 33 -370.5 219.5t-139.5 486.5q0 333 169 526t437 193q230 0 354.5 -121.5t128.5 -363.5l-182 -35q-6 332 -309 332q-180 0 -286.5 -141t-106.5 -390q0 -252 111 -390t304 -138q104 0 208 55t180 133l84 -164q-86 -90 -216 -150t-270 -60h-14
l-25 -109q28 8 51 8q69 0 109.5 -37t40.5 -96q0 -71 -54 -111.5t-137 -40.5q-70 0 -133 25l19 74q67 -23 108 -23q99 0 99 74q0 63 -90 63q-62 0 -109 -14z" />
    <glyph glyph-name="Egrave" unicode="&#xc8;" horiz-adv-x="1245" 
d="M1124 0h-925v1393h925v-179h-733v-405h606v-176h-606v-457h733v-176zM596 1546l-172 293h197l143 -293h-168z" />
    <glyph glyph-name="Eacute" unicode="&#xc9;" horiz-adv-x="1245" 
d="M1124 0h-925v1393h925v-179h-733v-405h606v-176h-606v-457h733v-176zM899 1839l-172 -293h-168l143 293h197z" />
    <glyph glyph-name="Ecircumflex" unicode="&#xca;" horiz-adv-x="1245" 
d="M1124 0h-925v1393h925v-179h-733v-405h606v-176h-606v-457h733v-176zM791 1546l-125 189l-127 -189h-154l182 293h197l182 -293h-155z" />
    <glyph glyph-name="Edieresis" unicode="&#xcb;" horiz-adv-x="1245" 
d="M1124 0h-925v1393h925v-179h-733v-405h606v-176h-606v-457h733v-176zM330 1698q0 110 116 110q113 0 113 -110q0 -56 -30.5 -83.5t-82.5 -27.5q-116 0 -116 111zM772 1698q0 110 117 110q112 0 112 -110q0 -56 -30 -83.5t-82 -27.5q-117 0 -117 111z" />
    <glyph glyph-name="Igrave" unicode="&#xcc;" horiz-adv-x="598" 
d="M199 0v1393h200v-1393h-200zM229 1546l-172 293h197l143 -293h-168z" />
    <glyph glyph-name="Iacute" unicode="&#xcd;" horiz-adv-x="598" 
d="M199 0v1393h200v-1393h-200zM551 1839l-172 -293h-168l143 293h197z" />
    <glyph glyph-name="Icircumflex" unicode="&#xce;" horiz-adv-x="598" 
d="M199 0v1393h200v-1393h-200zM424 1546l-125 189l-127 -189h-154l183 293h196l183 -293h-156z" />
    <glyph glyph-name="Idieresis" unicode="&#xcf;" horiz-adv-x="598" 
d="M199 0v1393h200v-1393h-200zM-39 1698q0 110 117 110q112 0 112 -110q0 -56 -30 -83.5t-82 -27.5q-117 0 -117 111zM403 1698q0 110 117 110q113 0 113 -110q0 -56 -30.5 -83.5t-82.5 -27.5q-117 0 -117 111z" />
    <glyph glyph-name="Eth" unicode="&#xd0;" horiz-adv-x="1427" 
d="M199 0v616h-109v162h109v615h491q132 0 243.5 -46.5t194 -133.5t129 -220t46.5 -299q0 -165 -46.5 -297.5t-129 -218.5t-194 -132t-243.5 -46h-491zM399 176h267q199 0 316.5 135.5t117.5 382.5q0 250 -117.5 386.5t-316.5 136.5h-267v-439h260v-162h-260v-440z" />
    <glyph glyph-name="Ntilde" unicode="&#xd1;" horiz-adv-x="1503" 
d="M1126 0l-729 1057v-1057h-198v1393h174l729 -1059v1059h203v-1393h-179zM506 1581l-60 84q25 63 75.5 108.5t107.5 45.5q41 0 79.5 -20.5t63.5 -45t57 -45t60 -20.5q79 0 121 96l61 -80q-31 -72 -77.5 -115t-104.5 -43q-38 0 -77 21t-65.5 45.5t-59 45.5t-58.5 21
q-71 0 -123 -98z" />
    <glyph glyph-name="Ograve" unicode="&#xd2;" horiz-adv-x="1462" 
d="M121 694q0 320 168.5 519.5t439.5 199.5q273 0 441.5 -199.5t168.5 -519.5q0 -209 -76 -371.5t-215 -252.5t-319 -90q-179 0 -317.5 90t-214.5 252.5t-76 371.5zM319 694q0 -250 112.5 -387t297.5 -137q187 0 300.5 137t113.5 387q0 252 -113.5 390.5t-300.5 138.5
q-185 0 -297.5 -138.5t-112.5 -390.5zM655 1546l-172 293h197l143 -293h-168z" />
    <glyph glyph-name="Oacute" unicode="&#xd3;" horiz-adv-x="1462" 
d="M121 694q0 320 168.5 519.5t439.5 199.5q273 0 441.5 -199.5t168.5 -519.5q0 -209 -76 -371.5t-215 -252.5t-319 -90q-179 0 -317.5 90t-214.5 252.5t-76 371.5zM319 694q0 -250 112.5 -387t297.5 -137q187 0 300.5 137t113.5 387q0 252 -113.5 390.5t-300.5 138.5
q-185 0 -297.5 -138.5t-112.5 -390.5zM979 1839l-172 -293h-168l143 293h197z" />
    <glyph glyph-name="Ocircumflex" unicode="&#xd4;" horiz-adv-x="1462" 
d="M121 694q0 320 168.5 519.5t439.5 199.5q273 0 441.5 -199.5t168.5 -519.5q0 -209 -76 -371.5t-215 -252.5t-319 -90q-179 0 -317.5 90t-214.5 252.5t-76 371.5zM319 694q0 -250 112.5 -387t297.5 -137q187 0 300.5 137t113.5 387q0 252 -113.5 390.5t-300.5 138.5
q-185 0 -297.5 -138.5t-112.5 -390.5zM854 1546l-125 189l-127 -189h-153l182 293h196l183 -293h-156z" />
    <glyph glyph-name="Otilde" unicode="&#xd5;" horiz-adv-x="1462" 
d="M121 694q0 320 168.5 519.5t439.5 199.5q273 0 441.5 -199.5t168.5 -519.5q0 -209 -76 -371.5t-215 -252.5t-319 -90q-179 0 -317.5 90t-214.5 252.5t-76 371.5zM319 694q0 -250 112.5 -387t297.5 -137q187 0 300.5 137t113.5 387q0 252 -113.5 390.5t-300.5 138.5
q-185 0 -297.5 -138.5t-112.5 -390.5zM477 1581l-59 84q25 63 75 108.5t107 45.5q41 0 79.5 -20.5t63.5 -45t57 -45t60 -20.5q79 0 121 96l61 -80q-31 -72 -77.5 -115t-104.5 -43q-38 0 -77 21t-65.5 45.5t-59 45.5t-58.5 21q-71 0 -123 -98z" />
    <glyph glyph-name="Odieresis" unicode="&#xd6;" horiz-adv-x="1462" 
d="M121 694q0 320 168.5 519.5t439.5 199.5q273 0 441.5 -199.5t168.5 -519.5q0 -209 -76 -371.5t-215 -252.5t-319 -90q-179 0 -317.5 90t-214.5 252.5t-76 371.5zM319 694q0 -250 112.5 -387t297.5 -137q187 0 300.5 137t113.5 387q0 252 -113.5 390.5t-300.5 138.5
q-185 0 -297.5 -138.5t-112.5 -390.5zM395 1698q0 110 117 110q113 0 113 -110q0 -56 -30.5 -83.5t-82.5 -27.5q-117 0 -117 111zM838 1698q0 110 116 110q113 0 113 -110q0 -56 -30.5 -83.5t-82.5 -27.5q-116 0 -116 111z" />
    <glyph glyph-name="multiply" unicode="&#xd7;" 
d="M868 899l-235 -278l235 -281l-112 -115l-234 281l-233 -281l-113 115l236 281l-236 278l113 115l233 -281l234 281z" />
    <glyph glyph-name="Oslash" unicode="&#xd8;" horiz-adv-x="1462" 
d="M121 694q0 320 168.5 519.5t439.5 199.5q199 0 350 -113l64 93h143v-17l-115 -166q81 -95 124.5 -227.5t43.5 -288.5q0 -209 -76 -371.5t-215 -252.5t-319 -90q-195 0 -334 100l-55 -80h-147v16l104 152q-176 198 -176 526zM319 694q0 -224 93 -360l559 809
q-107 80 -242 80q-185 0 -297.5 -138.5t-112.5 -390.5zM1143 694q0 212 -86 350l-553 -806q95 -68 225 -68q187 0 300.5 137t113.5 387z" />
    <glyph glyph-name="Ugrave" unicode="&#xd9;" horiz-adv-x="1421" 
d="M385 1393v-824q0 -405 324 -405q167 0 248 108.5t81 298.5v822h201v-834q0 -123 -32 -227t-95.5 -184.5t-166.5 -125.5t-236 -45q-176 0 -295.5 74t-174.5 202.5t-55 305.5v834h201zM637 1546l-172 293h197l143 -293h-168z" />
    <glyph glyph-name="Uacute" unicode="&#xda;" horiz-adv-x="1421" 
d="M385 1393v-824q0 -405 324 -405q167 0 248 108.5t81 298.5v822h201v-834q0 -123 -32 -227t-95.5 -184.5t-166.5 -125.5t-236 -45q-176 0 -295.5 74t-174.5 202.5t-55 305.5v834h201zM958 1839l-172 -293h-168l144 293h196z" />
    <glyph glyph-name="Ucircumflex" unicode="&#xdb;" horiz-adv-x="1421" 
d="M385 1393v-824q0 -405 324 -405q167 0 248 108.5t81 298.5v822h201v-834q0 -123 -32 -227t-95.5 -184.5t-166.5 -125.5t-236 -45q-176 0 -295.5 74t-174.5 202.5t-55 305.5v834h201zM836 1546l-125 189l-127 -189h-154l182 293h197l182 -293h-155z" />
    <glyph glyph-name="Udieresis" unicode="&#xdc;" horiz-adv-x="1421" 
d="M385 1393v-824q0 -405 324 -405q167 0 248 108.5t81 298.5v822h201v-834q0 -123 -32 -227t-95.5 -184.5t-166.5 -125.5t-236 -45q-176 0 -295.5 74t-174.5 202.5t-55 305.5v834h201zM377 1698q0 110 117 110q112 0 112 -110q0 -56 -30 -83.5t-82 -27.5q-117 0 -117 111z
M819 1698q0 110 117 110q113 0 113 -110q0 -56 -30.5 -83.5t-82.5 -27.5q-117 0 -117 111z" />
    <glyph glyph-name="Yacute" unicode="&#xdd;" horiz-adv-x="1198" 
d="M500 0v573l-475 803v17h221l354 -635l354 635h220v-17l-476 -803v-573h-198zM848 1839l-172 -293h-168l143 293h197z" />
    <glyph glyph-name="Thorn" unicode="&#xde;" horiz-adv-x="1253" 
d="M199 0v1393h198v-211h342q88 0 163 -27t135.5 -81.5t95 -147t34.5 -215.5q0 -112 -35 -202t-94.5 -146.5t-136 -86.5t-162.5 -30h-342v-246h-198zM696 1006h-299v-584h299q117 0 194 74.5t77 214.5q0 150 -76 222.5t-195 72.5z" />
    <glyph glyph-name="germandbls" unicode="&#xdf;" horiz-adv-x="1210" 
d="M166 0v954q0 138 36 241t100 163t144 88.5t177 28.5q93 0 170 -34t126 -90t76 -125.5t27 -142.5q0 -65 -22 -128t-48.5 -102.5t-48.5 -74.5t-22 -51q0 -12 24 -36.5t58.5 -59t69.5 -78t59 -106t24 -130.5q0 -151 -94 -244t-248 -93q-157 0 -264 59l25 162q76 -49 170 -49
q86 0 142 52t56 142q0 50 -24 97.5t-58.5 83.5t-68.5 68t-58 62.5t-24 55.5q0 26 23.5 66t51 78t51 96t23.5 116q0 100 -57.5 162.5t-157.5 62.5q-116 0 -177.5 -87t-61.5 -255v-952h-199z" />
    <glyph glyph-name="agrave" unicode="&#xe0;" horiz-adv-x="1245" 
d="M1020 1071v-805q0 -114 72 -114q41 0 96 38l10 -159q-76 -51 -182 -51q-76 0 -119.5 32.5t-60.5 108.5q-48 -64 -126.5 -101.5t-172.5 -37.5q-199 0 -316 145.5t-117 404.5q0 257 117 407.5t322 150.5q81 0 158 -30.5t122 -86.5v98h197zM823 793q-38 50 -98.5 85
t-128.5 35q-135 0 -213 -101.5t-78 -279.5q0 -174 78.5 -275t212.5 -101q66 0 127 38.5t100 90.5v508zM563 1225l-172 293h197l143 -293h-168z" />
    <glyph glyph-name="aacute" unicode="&#xe1;" horiz-adv-x="1245" 
d="M1020 1071v-805q0 -114 72 -114q41 0 96 38l10 -159q-76 -51 -182 -51q-76 0 -119.5 32.5t-60.5 108.5q-48 -64 -126.5 -101.5t-172.5 -37.5q-199 0 -316 145.5t-117 404.5q0 257 117 407.5t322 150.5q81 0 158 -30.5t122 -86.5v98h197zM823 793q-38 50 -98.5 85
t-128.5 35q-135 0 -213 -101.5t-78 -279.5q0 -174 78.5 -275t212.5 -101q66 0 127 38.5t100 90.5v508zM864 1518l-172 -293h-168l144 293h196z" />
    <glyph glyph-name="acircumflex" unicode="&#xe2;" horiz-adv-x="1245" 
d="M1020 1071v-805q0 -114 72 -114q41 0 96 38l10 -159q-76 -51 -182 -51q-76 0 -119.5 32.5t-60.5 108.5q-48 -64 -126.5 -101.5t-172.5 -37.5q-199 0 -316 145.5t-117 404.5q0 257 117 407.5t322 150.5q81 0 158 -30.5t122 -86.5v98h197zM823 793q-38 50 -98.5 85
t-128.5 35q-135 0 -213 -101.5t-78 -279.5q0 -174 78.5 -275t212.5 -101q66 0 127 38.5t100 90.5v508zM735 1225l-125 188l-127 -188h-153l182 293h197l182 -293h-156z" />
    <glyph glyph-name="atilde" unicode="&#xe3;" horiz-adv-x="1245" 
d="M1020 1071v-805q0 -114 72 -114q41 0 96 38l10 -159q-76 -51 -182 -51q-76 0 -119.5 32.5t-60.5 108.5q-48 -64 -126.5 -101.5t-172.5 -37.5q-199 0 -316 145.5t-117 404.5q0 257 117 407.5t322 150.5q81 0 158 -30.5t122 -86.5v98h197zM823 793q-38 50 -98.5 85
t-128.5 35q-135 0 -213 -101.5t-78 -279.5q0 -174 78.5 -275t212.5 -101q66 0 127 38.5t100 90.5v508zM365 1260l-60 83q25 63 75 108.5t107 45.5q41 0 80 -20.5t64 -45t57 -45t60 -20.5q78 0 120 96l62 -80q-68 -157 -182 -157q-38 0 -77 21t-66 45.5t-59.5 45.5t-58.5 21
q-70 0 -122 -98z" />
    <glyph glyph-name="adieresis" unicode="&#xe4;" horiz-adv-x="1245" 
d="M1020 1071v-805q0 -114 72 -114q41 0 96 38l10 -159q-76 -51 -182 -51q-76 0 -119.5 32.5t-60.5 108.5q-48 -64 -126.5 -101.5t-172.5 -37.5q-199 0 -316 145.5t-117 404.5q0 257 117 407.5t322 150.5q81 0 158 -30.5t122 -86.5v98h197zM823 793q-38 50 -98.5 85
t-128.5 35q-135 0 -213 -101.5t-78 -279.5q0 -174 78.5 -275t212.5 -101q66 0 127 38.5t100 90.5v508zM299 1376q0 111 117 111q112 0 112 -111q0 -56 -30 -83t-82 -27q-117 0 -117 110zM741 1376q0 111 117 111q113 0 113 -111q0 -56 -30.5 -83t-82.5 -27q-117 0 -117 110z
" />
    <glyph glyph-name="aring" unicode="&#xe5;" horiz-adv-x="1245" 
d="M1020 1071v-805q0 -114 72 -114q41 0 96 38l10 -159q-76 -51 -182 -51q-76 0 -119.5 32.5t-60.5 108.5q-48 -64 -126.5 -101.5t-172.5 -37.5q-199 0 -316 145.5t-117 404.5q0 257 117 407.5t322 150.5q81 0 158 -30.5t122 -86.5v98h197zM823 793q-38 50 -98.5 85
t-128.5 35q-135 0 -213 -101.5t-78 -279.5q0 -174 78.5 -275t212.5 -101q66 0 127 38.5t100 90.5v508zM418 1372q0 83 58.5 142t141.5 59t142 -59t59 -142t-59 -142t-142 -59t-141.5 59t-58.5 142zM508 1372q0 -46 32 -78t78 -32q44 0 76.5 32t32.5 78q0 44 -32.5 76.5
t-76.5 32.5q-46 0 -78 -32.5t-32 -76.5z" />
    <glyph glyph-name="ae" unicode="&#xe6;" horiz-adv-x="1677" 
d="M203 854l-31 174q76 34 184.5 53t202.5 19q135 0 200.5 -61.5t88.5 -168.5q17 40 44.5 76.5t69.5 73t104.5 58.5t135.5 22q99 0 172 -32t116 -90.5t63 -135t20 -172.5q0 -102 -21 -201h-639q6 -160 71.5 -244t213.5 -84q159 0 289 123l69 -145q-162 -148 -380 -148
q-128 0 -219 50t-136 133q-179 -183 -391 -183q-153 0 -250.5 95.5t-97.5 255.5q0 166 125.5 262t337.5 96q92 0 174 -14q0 146 -44.5 204t-160.5 58q-71 0 -163.5 -22t-147.5 -52zM926 627h477q4 32 4 59q0 113 -54.5 177.5t-166.5 64.5q-121 0 -188 -87.5t-72 -213.5z
M721 504q-61 18 -148 18q-134 0 -212 -51t-78 -152q0 -78 49 -126t135 -48q141 0 254 123v236z" />
    <glyph glyph-name="ccedilla" unicode="&#xe7;" horiz-adv-x="1079" 
d="M463 -197l41 174q-202 28 -301 174.5t-99 380.5q0 253 131.5 410.5t348.5 157.5q186 0 287 -97.5t124 -275.5l-157 -55q-9 121 -68.5 185.5t-167.5 64.5q-136 0 -215.5 -105.5t-79.5 -277.5q0 -183 75.5 -286t235.5 -103q74 0 149 35t138 91l80 -157q-175 -148 -389 -148
h-10l-23 -100q28 8 51 8q69 0 109.5 -37t40.5 -96q0 -71 -54 -111.5t-137 -40.5q-71 0 -133 25l19 74q67 -23 108 -23q99 0 99 74q0 63 -91 63q-61 0 -108 -14z" />
    <glyph glyph-name="egrave" unicode="&#xe8;" horiz-adv-x="1089" 
d="M961 469h-664q6 -153 82.5 -240.5t232.5 -87.5q151 0 285 117l78 -152q-154 -135 -391 -135q-122 0 -215 42t-151 117.5t-87 176.5t-29 225q0 164 58 292.5t167 202t253 73.5q104 0 183 -34t127 -94t71.5 -137t23.5 -169q0 -96 -24 -197zM307 627h492q6 30 6 65
q0 107 -58.5 171.5t-166.5 64.5q-123 0 -195 -82t-78 -219zM537 1225l-172 293h196l144 -293h-168z" />
    <glyph glyph-name="eacute" unicode="&#xe9;" horiz-adv-x="1089" 
d="M961 469h-664q6 -153 82.5 -240.5t232.5 -87.5q151 0 285 117l78 -152q-154 -135 -391 -135q-122 0 -215 42t-151 117.5t-87 176.5t-29 225q0 164 58 292.5t167 202t253 73.5q104 0 183 -34t127 -94t71.5 -137t23.5 -169q0 -96 -24 -197zM307 627h492q6 30 6 65
q0 107 -58.5 171.5t-166.5 64.5q-123 0 -195 -82t-78 -219zM823 1518l-172 -293h-168l144 293h196z" />
    <glyph glyph-name="ecircumflex" unicode="&#xea;" horiz-adv-x="1089" 
d="M961 469h-664q6 -153 82.5 -240.5t232.5 -87.5q151 0 285 117l78 -152q-154 -135 -391 -135q-122 0 -215 42t-151 117.5t-87 176.5t-29 225q0 164 58 292.5t167 202t253 73.5q104 0 183 -34t127 -94t71.5 -137t23.5 -169q0 -96 -24 -197zM307 627h492q6 30 6 65
q0 107 -58.5 171.5t-166.5 64.5q-123 0 -195 -82t-78 -219zM715 1225l-125 188l-127 -188h-154l183 293h196l182 -293h-155z" />
    <glyph glyph-name="edieresis" unicode="&#xeb;" horiz-adv-x="1089" 
d="M961 469h-664q6 -153 82.5 -240.5t232.5 -87.5q151 0 285 117l78 -152q-154 -135 -391 -135q-122 0 -215 42t-151 117.5t-87 176.5t-29 225q0 164 58 292.5t167 202t253 73.5q104 0 183 -34t127 -94t71.5 -137t23.5 -169q0 -96 -24 -197zM307 627h492q6 30 6 65
q0 107 -58.5 171.5t-166.5 64.5q-123 0 -195 -82t-78 -219zM252 1376q0 111 117 111q112 0 112 -111q0 -56 -30 -83t-82 -27q-117 0 -117 110zM694 1376q0 111 117 111q113 0 113 -111q0 -56 -30.5 -83t-82.5 -27q-117 0 -117 110z" />
    <glyph glyph-name="igrave" unicode="&#xec;" horiz-adv-x="595" 
d="M166 1071h196v-821q0 -53 18 -75.5t54 -22.5q45 0 94 36l13 -157q-72 -51 -176 -51q-102 0 -150.5 52.5t-48.5 166.5v872zM211 1225l-172 293h197l143 -293h-168z" />
    <glyph glyph-name="iacute" unicode="&#xed;" horiz-adv-x="595" 
d="M166 1071h196v-821q0 -53 18 -75.5t54 -22.5q45 0 94 36l13 -157q-72 -51 -176 -51q-102 0 -150.5 52.5t-48.5 166.5v872zM510 1518l-172 -293h-168l143 293h197z" />
    <glyph glyph-name="icircumflex" unicode="&#xee;" horiz-adv-x="595" 
d="M166 1071h196v-821q0 -53 18 -75.5t54 -22.5q45 0 94 36l13 -157q-72 -51 -176 -51q-102 0 -150.5 52.5t-48.5 166.5v872zM391 1225l-125 188l-127 -188h-153l182 293h197l182 -293h-156z" />
    <glyph glyph-name="idieresis" unicode="&#xef;" horiz-adv-x="595" 
d="M166 1071h196v-821q0 -53 18 -75.5t54 -22.5q45 0 94 36l13 -157q-72 -51 -176 -51q-102 0 -150.5 52.5t-48.5 166.5v872zM-68 1376q0 111 117 111q113 0 113 -111q0 -56 -30.5 -83t-82.5 -27q-117 0 -117 110zM375 1376q0 111 117 111q112 0 112 -111q0 -56 -30 -83
t-82 -27q-117 0 -117 110z" />
    <glyph glyph-name="eth" unicode="&#xf0;" horiz-adv-x="1112" 
d="M408 1346l79 129q100 -27 193 -99l94 115l57 -51l-94 -113q115 -109 183.5 -270.5t68.5 -358.5q0 -339 -125.5 -528.5t-355.5 -189.5q-182 0 -298 136t-116 357q0 206 99.5 330.5t271.5 124.5q187 0 323 -189q-11 263 -167 447l-103 -125l-55 53l104 127q-74 68 -159 105
zM516 164q112 0 180.5 103t87.5 292q-116 203 -266 203q-103 0 -164 -74.5t-61 -216.5q0 -136 62 -221.5t161 -85.5z" />
    <glyph glyph-name="ntilde" unicode="&#xf1;" horiz-adv-x="1222" 
d="M362 0h-196v1071h196v-139q46 76 127 117t187 41q169 0 253.5 -108.5t84.5 -311.5v-420q0 -54 16 -76t53 -22q46 0 95 36l12 -157q-76 -51 -176 -51q-102 0 -150.5 52.5t-48.5 166.5v434q0 133 -54.5 201.5t-160.5 68.5q-88 0 -149.5 -61t-88.5 -152v-690zM352 1260
l-59 83q25 63 75 108.5t107 45.5q41 0 79.5 -20.5t63.5 -45t57 -45t60 -20.5q79 0 121 96l62 -80q-31 -72 -77.5 -114.5t-105.5 -42.5q-38 0 -77 21t-65.5 45.5t-59 45.5t-58.5 21q-71 0 -123 -98z" />
    <glyph glyph-name="ograve" unicode="&#xf2;" horiz-adv-x="1177" 
d="M102 532q0 263 133 415.5t353 152.5q222 0 354.5 -152.5t132.5 -415.5q0 -260 -132.5 -410.5t-354.5 -150.5q-220 0 -353 150.5t-133 410.5zM297 532q0 -179 78.5 -277.5t212.5 -98.5t212.5 98.5t78.5 277.5q0 182 -78.5 282.5t-212.5 100.5t-212.5 -100.5t-78.5 -282.5z
M514 1225l-172 293h197l143 -293h-168z" />
    <glyph glyph-name="oacute" unicode="&#xf3;" horiz-adv-x="1177" 
d="M102 532q0 263 133 415.5t353 152.5q222 0 354.5 -152.5t132.5 -415.5q0 -260 -132.5 -410.5t-354.5 -150.5q-220 0 -353 150.5t-133 410.5zM297 532q0 -179 78.5 -277.5t212.5 -98.5t212.5 98.5t78.5 277.5q0 182 -78.5 282.5t-212.5 100.5t-212.5 -100.5t-78.5 -282.5z
M838 1518l-172 -293h-168l143 293h197z" />
    <glyph glyph-name="ocircumflex" unicode="&#xf4;" horiz-adv-x="1177" 
d="M102 532q0 263 133 415.5t353 152.5q222 0 354.5 -152.5t132.5 -415.5q0 -260 -132.5 -410.5t-354.5 -150.5q-220 0 -353 150.5t-133 410.5zM297 532q0 -179 78.5 -277.5t212.5 -98.5t212.5 98.5t78.5 277.5q0 182 -78.5 282.5t-212.5 100.5t-212.5 -100.5t-78.5 -282.5z
M715 1225l-125 188l-127 -188h-154l183 293h196l182 -293h-155z" />
    <glyph glyph-name="otilde" unicode="&#xf5;" horiz-adv-x="1177" 
d="M102 532q0 263 133 415.5t353 152.5q222 0 354.5 -152.5t132.5 -415.5q0 -260 -132.5 -410.5t-354.5 -150.5q-220 0 -353 150.5t-133 410.5zM297 532q0 -179 78.5 -277.5t212.5 -98.5t212.5 98.5t78.5 277.5q0 182 -78.5 282.5t-212.5 100.5t-212.5 -100.5t-78.5 -282.5z
M334 1260l-60 83q25 63 75.5 108.5t107.5 45.5q41 0 79.5 -20.5t63.5 -45t57 -45t60 -20.5q79 0 121 96l61 -80q-68 -157 -182 -157q-38 0 -77 21t-65.5 45.5t-59 45.5t-58.5 21q-71 0 -123 -98z" />
    <glyph glyph-name="odieresis" unicode="&#xf6;" horiz-adv-x="1177" 
d="M102 532q0 263 133 415.5t353 152.5q222 0 354.5 -152.5t132.5 -415.5q0 -260 -132.5 -410.5t-354.5 -150.5q-220 0 -353 150.5t-133 410.5zM297 532q0 -179 78.5 -277.5t212.5 -98.5t212.5 98.5t78.5 277.5q0 182 -78.5 282.5t-212.5 100.5t-212.5 -100.5t-78.5 -282.5z
M252 1376q0 111 117 111q112 0 112 -111q0 -56 -30 -83t-82 -27q-117 0 -117 110zM694 1376q0 111 117 111q113 0 113 -111q0 -56 -30.5 -83t-82.5 -27q-117 0 -117 110z" />
    <glyph glyph-name="divide" unicode="&#xf7;" 
d="M113 700h819v-161h-819v161zM397 993q0 62 30.5 96.5t86.5 34.5q57 0 88 -34.5t31 -96.5t-31 -95.5t-88 -33.5t-87 33.5t-30 95.5zM397 244q0 62 30 95.5t87 33.5t88 -33.5t31 -95.5q0 -63 -31 -96t-88 -33t-87 33t-30 96z" />
    <glyph glyph-name="oslash" unicode="&#xf8;" horiz-adv-x="1177" 
d="M102 532q0 263 133 415.5t353 152.5q167 0 289 -92l45 63h104v-18l-78 -113q127 -152 127 -408q0 -260 -132.5 -410.5t-354.5 -150.5q-149 0 -266 74l-31 -45h-105v16l62 90q-146 152 -146 426zM297 532q0 -167 65 -262l406 580q-74 65 -180 65q-134 0 -212.5 -100.5
t-78.5 -282.5zM879 532q0 142 -52 238l-395 -569q67 -45 156 -45q134 0 212.5 98.5t78.5 277.5z" />
    <glyph glyph-name="ugrave" unicode="&#xf9;" horiz-adv-x="1224" 
d="M805 1071h196v-821q0 -53 17 -75.5t55 -22.5q45 0 94 36l13 -157q-72 -51 -179 -51q-164 0 -190 141q-102 -141 -313 -141q-342 0 -342 419v672h196v-647q0 -128 49 -194t160 -66q91 0 151.5 50t92.5 132v725zM506 1225l-172 293h196l144 -293h-168z" />
    <glyph glyph-name="uacute" unicode="&#xfa;" horiz-adv-x="1224" 
d="M805 1071h196v-821q0 -53 17 -75.5t55 -22.5q45 0 94 36l13 -157q-72 -51 -179 -51q-164 0 -190 141q-102 -141 -313 -141q-342 0 -342 419v672h196v-647q0 -128 49 -194t160 -66q91 0 151.5 50t92.5 132v725zM840 1518l-172 -293h-168l143 293h197z" />
    <glyph glyph-name="ucircumflex" unicode="&#xfb;" horiz-adv-x="1224" 
d="M805 1071h196v-821q0 -53 17 -75.5t55 -22.5q45 0 94 36l13 -157q-72 -51 -179 -51q-164 0 -190 141q-102 -141 -313 -141q-342 0 -342 419v672h196v-647q0 -128 49 -194t160 -66q91 0 151.5 50t92.5 132v725zM713 1225l-125 188l-127 -188h-154l182 293h197l182 -293
h-155z" />
    <glyph glyph-name="udieresis" unicode="&#xfc;" horiz-adv-x="1224" 
d="M805 1071h196v-821q0 -53 17 -75.5t55 -22.5q45 0 94 36l13 -157q-72 -51 -179 -51q-164 0 -190 141q-102 -141 -313 -141q-342 0 -342 419v672h196v-647q0 -128 49 -194t160 -66q91 0 151.5 50t92.5 132v725zM252 1376q0 111 117 111q112 0 112 -111q0 -56 -30 -83
t-82 -27q-117 0 -117 110zM694 1376q0 111 117 111q113 0 113 -111q0 -56 -30.5 -83t-82.5 -27q-117 0 -117 110z" />
    <glyph glyph-name="yacute" unicode="&#xfd;" horiz-adv-x="1048" 
d="M47 -344l31 151q75 -45 164 -45q72 0 114 43.5t74 139.5l23 73l-424 1053h217l295 -852l272 852h201l-412 -1165q-55 -159 -132.5 -235.5t-215.5 -76.5q-119 0 -207 62zM780 1518l-172 -293h-168l144 293h196z" />
    <glyph glyph-name="thorn" unicode="&#xfe;" horiz-adv-x="1187" 
d="M1083 537q0 -261 -116 -409t-312 -148q-187 0 -293 124v-489h-196v1839h196v-483q112 119 293 119q196 0 312 -146t116 -407zM883 532q0 178 -78.5 279.5t-212.5 101.5q-68 0 -130.5 -34t-99.5 -82v-527q39 -47 101 -80.5t129 -33.5q134 0 212.5 101t78.5 275z" />
    <glyph glyph-name="ydieresis" unicode="&#xff;" horiz-adv-x="1048" 
d="M47 -344l31 151q75 -45 164 -45q72 0 114 43.5t74 139.5l23 73l-424 1053h217l295 -852l272 852h201l-412 -1165q-55 -159 -132.5 -235.5t-215.5 -76.5q-119 0 -207 62zM201 1376q0 111 116 111q113 0 113 -111q0 -56 -30.5 -83t-82.5 -27q-116 0 -116 110zM643 1376
q0 111 117 111q112 0 112 -111q0 -56 -30 -83t-82 -27q-117 0 -117 110z" />
    <glyph glyph-name="Amacron" unicode="&#x100;" horiz-adv-x="1269" 
d="M39 0l485 1393h232l465 -1393h-199l-102 313h-578l-104 -313h-199zM639 1192l-244 -727h475zM854 1602h-432v141h432v-141z" />
    <glyph glyph-name="amacron" unicode="&#x101;" horiz-adv-x="1245" 
d="M1020 1071v-805q0 -114 72 -114q41 0 96 38l10 -159q-76 -51 -182 -51q-76 0 -119.5 32.5t-60.5 108.5q-48 -64 -126.5 -101.5t-172.5 -37.5q-199 0 -316 145.5t-117 404.5q0 257 117 407.5t322 150.5q81 0 158 -30.5t122 -86.5v98h197zM823 793q-38 50 -98.5 85
t-128.5 35q-135 0 -213 -101.5t-78 -279.5q0 -174 78.5 -275t212.5 -101q66 0 127 38.5t100 90.5v508zM836 1280h-433v141h433v-141z" />
    <glyph glyph-name="Abreve" unicode="&#x102;" horiz-adv-x="1269" 
d="M39 0l485 1393h232l465 -1393h-199l-102 313h-578l-104 -313h-199zM639 1192l-244 -727h475zM393 1718l53 82q29 -43 78 -73.5t115 -30.5q65 0 114.5 30t77.5 74l54 -82q-36 -69 -97 -115.5t-147 -46.5q-88 0 -151 47t-97 115z" />
    <glyph glyph-name="abreve" unicode="&#x103;" horiz-adv-x="1245" 
d="M1020 1071v-805q0 -114 72 -114q41 0 96 38l10 -159q-76 -51 -182 -51q-76 0 -119.5 32.5t-60.5 108.5q-48 -64 -126.5 -101.5t-172.5 -37.5q-199 0 -316 145.5t-117 404.5q0 257 117 407.5t322 150.5q81 0 158 -30.5t122 -86.5v98h197zM823 793q-38 50 -98.5 85
t-128.5 35q-135 0 -213 -101.5t-78 -279.5q0 -174 78.5 -275t212.5 -101q66 0 127 38.5t100 90.5v508zM375 1397l53 82q29 -44 78 -74.5t115 -30.5q65 0 114.5 30.5t77.5 74.5l53 -82q-36 -69 -96.5 -115.5t-146.5 -46.5q-88 0 -151 47t-97 115z" />
    <glyph glyph-name="Aogonek" unicode="&#x104;" horiz-adv-x="1269" 
d="M39 0l485 1393h232l465 -1393h-50q-71 -3 -118 -43.5t-47 -108.5q0 -53 29.5 -82.5t74.5 -29.5q50 0 96 28l21 -96q-72 -33 -144 -33q-78 0 -127 50.5t-49 138.5q0 64 32.5 111t80.5 69l-100 309h-578l-104 -313h-199zM639 1192l-244 -727h475z" />
    <glyph glyph-name="aogonek" unicode="&#x105;" horiz-adv-x="1245" 
d="M1020 1071v-805q0 -114 72 -114q41 0 96 38l10 -159q-67 -43 -156 -49q-73 -42 -73 -134q0 -54 28.5 -83t73.5 -29q53 0 96 28l21 -96q-72 -33 -144 -33q-78 0 -127 50.5t-49 138.5q0 105 80 164q-90 21 -112 133q-48 -64 -126.5 -101.5t-172.5 -37.5q-199 0 -316 145.5
t-117 404.5q0 257 117 407.5t322 150.5q81 0 158 -30.5t122 -86.5v98h197zM823 793q-38 50 -98.5 85t-128.5 35q-135 0 -213 -101.5t-78 -279.5q0 -174 78.5 -275t212.5 -101q66 0 127 38.5t100 90.5v508z" />
    <glyph glyph-name="Cacute" unicode="&#x106;" horiz-adv-x="1320" 
d="M1133 354l84 -164q-86 -90 -216 -150t-270 -60q-268 0 -437 192t-169 522q0 333 169 526t437 193q230 0 354.5 -121.5t128.5 -363.5l-182 -35q-6 332 -309 332q-180 0 -286.5 -141t-106.5 -390q0 -252 111 -390t304 -138q104 0 208 55t180 133zM981 1839l-172 -293h-168
l143 293h197z" />
    <glyph glyph-name="cacute" unicode="&#x107;" horiz-adv-x="1077" 
d="M903 276l80 -157q-175 -148 -389 -148q-126 0 -221 41t-154 116t-88 176.5t-29 227.5q0 253 131.5 410.5t348.5 157.5q186 0 287 -97.5t124 -275.5l-157 -55q-9 121 -68.5 185.5t-167.5 64.5q-136 0 -215.5 -105.5t-79.5 -277.5q0 -183 75.5 -286t235.5 -103q74 0 149 35
t138 91zM823 1518l-172 -293h-168l144 293h196z" />
    <glyph glyph-name="Ccircumflex" unicode="&#x108;" horiz-adv-x="1320" 
d="M1133 354l84 -164q-86 -90 -216 -150t-270 -60q-268 0 -437 192t-169 522q0 333 169 526t437 193q230 0 354.5 -121.5t128.5 -363.5l-182 -35q-6 332 -309 332q-180 0 -286.5 -141t-106.5 -390q0 -252 111 -390t304 -138q104 0 208 55t180 133zM858 1546l-125 189
l-127 -189h-153l182 293h196l183 -293h-156z" />
    <glyph glyph-name="ccircumflex" unicode="&#x109;" horiz-adv-x="1077" 
d="M903 276l80 -157q-175 -148 -389 -148q-126 0 -221 41t-154 116t-88 176.5t-29 227.5q0 253 131.5 410.5t348.5 157.5q186 0 287 -97.5t124 -275.5l-157 -55q-9 121 -68.5 185.5t-167.5 64.5q-136 0 -215.5 -105.5t-79.5 -277.5q0 -183 75.5 -286t235.5 -103q74 0 149 35
t138 91zM713 1225l-125 188l-127 -188h-154l182 293h197l182 -293h-155z" />
    <glyph glyph-name="Cdotaccent" unicode="&#x10a;" horiz-adv-x="1320" 
d="M1133 354l84 -164q-86 -90 -216 -150t-270 -60q-268 0 -437 192t-169 522q0 333 169 526t437 193q230 0 354.5 -121.5t128.5 -363.5l-182 -35q-6 332 -309 332q-180 0 -286.5 -141t-106.5 -390q0 -252 111 -390t304 -138q104 0 208 55t180 133zM612 1702q0 115 123 115
q119 0 119 -115q0 -117 -119 -117q-123 0 -123 117z" />
    <glyph glyph-name="cdotaccent" unicode="&#x10b;" horiz-adv-x="1077" 
d="M903 276l80 -157q-175 -148 -389 -148q-126 0 -221 41t-154 116t-88 176.5t-29 227.5q0 253 131.5 410.5t348.5 157.5q186 0 287 -97.5t124 -275.5l-157 -55q-9 121 -68.5 185.5t-167.5 64.5q-136 0 -215.5 -105.5t-79.5 -277.5q0 -183 75.5 -286t235.5 -103q74 0 149 35
t138 91zM473 1380q0 115 123 115q119 0 119 -115q0 -116 -119 -116q-123 0 -123 116z" />
    <glyph glyph-name="Ccaron" unicode="&#x10c;" horiz-adv-x="1320" 
d="M1133 354l84 -164q-86 -90 -216 -150t-270 -60q-268 0 -437 192t-169 522q0 333 169 526t437 193q230 0 354.5 -121.5t128.5 -363.5l-182 -35q-6 332 -309 332q-180 0 -286.5 -141t-106.5 -390q0 -252 111 -390t304 -138q104 0 208 55t180 133zM612 1839l127 -188
l125 188h156l-182 -293h-197l-182 293h153z" />
    <glyph glyph-name="ccaron" unicode="&#x10d;" horiz-adv-x="1077" 
d="M903 276l80 -157q-175 -148 -389 -148q-126 0 -221 41t-154 116t-88 176.5t-29 227.5q0 253 131.5 410.5t348.5 157.5q186 0 287 -97.5t124 -275.5l-157 -55q-9 121 -68.5 185.5t-167.5 64.5q-136 0 -215.5 -105.5t-79.5 -277.5q0 -183 75.5 -286t235.5 -103q74 0 149 35
t138 91zM467 1518l127 -189l125 189h155l-182 -293h-196l-183 293h154z" />
    <glyph glyph-name="Dcaron" unicode="&#x10e;" horiz-adv-x="1427" 
d="M199 0v1393h491q132 0 243.5 -46.5t194 -133.5t129 -220t46.5 -299q0 -165 -46.5 -297.5t-129 -218.5t-194 -132t-243.5 -46h-491zM399 176h267q199 0 315.5 135t116.5 383q0 250 -116.5 386.5t-315.5 136.5h-267v-1041zM502 1839l127 -188l125 188h155l-182 -293h-197
l-182 293h154z" />
    <glyph glyph-name="dcaron" unicode="&#x10f;" horiz-adv-x="1296" 
d="M825 1454h197v-1186q0 -57 16 -86.5t58 -29.5q41 0 92 38l12 -159q-76 -51 -184 -51q-145 0 -178 139q-109 -139 -301 -139q-197 0 -315 148t-118 409q0 260 117.5 406.5t315.5 146.5q176 0 288 -119v483zM305 532q0 -174 78.5 -275t212.5 -101q68 0 129 34t98 82v525
q-35 48 -96.5 82t-130.5 34q-135 0 -213 -101.5t-78 -279.5zM1190 1049l41 139q-46 6 -70 34.5t-24 71.5q0 55 30.5 86t79.5 31q63 0 97 -34.5t34 -96.5q0 -125 -92 -268z" />
    <glyph glyph-name="Dcroat" unicode="&#x110;" horiz-adv-x="1427" 
d="M199 0v616h-109v162h109v615h491q132 0 243.5 -46.5t194 -133.5t129 -220t46.5 -299q0 -165 -46.5 -297.5t-129 -218.5t-194 -132t-243.5 -46h-491zM399 176h267q199 0 316.5 135.5t117.5 382.5q0 250 -117.5 386.5t-316.5 136.5h-267v-439h260v-162h-260v-440z" />
    <glyph glyph-name="dcroat" unicode="&#x111;" horiz-adv-x="1245" 
d="M825 1454h197v-127h164v-147h-164v-912q0 -57 16 -86.5t58 -29.5q41 0 92 38l12 -159q-76 -51 -184 -51q-145 0 -178 139q-109 -139 -301 -139q-197 0 -315 148t-118 409q0 260 117.5 406.5t315.5 146.5q176 0 288 -119v209h-207v147h207v127zM305 532q0 -174 78.5 -275
t212.5 -101q68 0 129 34t98 82v525q-35 48 -96.5 82t-130.5 34q-135 0 -213 -101.5t-78 -279.5z" />
    <glyph glyph-name="Emacron" unicode="&#x112;" horiz-adv-x="1245" 
d="M1124 0h-925v1393h925v-179h-733v-405h606v-176h-606v-457h733v-176zM881 1602h-432v141h432v-141z" />
    <glyph glyph-name="emacron" unicode="&#x113;" horiz-adv-x="1089" 
d="M961 469h-664q6 -153 82.5 -240.5t232.5 -87.5q151 0 285 117l78 -152q-154 -135 -391 -135q-122 0 -215 42t-151 117.5t-87 176.5t-29 225q0 164 58 292.5t167 202t253 73.5q104 0 183 -34t127 -94t71.5 -137t23.5 -169q0 -96 -24 -197zM307 627h492q6 30 6 65
q0 107 -58.5 171.5t-166.5 64.5q-123 0 -195 -82t-78 -219zM797 1280h-432v141h432v-141z" />
    <glyph glyph-name="Ebreve" unicode="&#x114;" horiz-adv-x="1245" 
d="M1124 0h-925v1393h925v-179h-733v-405h606v-176h-606v-457h733v-176zM418 1718l53 82q29 -43 78 -73.5t115 -30.5q65 0 114.5 30t77.5 74l53 -82q-36 -69 -96.5 -115.5t-146.5 -46.5q-88 0 -151 47t-97 115z" />
    <glyph glyph-name="ebreve" unicode="&#x115;" horiz-adv-x="1089" 
d="M961 469h-664q6 -153 82.5 -240.5t232.5 -87.5q151 0 285 117l78 -152q-154 -135 -391 -135q-122 0 -215 42t-151 117.5t-87 176.5t-29 225q0 164 58 292.5t167 202t253 73.5q104 0 183 -34t127 -94t71.5 -137t23.5 -169q0 -96 -24 -197zM307 627h492q6 30 6 65
q0 107 -58.5 171.5t-166.5 64.5q-123 0 -195 -82t-78 -219zM344 1397l53 82q29 -44 78 -74.5t115 -30.5q65 0 114.5 30.5t77.5 74.5l54 -82q-36 -69 -97 -115.5t-147 -46.5q-88 0 -151 47t-97 115z" />
    <glyph glyph-name="Edotaccent" unicode="&#x116;" horiz-adv-x="1245" 
d="M1124 0h-925v1393h925v-179h-733v-405h606v-176h-606v-457h733v-176zM541 1702q0 115 123 115q118 0 118 -115q0 -117 -118 -117q-123 0 -123 117z" />
    <glyph glyph-name="edotaccent" unicode="&#x117;" horiz-adv-x="1089" 
d="M961 469h-664q6 -153 82.5 -240.5t232.5 -87.5q151 0 285 117l78 -152q-154 -135 -391 -135q-122 0 -215 42t-151 117.5t-87 176.5t-29 225q0 164 58 292.5t167 202t253 73.5q104 0 183 -34t127 -94t71.5 -137t23.5 -169q0 -96 -24 -197zM307 627h492q6 30 6 65
q0 107 -58.5 171.5t-166.5 64.5q-123 0 -195 -82t-78 -219zM467 1380q0 115 123 115q119 0 119 -115q0 -116 -119 -116q-123 0 -123 116z" />
    <glyph glyph-name="Eogonek" unicode="&#x118;" horiz-adv-x="1245" 
d="M1124 0h-22q-68 -5 -113 -45.5t-45 -106.5q0 -53 30 -82.5t75 -29.5q50 0 96 28l20 -96q-72 -33 -143 -33q-78 0 -127 50.5t-49 138.5q0 61 29.5 106.5t74.5 69.5h-751v1393h925v-179h-733v-405h606v-176h-606v-457h733v-176z" />
    <glyph glyph-name="eogonek" unicode="&#x119;" horiz-adv-x="1091" 
d="M963 469h-664q6 -153 82.5 -240.5t232.5 -87.5q151 0 285 117l78 -152q-118 -106 -291 -129q-78 -41 -78 -129q0 -53 30 -82.5t75 -29.5q50 0 96 28l20 -96q-72 -33 -143 -33q-78 0 -127 50.5t-49 138.5q0 91 63 147q-119 2 -209.5 45t-147 118.5t-84.5 175.5t-28 222
q0 164 58 292.5t167 202t253 73.5q104 0 183 -34t127 -94t71.5 -137t23.5 -169q0 -96 -24 -197zM309 627h492q6 30 6 65q0 107 -58.5 171.5t-166.5 64.5q-123 0 -195 -82t-78 -219z" />
    <glyph glyph-name="Ecaron" unicode="&#x11a;" horiz-adv-x="1245" 
d="M1124 0h-925v1393h925v-179h-733v-405h606v-176h-606v-457h733v-176zM539 1839l127 -188l125 188h155l-182 -293h-197l-182 293h154z" />
    <glyph glyph-name="ecaron" unicode="&#x11b;" horiz-adv-x="1089" 
d="M961 469h-664q6 -153 82.5 -240.5t232.5 -87.5q151 0 285 117l78 -152q-154 -135 -391 -135q-122 0 -215 42t-151 117.5t-87 176.5t-29 225q0 164 58 292.5t167 202t253 73.5q104 0 183 -34t127 -94t71.5 -137t23.5 -169q0 -96 -24 -197zM307 627h492q6 30 6 65
q0 107 -58.5 171.5t-166.5 64.5q-123 0 -195 -82t-78 -219zM457 1518l127 -189l125 189h155l-182 -293h-197l-182 293h154z" />
    <glyph glyph-name="Gcircumflex" unicode="&#x11c;" horiz-adv-x="1390" 
d="M1204 1237l-86 -160q-161 148 -344 148q-202 0 -325 -141.5t-123 -389.5q0 -251 122 -389.5t316 -138.5q84 0 163 26t136 70v336h-363v174h549v-625q-85 -72 -224.5 -119.5t-272.5 -47.5q-131 0 -246 49t-200.5 139t-135 226t-49.5 300q0 166 49.5 303t135 227
t200.5 139.5t246 49.5q267 0 452 -176zM879 1546l-125 189l-127 -189h-154l182 293h197l182 -293h-155z" />
    <glyph glyph-name="gcircumflex" unicode="&#x11d;" horiz-adv-x="1189" 
d="M731 1225l-125 188l-127 -188h-153l182 293h197l182 -293h-156zM106 573q0 235 119 376t318 141q169 0 282 -123v104h197v-1010q0 -119 -34 -210t-94.5 -146.5t-139.5 -83t-174 -27.5q-68 0 -127.5 9.5t-108 29t-72.5 31t-59 31.5l45 176q151 -100 299 -100q57 0 103 13
t84.5 42.5t59.5 83t21 127.5v137q-110 -113 -282 -113q-199 0 -318 140t-119 372zM307 573q0 -153 78.5 -244t212.5 -91q124 0 227 112v441q-93 122 -225 122q-135 0 -214 -91.5t-79 -248.5z" />
    <glyph glyph-name="Gbreve" unicode="&#x11e;" horiz-adv-x="1390" 
d="M1204 1237l-86 -160q-161 148 -344 148q-202 0 -325 -141.5t-123 -389.5q0 -251 122 -389.5t316 -138.5q84 0 163 26t136 70v336h-363v174h549v-625q-85 -72 -224.5 -119.5t-272.5 -47.5q-131 0 -246 49t-200.5 139t-135 226t-49.5 300q0 166 49.5 303t135 227
t200.5 139.5t246 49.5q267 0 452 -176zM510 1718l53 82q29 -43 78 -73.5t115 -30.5q65 0 114.5 30t77.5 74l53 -82q-36 -69 -96.5 -115.5t-146.5 -46.5q-88 0 -151 47t-97 115z" />
    <glyph glyph-name="gbreve" unicode="&#x11f;" horiz-adv-x="1189" 
d="M365 1397l53 82q71 -105 192 -105q65 0 115 30.5t78 74.5l53 -82q-36 -69 -97 -115.5t-147 -46.5q-88 0 -150.5 47t-96.5 115zM106 573q0 235 119 376t318 141q169 0 282 -123v104h197v-1010q0 -119 -34 -210t-94.5 -146.5t-139.5 -83t-174 -27.5q-68 0 -127.5 9.5
t-108 29t-72.5 31t-59 31.5l45 176q151 -100 299 -100q57 0 103 13t84.5 42.5t59.5 83t21 127.5v137q-110 -113 -282 -113q-199 0 -318 140t-119 372zM307 573q0 -153 78.5 -244t212.5 -91q124 0 227 112v441q-93 122 -225 122q-135 0 -214 -91.5t-79 -248.5z" />
    <glyph glyph-name="Gdotaccent" unicode="&#x120;" horiz-adv-x="1390" 
d="M1204 1237l-86 -160q-161 148 -344 148q-202 0 -325 -141.5t-123 -389.5q0 -251 122 -389.5t316 -138.5q84 0 163 26t136 70v336h-363v174h549v-625q-85 -72 -224.5 -119.5t-272.5 -47.5q-131 0 -246 49t-200.5 139t-135 226t-49.5 300q0 166 49.5 303t135 227
t200.5 139.5t246 49.5q267 0 452 -176zM629 1702q0 115 123 115q118 0 118 -115q0 -117 -118 -117q-123 0 -123 117z" />
    <glyph glyph-name="gdotaccent" unicode="&#x121;" horiz-adv-x="1189" 
d="M502 1380q0 115 123 115q118 0 118 -115q0 -116 -118 -116q-123 0 -123 116zM106 573q0 235 119 376t318 141q169 0 282 -123v104h197v-1010q0 -119 -34 -210t-94.5 -146.5t-139.5 -83t-174 -27.5q-68 0 -127.5 9.5t-108 29t-72.5 31t-59 31.5l45 176q151 -100 299 -100
q57 0 103 13t84.5 42.5t59.5 83t21 127.5v137q-110 -113 -282 -113q-199 0 -318 140t-119 372zM307 573q0 -153 78.5 -244t212.5 -91q124 0 227 112v441q-93 122 -225 122q-135 0 -214 -91.5t-79 -248.5z" />
    <glyph glyph-name="Gcommaaccent" unicode="&#x122;" horiz-adv-x="1390" 
d="M1204 1237l-86 -160q-161 148 -344 148q-202 0 -325 -141.5t-123 -389.5q0 -251 122 -389.5t316 -138.5q84 0 163 26t136 70v336h-363v174h549v-625q-85 -72 -224.5 -119.5t-272.5 -47.5q-131 0 -246 49t-200.5 139t-135 226t-49.5 300q0 166 49.5 303t135 227
t200.5 139.5t246 49.5q267 0 452 -176zM676 -496l41 140q-46 6 -70 34.5t-24 71.5q0 55 30.5 86t79.5 31q63 0 97 -34.5t34 -96.5q0 -125 -92 -268z" />
    <glyph glyph-name="gcommaaccent" unicode="&#x123;" horiz-adv-x="1189" 
d="M106 573q0 235 119 376t318 141q169 0 282 -123v104h197v-1010q0 -119 -34 -210t-94.5 -146.5t-139.5 -83t-174 -27.5q-68 0 -127.5 9.5t-108 29t-72.5 31t-59 31.5l45 176q151 -100 299 -100q57 0 103 13t84.5 42.5t59.5 83t21 127.5v137q-110 -113 -282 -113
q-199 0 -318 140t-119 372zM307 573q0 -153 78.5 -244t212.5 -91q124 0 227 112v441q-93 122 -225 122q-135 0 -214 -91.5t-79 -248.5zM684 1581l-39 -139q45 -6 69.5 -35.5t24.5 -71.5q0 -55 -31.5 -85.5t-80.5 -30.5q-61 0 -95 34.5t-34 96.5q0 64 25.5 137.5t64.5 130.5z
" />
    <glyph glyph-name="Hcircumflex" unicode="&#x124;" horiz-adv-x="1507" 
d="M1108 0v612h-709v-612h-200v1393h200v-605h709v605h201v-1393h-201zM879 1546l-125 189l-127 -189h-154l182 293h197l182 -293h-155z" />
    <glyph glyph-name="hcircumflex" unicode="&#x125;" horiz-adv-x="1222" 
d="M362 0h-196v1454h196v-522q46 76 127 117t187 41q169 0 253.5 -108.5t84.5 -311.5v-420q0 -54 16 -76t53 -22q46 0 95 36l12 -157q-76 -51 -176 -51q-102 0 -150.5 52.5t-48.5 166.5v434q0 133 -54.5 201.5t-160.5 68.5q-88 0 -149.5 -61t-88.5 -152v-690zM723 1542
l-125 189l-127 -189h-154l183 293h196l183 -293h-156z" />
    <glyph glyph-name="Hbar" unicode="&#x126;" horiz-adv-x="1507" 
d="M1108 0v612h-709v-612h-200v1034h-76v160h76v199h200v-199h709v199h201v-199h84v-160h-84v-1034h-201zM399 788h709v246h-709v-246z" />
    <glyph glyph-name="hbar" unicode="&#x127;" horiz-adv-x="1222" 
d="M362 0h-196v1180h-133v147h133v127h196v-127h240v-147h-240v-248q46 76 127 117t187 41q169 0 253.5 -108.5t84.5 -311.5v-420q0 -54 16 -76t53 -22q46 0 95 36l12 -157q-76 -51 -176 -51q-102 0 -150.5 52.5t-48.5 166.5v434q0 133 -54.5 201.5t-160.5 68.5
q-88 0 -149.5 -61t-88.5 -152v-690z" />
    <glyph glyph-name="Itilde" unicode="&#x128;" horiz-adv-x="598" 
d="M199 0v1393h200v-1393h-200zM47 1581l-59 84q25 63 75 108.5t107 45.5q41 0 79.5 -20.5t63.5 -45t57 -45t60 -20.5q79 0 121 96l61 -80q-31 -72 -77.5 -115t-104.5 -43q-38 0 -77 21t-65.5 45.5t-59 45.5t-58.5 21q-71 0 -123 -98z" />
    <glyph glyph-name="itilde" unicode="&#x129;" horiz-adv-x="595" 
d="M166 1071h196v-821q0 -53 18 -75.5t54 -22.5q45 0 94 36l13 -157q-72 -51 -176 -51q-102 0 -150.5 52.5t-48.5 166.5v872zM10 1260l-59 83q25 63 75 108.5t107 45.5q41 0 79.5 -20.5t63.5 -45t57 -45t60 -20.5q79 0 121 96l61 -80q-68 -157 -182 -157q-38 0 -77 21
t-65.5 45.5t-59 45.5t-58.5 21q-71 0 -123 -98z" />
    <glyph glyph-name="Imacron" unicode="&#x12a;" horiz-adv-x="598" 
d="M199 0v1393h200v-1393h-200zM516 1602h-432v141h432v-141z" />
    <glyph glyph-name="imacron" unicode="&#x12b;" horiz-adv-x="595" 
d="M166 1071h196v-821q0 -53 18 -75.5t54 -22.5q45 0 94 36l13 -157q-72 -51 -176 -51q-102 0 -150.5 52.5t-48.5 166.5v872zM479 1280h-432v141h432v-141z" />
    <glyph glyph-name="Ibreve" unicode="&#x12c;" horiz-adv-x="598" 
d="M199 0v1393h200v-1393h-200zM55 1718l54 82q70 -104 192 -104q65 0 115 30t78 74l53 -82q-36 -69 -97 -115.5t-147 -46.5q-88 0 -151 47t-97 115z" />
    <glyph glyph-name="ibreve" unicode="&#x12d;" horiz-adv-x="595" 
d="M166 1071h196v-821q0 -53 18 -75.5t54 -22.5q45 0 94 36l13 -157q-72 -51 -176 -51q-102 0 -150.5 52.5t-48.5 166.5v872zM20 1397l54 82q71 -105 192 -105q65 0 115 30.5t78 74.5l53 -82q-36 -69 -97 -115.5t-147 -46.5q-88 0 -151 47t-97 115z" />
    <glyph glyph-name="Iogonek" unicode="&#x12e;" horiz-adv-x="600" 
d="M199 0v1393h200v-1393h-43q-68 -5 -112.5 -45.5t-44.5 -106.5q0 -53 29.5 -82.5t74.5 -29.5q50 0 96 28l21 -96q-72 -33 -144 -33q-78 0 -127 50.5t-49 138.5q0 61 30 106.5t75 69.5h-6z" />
    <glyph glyph-name="iogonek" unicode="&#x12f;" horiz-adv-x="595" 
d="M168 1071h199v-821q0 -53 16.5 -75.5t52.5 -22.5q45 0 94 36l13 -157q-65 -45 -160 -51q-78 -41 -78 -132q0 -54 29.5 -83t75.5 -29q53 0 96 28l20 -96q-72 -33 -145 -33q-78 0 -127 50.5t-49 138.5q0 103 90 164q-127 30 -127 211v872zM143 1380q0 115 125 115
q119 0 119 -115q0 -116 -119 -116q-125 0 -125 116z" />
    <glyph glyph-name="Idotaccent" unicode="&#x130;" horiz-adv-x="598" 
d="M199 0v1393h200v-1393h-200zM178 1702q0 115 123 115q119 0 119 -115q0 -117 -119 -117q-123 0 -123 117z" />
    <glyph glyph-name="dotlessi" unicode="&#x131;" horiz-adv-x="595" 
d="M166 1071h196v-821q0 -53 18 -75.5t54 -22.5q45 0 94 36l13 -157q-72 -51 -176 -51q-102 0 -150.5 52.5t-48.5 166.5v872z" />
    <glyph glyph-name="IJ" unicode="&#x132;" horiz-adv-x="1763" 
d="M199 0v1393h200v-1393h-200zM645 465l193 18q9 -168 73.5 -246.5t194.5 -78.5q131 0 200.5 84.5t69.5 253.5v897h201v-895q0 -241 -122 -381t-353 -140q-217 0 -333 127.5t-124 360.5z" />
    <glyph glyph-name="ij" unicode="&#x133;" horiz-adv-x="1124" 
d="M143 1380q0 115 125 115q119 0 119 -115q0 -116 -119 -116q-125 0 -125 116zM166 1071h199v-821q0 -53 16.5 -75.5t52.5 -22.5q45 0 94 36l13 -157q-72 -51 -176 -51q-101 0 -150 52.5t-49 166.5v872zM762 1071h196v-1030q0 -88 -17 -159t-50 -123.5t-73 -90.5t-95 -71
l-115 133q78 54 116 122t38 181v1038zM739 1380q0 115 123 115q121 0 121 -115q0 -116 -121 -116q-123 0 -123 116z" />
    <glyph glyph-name="Jcircumflex" unicode="&#x134;" horiz-adv-x="1165" 
d="M47 465l193 18q9 -168 73.5 -246.5t194.5 -78.5q131 0 200.5 84.5t69.5 253.5v897h201v-895q0 -241 -122 -381t-353 -140q-217 0 -333 127.5t-124 360.5zM999 1546l-125 189l-126 -189h-154l182 293h197l182 -293h-156z" />
    <glyph glyph-name="jcircumflex" unicode="&#x135;" horiz-adv-x="528" 
d="M127 -403l-115 133q78 54 116 122t38 181v1038h196v-1030q0 -88 -17 -159t-50 -123.5t-73 -90.5t-95 -71zM387 1225l-125 188l-127 -188h-153l182 293h196l183 -293h-156z" />
    <glyph glyph-name="Kcommaaccent" unicode="&#x136;" horiz-adv-x="1386" 
d="M1214 1393v-31l-407 -678q24 -31 59 -101.5t69.5 -139.5t75 -136t91 -109t102.5 -42q57 0 129 37l23 -160q-90 -53 -199 -53q-70 0 -131.5 36.5t-104.5 91.5t-85 128t-71.5 139t-63.5 131t-62 98h-240v-604h-200v1393h200v-613h258l351 613h206zM588 -496l41 140
q-46 6 -70 34.5t-24 71.5q0 55 30.5 86t79.5 31q63 0 97 -34.5t34 -96.5q0 -125 -92 -268z" />
    <glyph glyph-name="kcommaaccent" unicode="&#x137;" horiz-adv-x="1120" 
d="M362 0h-196v1454h196v-833q74 1 129.5 11t111.5 39t96 77.5t72 129.5t50 193h199q-53 -384 -270 -526l303 -520v-25h-209l-260 469q-106 -25 -222 -25v-444zM504 -496l41 140q-46 6 -70 34.5t-24 71.5q0 55 30.5 86t79.5 31q63 0 97 -34.5t34 -96.5q0 -125 -92 -268z" />
    <glyph glyph-name="kgreenlandic" unicode="&#x138;" horiz-adv-x="1116" 
d="M362 0h-196v1071h196v-483q90 1 160 23.5t131 75.5t103.5 149t64.5 235h199q-54 -393 -275 -545l299 -493v-33h-215l-254 449q-95 -27 -213 -27v-422z" />
    <glyph glyph-name="Lacute" unicode="&#x139;" horiz-adv-x="1079" 
d="M1038 0h-839v1393h200v-1217h639v-176zM549 1839l-172 -293h-168l143 293h197z" />
    <glyph glyph-name="lacute" unicode="&#x13a;" horiz-adv-x="602" 
d="M160 1454h198v-1184q0 -66 21 -92t65 -26q55 0 111 36l12 -157q-88 -51 -192 -51q-108 0 -161.5 56.5t-53.5 184.5v1233zM496 1835l-172 -293h-168l143 293h197z" />
    <glyph glyph-name="Lcommaaccent" unicode="&#x13b;" horiz-adv-x="1079" 
d="M1038 0h-839v1393h200v-1217h639v-176zM551 -496l41 140q-46 6 -70 34.5t-24 71.5q0 55 30.5 86t79.5 31q63 0 97 -34.5t34 -96.5q0 -125 -92 -268z" />
    <glyph glyph-name="lcommaaccent" unicode="&#x13c;" horiz-adv-x="602" 
d="M160 1454h198v-1184q0 -66 21 -92t65 -26q55 0 111 36l12 -157q-88 -51 -192 -51q-108 0 -161.5 56.5t-53.5 184.5v1233zM281 -496l41 140q-46 6 -70.5 34.5t-24.5 71.5q0 55 31 86t80 31q63 0 97 -34.5t34 -96.5q0 -125 -92 -268z" />
    <glyph glyph-name="Lcaron" unicode="&#x13d;" horiz-adv-x="1091" 
d="M1038 0h-839v1393h200v-1217h639v-176zM772 1049l41 139q-46 6 -70 34.5t-24 71.5q0 55 30.5 86t79.5 31q63 0 97.5 -34.5t34.5 -96.5q0 -124 -93 -268z" />
    <glyph glyph-name="lcaron" unicode="&#x13e;" horiz-adv-x="661" 
d="M160 1454h198v-1184q0 -66 21 -92t65 -26q55 0 111 36l12 -157q-88 -51 -192 -51q-108 0 -161.5 56.5t-53.5 184.5v1233zM526 1049l41 139q-46 6 -70 34.5t-24 71.5q0 55 31 86t80 31q63 0 97 -34.5t34 -96.5q0 -125 -92 -268z" />
    <glyph glyph-name="Ldot" unicode="&#x13f;" horiz-adv-x="1107" 
d="M1038 0h-839v1393h200v-1217h639v-176zM639 772q0 66 34 102.5t95 36.5q63 0 98 -36.5t35 -102.5q0 -67 -35 -103t-98 -36q-62 0 -95.5 36t-33.5 103z" />
    <glyph glyph-name="ldot" unicode="&#x140;" horiz-adv-x="733" 
d="M160 1454h198v-1184q0 -66 21 -92t65 -26q55 0 111 36l12 -157q-88 -51 -192 -51q-108 0 -161.5 56.5t-53.5 184.5v1233zM494 772q0 66 34 102.5t95 36.5q63 0 98 -36.5t35 -102.5q0 -67 -35 -103t-98 -36q-62 0 -95.5 36t-33.5 103z" />
    <glyph glyph-name="Lslash" unicode="&#x141;" horiz-adv-x="1079" 
d="M1038 0h-839v549l-82 -47v164l82 47v680h200v-564l217 127v-163l-217 -127v-490h639v-176z" />
    <glyph glyph-name="lslash" unicode="&#x142;" horiz-adv-x="608" 
d="M166 1454h196v-553l142 82v-164l-142 -82v-467q0 -66 22.5 -92t66.5 -26q52 0 108 36l14 -157q-88 -51 -194 -51q-108 0 -160.5 56t-52.5 185v404l-82 -47v163l82 47v666z" />
    <glyph glyph-name="Nacute" unicode="&#x143;" horiz-adv-x="1503" 
d="M1126 0l-729 1057v-1057h-198v1393h174l729 -1059v1059h203v-1393h-179zM1004 1839l-173 -293h-167l143 293h197z" />
    <glyph glyph-name="nacute" unicode="&#x144;" horiz-adv-x="1222" 
d="M362 0h-196v1071h196v-139q46 76 127 117t187 41q169 0 253.5 -108.5t84.5 -311.5v-420q0 -54 16 -76t53 -22q46 0 95 36l12 -157q-76 -51 -176 -51q-102 0 -150.5 52.5t-48.5 166.5v434q0 133 -54.5 201.5t-160.5 68.5q-88 0 -149.5 -61t-88.5 -152v-690zM852 1518
l-172 -293h-168l143 293h197z" />
    <glyph glyph-name="Ncommaaccent" unicode="&#x145;" horiz-adv-x="1503" 
d="M1126 0l-729 1057v-1057h-198v1393h174l729 -1059v1059h203v-1393h-179zM674 -496l41 140q-46 6 -70 34.5t-24 71.5q0 55 30.5 86t79.5 31q63 0 97 -34.5t34 -96.5q0 -125 -92 -268z" />
    <glyph glyph-name="ncommaaccent" unicode="&#x146;" horiz-adv-x="1220" 
d="M362 0h-196v1071h196v-139q46 76 127 117t187 41q169 0 253.5 -108.5t84.5 -311.5v-420q0 -54 16 -76t53 -22q46 0 95 36l12 -157q-76 -51 -176 -51q-102 0 -150.5 52.5t-48.5 166.5v434q0 133 -54.5 201.5t-160.5 68.5q-88 0 -149.5 -61t-88.5 -152v-690zM553 -496
l41 140q-46 6 -70 34.5t-24 71.5q0 55 30.5 86t79.5 31q63 0 97 -34.5t34 -96.5q0 -125 -92 -268z" />
    <glyph glyph-name="Ncaron" unicode="&#x147;" horiz-adv-x="1503" 
d="M1126 0l-729 1057v-1057h-198v1393h174l729 -1059v1059h203v-1393h-179zM639 1839l127 -188l125 188h156l-183 -293h-196l-183 293h154z" />
    <glyph glyph-name="ncaron" unicode="&#x148;" horiz-adv-x="1222" 
d="M362 0h-196v1071h196v-139q46 76 127 117t187 41q169 0 253.5 -108.5t84.5 -311.5v-420q0 -54 16 -76t53 -22q46 0 95 36l12 -157q-76 -51 -176 -51q-102 0 -150.5 52.5t-48.5 166.5v434q0 133 -54.5 201.5t-160.5 68.5q-88 0 -149.5 -61t-88.5 -152v-690zM471 1518
l127 -189l125 189h156l-183 -293h-196l-183 293h154z" />
    <glyph glyph-name="napostrophe" unicode="&#x149;" horiz-adv-x="1312" 
d="M453 0h-197v1071h197v-139q46 76 126.5 117t186.5 41q169 0 253.5 -108.5t84.5 -311.5v-420q0 -53 16.5 -75.5t53.5 -22.5q45 0 94 36l12 -157q-76 -51 -176 -51q-102 0 -150.5 52.5t-48.5 166.5v434q0 133 -54.5 201.5t-160.5 68.5q-88 0 -149 -60.5t-88 -152.5v-690z
" />
    <glyph glyph-name="Eng" unicode="&#x14a;" horiz-adv-x="1499" 
d="M1102 51l-705 1014v-1065h-198v1393h172l731 -1059v1059h198v-1323q0 -322 -249 -471l-115 120q166 119 166 332z" />
    <glyph glyph-name="eng" unicode="&#x14b;" horiz-adv-x="1167" 
d="M362 0h-196v1071h196v-151q92 170 314 170q169 0 253.5 -108.5t84.5 -311.5v-609q0 -312 -250 -462l-117 120q53 38 86.5 77t57.5 105.5t24 153.5v578q0 133 -54.5 201.5t-160.5 68.5q-90 0 -151 -55.5t-87 -145.5v-702z" />
    <glyph glyph-name="Omacron" unicode="&#x14c;" horiz-adv-x="1462" 
d="M121 694q0 320 168.5 519.5t439.5 199.5q273 0 441.5 -199.5t168.5 -519.5q0 -209 -76 -371.5t-215 -252.5t-319 -90q-179 0 -317.5 90t-214.5 252.5t-76 371.5zM319 694q0 -250 112.5 -387t297.5 -137q187 0 300.5 137t113.5 387q0 252 -113.5 390.5t-300.5 138.5
q-185 0 -297.5 -138.5t-112.5 -390.5zM946 1602h-432v141h432v-141z" />
    <glyph glyph-name="omacron" unicode="&#x14d;" horiz-adv-x="1177" 
d="M102 532q0 263 133 415.5t353 152.5q222 0 354.5 -152.5t132.5 -415.5q0 -260 -132.5 -410.5t-354.5 -150.5q-220 0 -353 150.5t-133 410.5zM297 532q0 -179 78.5 -277.5t212.5 -98.5t212.5 98.5t78.5 277.5q0 182 -78.5 282.5t-212.5 100.5t-212.5 -100.5t-78.5 -282.5z
M805 1280h-432v141h432v-141z" />
    <glyph glyph-name="Obreve" unicode="&#x14e;" horiz-adv-x="1462" 
d="M121 694q0 320 168.5 519.5t439.5 199.5q273 0 441.5 -199.5t168.5 -519.5q0 -209 -76 -371.5t-215 -252.5t-319 -90q-179 0 -317.5 90t-214.5 252.5t-76 371.5zM319 694q0 -250 112.5 -387t297.5 -137q187 0 300.5 137t113.5 387q0 252 -113.5 390.5t-300.5 138.5
q-185 0 -297.5 -138.5t-112.5 -390.5zM485 1718l54 82q70 -104 192 -104q65 0 115 30t78 74l53 -82q-36 -69 -97 -115.5t-147 -46.5q-88 0 -151 47t-97 115z" />
    <glyph glyph-name="obreve" unicode="&#x14f;" horiz-adv-x="1177" 
d="M102 532q0 263 133 415.5t353 152.5q222 0 354.5 -152.5t132.5 -415.5q0 -260 -132.5 -410.5t-354.5 -150.5q-220 0 -353 150.5t-133 410.5zM297 532q0 -179 78.5 -277.5t212.5 -98.5t212.5 98.5t78.5 277.5q0 182 -78.5 282.5t-212.5 100.5t-212.5 -100.5t-78.5 -282.5z
M344 1397l53 82q29 -44 78 -74.5t115 -30.5q65 0 114.5 30.5t77.5 74.5l54 -82q-36 -69 -97 -115.5t-147 -46.5q-88 0 -151 47t-97 115z" />
    <glyph glyph-name="Ohungarumlaut" unicode="&#x150;" horiz-adv-x="1462" 
d="M121 694q0 320 168.5 519.5t439.5 199.5q273 0 441.5 -199.5t168.5 -519.5q0 -209 -76 -371.5t-215 -252.5t-319 -90q-179 0 -317.5 90t-214.5 252.5t-76 371.5zM319 694q0 -250 112.5 -387t297.5 -137q187 0 300.5 137t113.5 387q0 252 -113.5 390.5t-300.5 138.5
q-185 0 -297.5 -138.5t-112.5 -390.5zM840 1839l-172 -293h-168l141 293h199zM1174 1839l-170 -293h-168l141 293h197z" />
    <glyph glyph-name="ohungarumlaut" unicode="&#x151;" horiz-adv-x="1177" 
d="M102 532q0 263 133 415.5t353 152.5q222 0 354.5 -152.5t132.5 -415.5q0 -260 -132.5 -410.5t-354.5 -150.5q-220 0 -353 150.5t-133 410.5zM297 532q0 -179 78.5 -277.5t212.5 -98.5t212.5 98.5t78.5 277.5q0 182 -78.5 282.5t-212.5 100.5t-212.5 -100.5t-78.5 -282.5z
M674 1518l-172 -293h-168l141 293h199zM1008 1518l-170 -293h-168l141 293h197z" />
    <glyph glyph-name="OE" unicode="&#x152;" horiz-adv-x="2091" 
d="M1968 0h-921v88q-142 -111 -324 -111q-171 0 -309 93t-216.5 257t-78.5 365q0 203 78.5 368t216.5 258t309 93q185 0 324 -111v93h923v-179h-733v-411h604v-164h-604v-463h731v-176zM311 692q0 -148 54 -268t151 -189t219 -69q95 0 176 36.5t136 104.5v776
q-118 140 -314 140q-121 0 -217.5 -69t-150.5 -190.5t-54 -271.5z" />
    <glyph glyph-name="oe" unicode="&#x153;" horiz-adv-x="1929" 
d="M1804 469h-674q2 -147 81 -236.5t235 -89.5q152 0 297 121l69 -153q-163 -140 -378 -140q-166 0 -273 75.5t-153 209.5q-51 -135 -163 -210t-261 -75q-219 0 -350.5 150t-131.5 411q0 263 131.5 415.5t350.5 152.5q152 0 264 -78.5t162 -218.5q51 137 157 217t252 80
q137 0 230 -60.5t134.5 -159t41.5 -227.5q0 -87 -21 -184zM291 532q0 -178 81 -277t216 -99t216 99t81 277q0 181 -81 282t-216 101t-216 -101t-81 -282zM1143 627h487q4 20 4 63q0 101 -58.5 169.5t-162.5 68.5q-124 0 -192.5 -80.5t-77.5 -220.5z" />
    <glyph glyph-name="Racute" unicode="&#x154;" horiz-adv-x="1368" 
d="M199 0v1393h551q183 0 301 -121t118 -326q0 -179 -106 -295.5t-266 -134.5q23 -28 70.5 -89t80 -99.5t76.5 -83t87 -66.5t85 -22q65 0 135 39l23 -162q-38 -23 -95.5 -38t-111.5 -15q-76 0 -151.5 45t-137 114.5t-115 141.5t-106 139.5t-88.5 93.5h-150v-514h-200z
M399 1217v-541h301q114 0 189.5 72t75.5 196q0 132 -74.5 202.5t-190.5 70.5h-301zM864 1839l-172 -293h-168l144 293h196z" />
    <glyph glyph-name="racute" unicode="&#x155;" horiz-adv-x="845" 
d="M811 1030l-33 -182q-68 55 -157 55q-85 0 -129.5 -65.5t-69.5 -186.5v-651h-199v803q0 59 -15.5 88t-57.5 29t-91 -39l-14 161q86 50 184 50q149 0 183 -152q36 77 90 113.5t141 36.5q105 0 168 -60zM643 1518l-172 -293h-168l143 293h197z" />
    <glyph glyph-name="Rcommaaccent" unicode="&#x156;" horiz-adv-x="1370" 
d="M199 0v1393h551q183 0 301 -121t118 -326q0 -179 -106 -295.5t-266 -134.5q23 -28 70.5 -89t80 -99.5t76.5 -83t87 -66.5t85 -22q65 0 135 39l23 -162q-38 -23 -95.5 -38t-111.5 -15q-76 0 -151.5 45t-137 114.5t-115 141.5t-106 139.5t-88.5 93.5h-150v-514h-200z
M399 1217v-541h301q114 0 189.5 72t75.5 196q0 132 -74.5 202.5t-190.5 70.5h-301zM602 -496l41 140q-46 6 -70 34.5t-24 71.5q0 55 30.5 86t79.5 31q63 0 97.5 -34.5t34.5 -96.5q0 -124 -93 -268z" />
    <glyph glyph-name="rcommaaccent" unicode="&#x157;" horiz-adv-x="845" 
d="M811 1030l-33 -182q-68 55 -157 55q-85 0 -129.5 -65.5t-69.5 -186.5v-651h-199v803q0 59 -15.5 88t-57.5 29t-91 -39l-14 161q86 50 184 50q149 0 183 -152q36 77 90 113.5t141 36.5q105 0 168 -60zM254 -496l41 140q-46 6 -70 34.5t-24 71.5q0 55 30.5 86t79.5 31
q63 0 97 -34.5t34 -96.5q0 -125 -92 -268z" />
    <glyph glyph-name="Rcaron" unicode="&#x158;" horiz-adv-x="1368" 
d="M199 0v1393h551q183 0 301 -121t118 -326q0 -179 -106 -295.5t-266 -134.5q23 -28 70.5 -89t80 -99.5t76.5 -83t87 -66.5t85 -22q65 0 135 39l23 -162q-38 -23 -95.5 -38t-111.5 -15q-76 0 -151.5 45t-137 114.5t-115 141.5t-106 139.5t-88.5 93.5h-150v-514h-200z
M399 1217v-541h301q114 0 189.5 72t75.5 196q0 132 -74.5 202.5t-190.5 70.5h-301zM481 1839l127 -188l125 188h156l-182 -293h-197l-182 293h153z" />
    <glyph glyph-name="rcaron" unicode="&#x159;" horiz-adv-x="845" 
d="M811 1030l-33 -182q-68 55 -157 55q-85 0 -129.5 -65.5t-69.5 -186.5v-651h-199v803q0 59 -15.5 88t-57.5 29t-91 -39l-14 161q86 50 184 50q149 0 183 -152q36 77 90 113.5t141 36.5q105 0 168 -60zM295 1518l127 -189l125 189h155l-182 -293h-196l-183 293h154z" />
    <glyph glyph-name="Sacute" unicode="&#x15a;" horiz-adv-x="1136" 
d="M137 92l47 189q70 -49 164.5 -83t190.5 -34q123 0 200.5 58.5t77.5 168.5q0 77 -49.5 124t-155.5 79l-225 68q-270 83 -270 346q0 82 31 154t89.5 128t150.5 88.5t206 32.5q112 0 224 -29.5t186 -72.5l-58 -181q-65 43 -161.5 71t-184.5 28q-139 0 -212 -57.5t-73 -149.5
q0 -72 41 -116t121 -68l228 -72q161 -52 239 -137.5t78 -223.5q0 -188 -129 -305.5t-344 -117.5q-118 0 -230.5 34.5t-181.5 77.5zM834 1839l-172 -293h-168l143 293h197z" />
    <glyph glyph-name="sacute" unicode="&#x15b;" horiz-adv-x="927" 
d="M821 1018l-49 -170q-140 70 -276 70q-94 0 -144.5 -39.5t-50.5 -110.5q0 -50 32 -78.5t111 -50.5l160 -47q223 -66 223 -277q0 -143 -98 -239t-270 -96q-101 0 -191.5 24t-152.5 57l41 179q154 -93 293 -93q87 0 133.5 42t46.5 110q0 59 -34.5 88t-105.5 51l-165 49
q-226 68 -226 277q0 142 103.5 234t283.5 92q84 0 182 -22t154 -50zM705 1518l-173 -293h-167l143 293h197z" />
    <glyph glyph-name="Scircumflex" unicode="&#x15c;" horiz-adv-x="1136" 
d="M137 92l47 189q70 -49 164.5 -83t190.5 -34q123 0 200.5 58.5t77.5 168.5q0 77 -49.5 124t-155.5 79l-225 68q-270 83 -270 346q0 82 31 154t89.5 128t150.5 88.5t206 32.5q112 0 224 -29.5t186 -72.5l-58 -181q-65 43 -161.5 71t-184.5 28q-139 0 -212 -57.5t-73 -149.5
q0 -72 41 -116t121 -68l228 -72q161 -52 239 -137.5t78 -223.5q0 -188 -129 -305.5t-344 -117.5q-118 0 -230.5 34.5t-181.5 77.5zM700 1546l-125 189l-126 -189h-154l182 293h197l182 -293h-156z" />
    <glyph glyph-name="scircumflex" unicode="&#x15d;" horiz-adv-x="927" 
d="M821 1018l-49 -170q-140 70 -276 70q-94 0 -144.5 -39.5t-50.5 -110.5q0 -50 32 -78.5t111 -50.5l160 -47q223 -66 223 -277q0 -143 -98 -239t-270 -96q-101 0 -191.5 24t-152.5 57l41 179q154 -93 293 -93q87 0 133.5 42t46.5 110q0 59 -34.5 88t-105.5 51l-165 49
q-226 68 -226 277q0 142 103.5 234t283.5 92q84 0 182 -22t154 -50zM600 1225l-125 188l-127 -188h-153l182 293h196l183 -293h-156z" />
    <glyph glyph-name="Scedilla" unicode="&#x15e;" horiz-adv-x="1140" 
d="M453 -197l41 179q-104 8 -200 40t-155 70l47 189q70 -49 164.5 -83t190.5 -34q123 0 200.5 58.5t77.5 168.5q0 77 -49.5 124t-155.5 79l-225 68q-270 83 -270 346q0 82 31 154t89.5 128t150.5 88.5t206 32.5q112 0 224 -29.5t186 -72.5l-58 -181q-65 43 -161.5 71
t-184.5 28q-139 0 -212 -57.5t-73 -149.5q0 -72 41 -116t121 -68l228 -72q161 -52 239 -137.5t78 -223.5q0 -181 -121 -297.5t-325 -125.5l-25 -109q28 8 51 8q69 0 109.5 -37t40.5 -96q0 -71 -54 -111.5t-137 -40.5q-71 0 -133 25l19 74q67 -23 108 -23q98 0 98 74
q0 63 -90 63q-61 0 -108 -14z" />
    <glyph glyph-name="scedilla" unicode="&#x15f;" horiz-adv-x="929" 
d="M356 -197l41 181q-169 14 -282 77l41 179q154 -93 293 -93q87 0 133.5 42t46.5 110q0 59 -34.5 88t-105.5 51l-165 49q-226 68 -226 277q0 142 103.5 234t283.5 92q84 0 182 -22t154 -50l-49 -170q-140 70 -276 70q-94 0 -144.5 -39.5t-50.5 -110.5q0 -50 32 -78.5
t111 -50.5l160 -47q223 -66 223 -277q0 -138 -92 -233t-254 -102l-24 -109q28 8 51 8q69 0 109 -36.5t40 -96.5q0 -71 -53.5 -111.5t-136.5 -40.5q-71 0 -133 25l18 74q67 -23 109 -23q98 0 98 74q0 63 -90 63q-62 0 -109 -14z" />
    <glyph glyph-name="Scaron" unicode="&#x160;" horiz-adv-x="1136" 
d="M137 92l47 189q70 -49 164.5 -83t190.5 -34q123 0 200.5 58.5t77.5 168.5q0 77 -49.5 124t-155.5 79l-225 68q-270 83 -270 346q0 82 31 154t89.5 128t150.5 88.5t206 32.5q112 0 224 -29.5t186 -72.5l-58 -181q-65 43 -161.5 71t-184.5 28q-139 0 -212 -57.5t-73 -149.5
q0 -72 41 -116t121 -68l228 -72q161 -52 239 -137.5t78 -223.5q0 -188 -129 -305.5t-344 -117.5q-118 0 -230.5 34.5t-181.5 77.5zM436 1839l127 -188l125 188h156l-182 -293h-197l-182 293h153z" />
    <glyph glyph-name="scaron" unicode="&#x161;" horiz-adv-x="927" 
d="M821 1018l-49 -170q-140 70 -276 70q-94 0 -144.5 -39.5t-50.5 -110.5q0 -50 32 -78.5t111 -50.5l160 -47q223 -66 223 -277q0 -143 -98 -239t-270 -96q-101 0 -191.5 24t-152.5 57l41 179q154 -93 293 -93q87 0 133.5 42t46.5 110q0 59 -34.5 88t-105.5 51l-165 49
q-226 68 -226 277q0 142 103.5 234t283.5 92q84 0 182 -22t154 -50zM348 1518l127 -189l125 189h156l-183 -293h-196l-182 293h153z" />
    <glyph glyph-name="Tcommaaccent" unicode="&#x162;" horiz-adv-x="1118" 
d="M1063 1214h-395v-1214h-72l-29 -129q28 8 51 8q69 0 109.5 -37t40.5 -96q0 -71 -53.5 -111.5t-136.5 -40.5q-71 0 -134 25l19 74q67 -23 108 -23q99 0 99 74q0 63 -90 63q-62 0 -109 -14l-4 10l45 197h-45v1214h-414v179h1010v-179z" />
    <glyph glyph-name="tcommaaccent" unicode="&#x163;" horiz-adv-x="862" 
d="M387 -197l43 187q-97 21 -152 98t-55 211v612h-168v160h181l22 272h162v-272h350v-160h-350v-587q0 -168 143 -168q48 0 104 20.5t97 52.5l51 -159q-145 -90 -297 -90h-6l-25 -109q28 8 52 8q69 0 109 -36.5t40 -96.5q0 -71 -53.5 -111.5t-136.5 -40.5q-70 0 -133 25
l18 74q67 -23 109 -23q98 0 98 74q0 63 -90 63q-62 0 -109 -14z" />
    <glyph glyph-name="Tcaron" unicode="&#x164;" horiz-adv-x="1118" 
d="M1063 1214h-395v-1214h-201v1214h-414v179h1010v-179zM442 1839l127 -188l125 188h156l-182 -293h-197l-182 293h153z" />
    <glyph glyph-name="tcaron" unicode="&#x165;" horiz-adv-x="890" 
d="M418 911v-587q0 -168 143 -168q48 0 104 20.5t97 52.5l51 -159q-145 -90 -297 -90q-137 0 -216 78.5t-79 240.5v612h-168v160h180l23 272h162v-272h350v-160h-350zM825 1049l41 139q-46 6 -70 34.5t-24 71.5q0 55 31 86t80 31q63 0 97 -34.5t34 -96.5q0 -125 -92 -268z
" />
    <glyph glyph-name="Tbar" unicode="&#x166;" horiz-adv-x="1118" 
d="M1063 1214h-395v-473h188v-159h-188v-582h-201v582h-178v159h178v473h-414v179h1010v-179z" />
    <glyph glyph-name="tbar" unicode="&#x167;" horiz-adv-x="860" 
d="M420 911v-270h231v-147h-231v-170q0 -168 143 -168q48 0 104 20.5t97 52.5l49 -153q-158 -96 -311 -96q-279 0 -279 319v195h-141v147h141v270h-168v160h181q3 45 11 136t11 136h162v-272h350v-160h-350z" />
    <glyph glyph-name="Utilde" unicode="&#x168;" horiz-adv-x="1421" 
d="M385 1393v-824q0 -405 324 -405q167 0 248 108.5t81 298.5v822h201v-834q0 -123 -32 -227t-95.5 -184.5t-166.5 -125.5t-236 -45q-176 0 -295.5 74t-174.5 202.5t-55 305.5v834h201zM459 1581l-60 84q25 63 75.5 108.5t107.5 45.5q41 0 79.5 -20.5t63.5 -45t57 -45
t60 -20.5q79 0 121 96l61 -80q-31 -72 -77.5 -115t-104.5 -43q-38 0 -77 21t-65.5 45.5t-59 45.5t-58.5 21q-71 0 -123 -98z" />
    <glyph glyph-name="utilde" unicode="&#x169;" horiz-adv-x="1224" 
d="M805 1071h196v-821q0 -53 17 -75.5t55 -22.5q45 0 94 36l13 -157q-72 -51 -179 -51q-164 0 -190 141q-102 -141 -313 -141q-342 0 -342 419v672h196v-647q0 -128 49 -194t160 -66q91 0 151.5 50t92.5 132v725zM334 1260l-60 83q25 63 75.5 108.5t107.5 45.5
q41 0 79.5 -20.5t63.5 -45t57 -45t60 -20.5q79 0 121 96l61 -80q-68 -157 -182 -157q-38 0 -77 21t-65.5 45.5t-59 45.5t-58.5 21q-71 0 -123 -98z" />
    <glyph glyph-name="Umacron" unicode="&#x16a;" horiz-adv-x="1421" 
d="M385 1393v-824q0 -405 324 -405q167 0 248 108.5t81 298.5v822h201v-834q0 -123 -32 -227t-95.5 -184.5t-166.5 -125.5t-236 -45q-176 0 -295.5 74t-174.5 202.5t-55 305.5v834h201zM926 1602h-432v141h432v-141z" />
    <glyph glyph-name="umacron" unicode="&#x16b;" horiz-adv-x="1224" 
d="M805 1071h196v-821q0 -53 17 -75.5t55 -22.5q45 0 94 36l13 -157q-72 -51 -179 -51q-164 0 -190 141q-102 -141 -313 -141q-342 0 -342 419v672h196v-647q0 -128 49 -194t160 -66q91 0 151.5 50t92.5 132v725zM805 1280h-432v141h432v-141z" />
    <glyph glyph-name="Ubreve" unicode="&#x16c;" horiz-adv-x="1421" 
d="M385 1393v-824q0 -405 324 -405q167 0 248 108.5t81 298.5v822h201v-834q0 -123 -32 -227t-95.5 -184.5t-166.5 -125.5t-236 -45q-176 0 -295.5 74t-174.5 202.5t-55 305.5v834h201zM465 1718l53 82q29 -43 78 -73.5t115 -30.5q65 0 114.5 30t77.5 74l53 -82
q-36 -69 -96.5 -115.5t-146.5 -46.5q-88 0 -151 47t-97 115z" />
    <glyph glyph-name="ubreve" unicode="&#x16d;" horiz-adv-x="1224" 
d="M805 1071h196v-821q0 -53 17 -75.5t55 -22.5q45 0 94 36l13 -157q-72 -51 -179 -51q-164 0 -190 141q-102 -141 -313 -141q-342 0 -342 419v672h196v-647q0 -128 49 -194t160 -66q91 0 151.5 50t92.5 132v725zM342 1397l53 82q29 -44 78 -74.5t115 -30.5q65 0 114.5 30.5
t77.5 74.5l54 -82q-36 -69 -97 -115.5t-147 -46.5q-88 0 -151 47t-97 115z" />
    <glyph glyph-name="Uring" unicode="&#x16e;" horiz-adv-x="1421" 
d="M385 1393v-824q0 -405 324 -405q167 0 248 108.5t81 298.5v822h201v-834q0 -123 -32 -227t-95.5 -184.5t-166.5 -125.5t-236 -45q-176 0 -295.5 74t-174.5 202.5t-55 305.5v834h201zM516 1612q0 83 59 141.5t142 58.5t142 -58.5t59 -141.5t-59 -142t-142 -59t-142 59
t-59 142zM606 1612q0 -46 32.5 -78.5t78.5 -32.5q44 0 76 32.5t32 78.5q0 44 -32 76t-76 32q-46 0 -78.5 -32t-32.5 -76z" />
    <glyph glyph-name="uring" unicode="&#x16f;" horiz-adv-x="1224" 
d="M805 1071h196v-821q0 -53 17 -75.5t55 -22.5q45 0 94 36l13 -157q-72 -51 -179 -51q-164 0 -190 141q-102 -141 -313 -141q-342 0 -342 419v672h196v-647q0 -128 49 -194t160 -66q91 0 151.5 50t92.5 132v725zM381 1372q0 83 59 142t142 59t141.5 -59t58.5 -142
t-58.5 -142t-141.5 -59t-142 59t-59 142zM471 1372q0 -46 32.5 -78t78.5 -32q44 0 76 32t32 78q0 44 -32 76.5t-76 32.5q-46 0 -78.5 -32.5t-32.5 -76.5z" />
    <glyph glyph-name="Uhungarumlaut" unicode="&#x170;" horiz-adv-x="1421" 
d="M385 1393v-824q0 -405 324 -405q167 0 248 108.5t81 298.5v822h201v-834q0 -123 -32 -227t-95.5 -184.5t-166.5 -125.5t-236 -45q-176 0 -295.5 74t-174.5 202.5t-55 305.5v834h201zM793 1839l-172 -293h-168l141 293h199zM1126 1839l-170 -293h-168l142 293h196z" />
    <glyph glyph-name="uhungarumlaut" unicode="&#x171;" horiz-adv-x="1224" 
d="M805 1071h196v-821q0 -53 17 -75.5t55 -22.5q45 0 94 36l13 -157q-72 -51 -179 -51q-164 0 -190 141q-102 -141 -313 -141q-342 0 -342 419v672h196v-647q0 -128 49 -194t160 -66q91 0 151.5 50t92.5 132v725zM670 1518l-172 -293h-168l141 293h199zM1004 1518l-170 -293
h-168l141 293h197z" />
    <glyph glyph-name="Uogonek" unicode="&#x172;" horiz-adv-x="1425" 
d="M387 1393v-824q0 -405 324 -405q167 0 248 108.5t81 298.5v822h201v-834q0 -151 -46 -271.5t-147 -202.5t-247 -101q-88 -43 -88 -136q0 -53 29.5 -82.5t74.5 -29.5q50 0 96 28l21 -96q-72 -33 -143 -33q-78 0 -127.5 51t-49.5 138q0 94 70 153q-249 9 -373.5 163.5
t-124.5 418.5v834h201z" />
    <glyph glyph-name="uogonek" unicode="&#x173;" horiz-adv-x="1224" 
d="M805 1071h196v-821q0 -53 17 -75.5t55 -22.5q45 0 94 36l13 -157q-53 -40 -136 -49q-81 -41 -81 -134q0 -53 29.5 -82.5t74.5 -29.5q50 0 96 28l19 -96q-68 -33 -144 -33q-77 0 -126.5 51t-49.5 138q0 101 84 160q-115 21 -135 137q-102 -141 -313 -141q-342 0 -342 419
v672h196v-647q0 -128 49 -194t160 -66q91 0 151.5 50t92.5 132v725z" />
    <glyph glyph-name="Wcircumflex" unicode="&#x174;" horiz-adv-x="1931" 
d="M1190 0l-223 686l-238 -686h-215l-465 1393h211l377 -1168l244 699l-152 469h213l352 -1137l381 1137h215l-483 -1393h-217zM1090 1546l-125 189l-127 -189h-154l182 293h197l182 -293h-155z" />
    <glyph glyph-name="wcircumflex" unicode="&#x175;" horiz-adv-x="1812" 
d="M1032 1071v-616q0 -133 56 -212t155 -79q110 0 170 93t60 245q0 276 -78 569h202q82 -292 82 -569q0 -247 -108.5 -384.5t-302.5 -137.5q-127 0 -206.5 49.5t-125.5 169.5q-48 -117 -131 -168t-207 -51q-189 0 -284 115.5t-95 338.5v371q0 58 -18 86.5t-58 28.5
q-46 0 -92 -39l-12 161q98 48 188 48q189 0 189 -246v-385q0 -145 52.5 -220t154.5 -75t162.5 79t60.5 220v608h186zM1065 1225l-125 188l-127 -188h-154l183 293h196l183 -293h-156z" />
    <glyph glyph-name="Ycircumflex" unicode="&#x176;" horiz-adv-x="1198" 
d="M500 0v573l-475 803v17h221l354 -635l354 635h220v-17l-476 -803v-573h-198zM725 1546l-125 189l-127 -189h-154l183 293h196l183 -293h-156z" />
    <glyph glyph-name="ycircumflex" unicode="&#x177;" horiz-adv-x="1048" 
d="M47 -344l31 151q75 -45 164 -45q72 0 114 43.5t74 139.5l23 73l-424 1053h217l295 -852l272 852h201l-412 -1165q-55 -159 -132.5 -235.5t-215.5 -76.5q-119 0 -207 62zM659 1225l-124 188l-127 -188h-154l182 293h197l182 -293h-156z" />
    <glyph glyph-name="Ydieresis" unicode="&#x178;" horiz-adv-x="1198" 
d="M500 0v573l-475 803v17h221l354 -635l354 635h220v-17l-476 -803v-573h-198zM264 1698q0 110 117 110q113 0 113 -110q0 -56 -30.5 -83.5t-82.5 -27.5q-117 0 -117 111zM707 1698q0 110 116 110q113 0 113 -110q0 -56 -30.5 -83.5t-82.5 -27.5q-116 0 -116 111z" />
    <glyph glyph-name="Zacute" unicode="&#x179;" horiz-adv-x="1122" 
d="M109 145l649 1072h-649v176h905v-146l-649 -1071h649v-176h-905v145zM809 1839l-172 -293h-168l143 293h197z" />
    <glyph glyph-name="zacute" unicode="&#x17a;" horiz-adv-x="933" 
d="M98 145l490 764h-490v162h738v-145l-490 -766h490v-160h-738v145zM713 1518l-172 -293h-168l143 293h197z" />
    <glyph glyph-name="Zdotaccent" unicode="&#x17b;" horiz-adv-x="1122" 
d="M109 145l649 1072h-649v176h905v-146l-649 -1071h649v-176h-905v145zM453 1702q0 115 122 115q119 0 119 -115q0 -117 -119 -117q-122 0 -122 117z" />
    <glyph glyph-name="zdotaccent" unicode="&#x17c;" horiz-adv-x="933" 
d="M98 145l490 764h-490v162h738v-145l-490 -766h490v-160h-738v145zM362 1380q0 115 123 115q119 0 119 -115q0 -116 -119 -116q-123 0 -123 116z" />
    <glyph glyph-name="Zcaron" unicode="&#x17d;" horiz-adv-x="1122" 
d="M109 145l649 1072h-649v176h905v-146l-649 -1071h649v-176h-905v145zM442 1839l127 -188l125 188h156l-182 -293h-197l-182 293h153z" />
    <glyph glyph-name="zcaron" unicode="&#x17e;" horiz-adv-x="933" 
d="M98 145l490 764h-490v162h738v-145l-490 -766h490v-160h-738v145zM346 1518l127 -189l125 189h156l-183 -293h-196l-182 293h153z" />
    <glyph glyph-name="florin" unicode="&#x192;" horiz-adv-x="813" 
d="M743 647h-254v-713q0 -159 -68 -249.5t-204 -90.5q-57 0 -118.5 25t-96.5 55l33 168q58 -67 135 -67q61 0 92 40t31 113v719h-244v127h244v365q0 158 67.5 247t202.5 89q57 0 119.5 -25t97.5 -55l-32 -168q-62 67 -138 67q-59 0 -90 -39.5t-31 -109.5v-371h254v-127z" />
    <glyph glyph-name="Aringacute" unicode="&#x1fa;" horiz-adv-x="1269" 
d="M39 0l471 1354q-72 46 -72 137q0 80 54.5 123t146.5 43q91 0 145 -43t54 -123q0 -88 -70 -135l453 -1356h-199l-102 313h-578l-104 -313h-199zM639 1190l-244 -725h475zM528 1491q0 -43 30.5 -63.5t80.5 -20.5t80.5 20.5t30.5 63.5q0 42 -31 62t-80 20t-80 -20t-31 -62z
M803 1858l-107 -158h-127l86 158h148z" />
    <glyph glyph-name="aringacute" unicode="&#x1fb;" horiz-adv-x="1245" 
d="M784 1710l-106 -160h-127l86 160h147zM420 1343q0 78 55 123t146 45t145.5 -45t54.5 -123q0 -81 -54 -124t-146 -43t-146.5 43t-54.5 124zM510 1343q0 -83 111 -83q110 0 110 83q0 42 -30.5 62t-79.5 20t-80 -20t-31 -62zM1020 1071v-805q0 -114 72 -114q41 0 96 38
l10 -159q-76 -51 -182 -51q-76 0 -119.5 32.5t-60.5 108.5q-48 -64 -126.5 -101.5t-172.5 -37.5q-199 0 -316 145.5t-117 404.5q0 257 117 407.5t322 150.5q81 0 158 -30.5t122 -86.5v98h197zM823 793q-38 50 -98.5 85t-128.5 35q-135 0 -213 -101.5t-78 -279.5
q0 -174 78.5 -275t212.5 -101q66 0 127 38.5t100 90.5v508z" />
    <glyph glyph-name="AEacute" unicode="&#x1fc;" horiz-adv-x="1880" 
d="M834 0v313h-459l-154 -313h-213l711 1393h1038v-179h-733v-411h606v-164h-606v-463h733v-176h-923zM453 465h381v741zM1450 1839l-172 -293h-168l143 293h197z" />
    <glyph glyph-name="aeacute" unicode="&#x1fd;" horiz-adv-x="1665" 
d="M203 854l-31 174q76 34 184.5 53t202.5 19q135 0 200.5 -61.5t88.5 -168.5q17 40 44.5 76.5t69.5 73t104.5 58.5t135.5 22q99 0 172 -32t116 -90.5t63 -135t20 -172.5q0 -102 -21 -201h-639q6 -160 71.5 -244t213.5 -84q159 0 289 123l69 -145q-162 -148 -380 -148
q-128 0 -219 50t-136 133q-179 -183 -391 -183q-153 0 -250.5 95.5t-97.5 255.5q0 166 125.5 262t337.5 96q92 0 174 -14q0 146 -44.5 204t-160.5 58q-71 0 -163.5 -22t-147.5 -52zM926 627h477q4 32 4 59q0 113 -54.5 177.5t-166.5 64.5q-121 0 -188 -87.5t-72 -213.5z
M721 504q-61 18 -148 18q-134 0 -212 -51t-78 -152q0 -78 49 -126t135 -48q141 0 254 123v236zM1098 1518l-172 -293h-168l143 293h197z" />
    <glyph glyph-name="Oslashacute" unicode="&#x1fe;" horiz-adv-x="1462" 
d="M121 694q0 320 168.5 519.5t439.5 199.5q199 0 350 -113l64 93h143v-17l-115 -166q81 -95 124.5 -227.5t43.5 -288.5q0 -209 -76 -371.5t-215 -252.5t-319 -90q-195 0 -334 100l-55 -80h-147v16l104 152q-176 198 -176 526zM319 694q0 -224 93 -360l559 809
q-107 80 -242 80q-185 0 -297.5 -138.5t-112.5 -390.5zM1143 694q0 212 -86 350l-553 -806q95 -68 225 -68q187 0 300.5 137t113.5 387zM979 1839l-172 -293h-168l143 293h197z" />
    <glyph glyph-name="oslashacute" unicode="&#x1ff;" horiz-adv-x="1177" 
d="M102 532q0 263 133 415.5t353 152.5q167 0 289 -92l45 63h104v-18l-78 -113q127 -152 127 -408q0 -260 -132.5 -410.5t-354.5 -150.5q-149 0 -266 74l-31 -45h-105v16l62 90q-146 152 -146 426zM297 532q0 -167 65 -262l406 580q-74 65 -180 65q-134 0 -212.5 -100.5
t-78.5 -282.5zM879 532q0 142 -52 238l-395 -569q67 -45 156 -45q134 0 212.5 98.5t78.5 277.5zM838 1518l-172 -293h-168l143 293h197z" />
    <glyph glyph-name="Scommaaccent" unicode="&#x218;" horiz-adv-x="1138" 
d="M137 92l47 189q70 -49 164.5 -83t190.5 -34q123 0 200.5 58.5t77.5 168.5q0 77 -49.5 124t-155.5 79l-225 68q-270 83 -270 346q0 82 31 154t89.5 128t150.5 88.5t206 32.5q112 0 224 -29.5t186 -72.5l-58 -181q-65 43 -161.5 71t-184.5 28q-139 0 -212 -57.5t-73 -149.5
q0 -72 41 -116t121 -68l228 -72q161 -52 239 -137.5t78 -223.5q0 -188 -129 -305.5t-344 -117.5q-118 0 -230.5 34.5t-181.5 77.5zM498 -496l41 140q-46 6 -70.5 34.5t-24.5 71.5q0 55 31 86t80 31q63 0 97 -34.5t34 -96.5q0 -125 -92 -268z" />
    <glyph glyph-name="scommaaccent" unicode="&#x219;" horiz-adv-x="927" 
d="M821 1018l-49 -170q-140 70 -276 70q-94 0 -144.5 -39.5t-50.5 -110.5q0 -50 32 -78.5t111 -50.5l160 -47q223 -66 223 -277q0 -143 -98 -239t-270 -96q-101 0 -191.5 24t-152.5 57l41 179q154 -93 293 -93q87 0 133.5 42t46.5 110q0 59 -34.5 88t-105.5 51l-165 49
q-226 68 -226 277q0 142 103.5 234t283.5 92q84 0 182 -22t154 -50zM408 -496l41 140q-46 6 -70.5 34.5t-24.5 71.5q0 55 31 86t80 31q63 0 97 -34.5t34 -96.5q0 -125 -92 -268z" />
    <glyph glyph-name="uni021A" unicode="&#x21a;" horiz-adv-x="1124" 
d="M1063 1214h-395v-1214h-201v1214h-414v179h1010v-179zM504 -496l41 140q-46 6 -70 34.5t-24 71.5q0 55 30.5 86t79.5 31q63 0 97 -34.5t34 -96.5q0 -125 -92 -268z" />
    <glyph glyph-name="uni021B" unicode="&#x21b;" horiz-adv-x="858" 
d="M418 911v-587q0 -168 143 -168q48 0 104 20.5t97 52.5l51 -159q-145 -90 -297 -90q-137 0 -216 78.5t-79 240.5v612h-168v160h180l23 272h162v-272h350v-160h-350zM412 -496l41 140q-46 6 -70.5 34.5t-24.5 71.5q0 55 31 86t80 31q63 0 97 -34.5t34 -96.5
q0 -125 -92 -268z" />
    <glyph glyph-name="dotlessj" unicode="&#x237;" horiz-adv-x="528" 
d="M127 -403l-115 133q78 54 116 122t38 181v1038h196v-1030q0 -88 -17 -159t-50 -123.5t-73 -90.5t-95 -71z" />
    <glyph glyph-name="circumflex" unicode="&#x2c6;" 
d="M647 1225l-125 188l-127 -188h-153l182 293h197l182 -293h-156z" />
    <glyph glyph-name="caron" unicode="&#x2c7;" 
d="M395 1518l127 -189l125 189h156l-182 -293h-197l-182 293h153z" />
    <glyph glyph-name="breve" unicode="&#x2d8;" 
d="M276 1397l54 82q71 -105 192 -105q65 0 115 30.5t78 74.5l53 -82q-36 -69 -97 -115.5t-147 -46.5q-88 0 -151 47t-97 115z" />
    <glyph glyph-name="dotaccent" unicode="&#x2d9;" 
d="M401 1380q0 115 123 115q119 0 119 -115q0 -116 -119 -116q-123 0 -123 116z" />
    <glyph glyph-name="ring" unicode="&#x2da;" 
d="M322 1290q0 83 58.5 142t141.5 59t142 -59t59 -142t-59 -141.5t-142 -58.5t-141.5 58.5t-58.5 141.5zM412 1290q0 -46 32 -78t78 -32q44 0 76.5 32t32.5 78q0 44 -32.5 76.5t-76.5 32.5q-46 0 -78 -32.5t-32 -76.5z" />
    <glyph glyph-name="ogonek" unicode="&#x2db;" 
d="M522 20l101 -20q-71 -3 -118.5 -43.5t-47.5 -108.5q0 -53 29.5 -82.5t74.5 -29.5q50 0 96 28l21 -96q-72 -33 -143 -33q-78 0 -127.5 51t-49.5 138q0 81 51.5 134t112.5 62z" />
    <glyph glyph-name="tilde" unicode="&#x2dc;" 
d="M268 1260l-59 83q25 63 75 108.5t107 45.5q41 0 79.5 -20.5t63.5 -45t57 -45t60 -20.5q79 0 121 96l62 -80q-31 -72 -77.5 -114.5t-105.5 -42.5q-38 0 -77 21t-65.5 45.5t-59 45.5t-58.5 21q-71 0 -123 -98z" />
    <glyph glyph-name="hungarumlaut" unicode="&#x2dd;" 
d="M524 1518l-172 -293h-168l142 293h198zM858 1518l-170 -293h-168l142 293h196z" />
    <glyph glyph-name="uni0394" unicode="&#x394;" horiz-adv-x="1302" 
d="M59 0l484 1393h231l467 -1393h-1182zM657 1192l-346 -1038h678z" />
    <glyph glyph-name="uni03A9" unicode="&#x3a9;" horiz-adv-x="1486" 
d="M1319 160v-160h-483v164q141 55 232 207.5t91 345.5q0 232 -114 370t-304 138q-186 0 -299.5 -138t-113.5 -370q0 -198 86.5 -347.5t230.5 -205.5v-164h-477v160h240q-126 71 -199.5 233t-73.5 359q0 194 77.5 345t215.5 233.5t313 82.5q177 0 316.5 -82.5t218 -233.5
t78.5 -345q0 -192 -76 -355t-197 -237h238z" />
    <glyph glyph-name="uni03BC" unicode="&#x3bc;" horiz-adv-x="1177" 
d="M365 1071v-573q0 -169 49 -251.5t164 -82.5q161 0 235 174v733h199v-1071h-199v109q-105 -129 -305 -129q-82 0 -143 24v-389h-199v1456h199z" />
    <glyph glyph-name="pi" unicode="&#x3c0;" horiz-adv-x="1286" 
d="M57 1071h1160v-160h-218v-655q0 -55 16.5 -79.5t57.5 -24.5q47 0 92 38l13 -163q-14 -14 -71 -30.5t-114 -16.5q-96 0 -143 56.5t-47 182.5v692h-338v-911h-199v911h-209v160z" />
    <glyph glyph-name="Wgrave" unicode="&#x1e80;" horiz-adv-x="1931" 
d="M1190 0l-223 686l-238 -686h-215l-465 1393h211l377 -1168l244 699l-152 469h213l352 -1137l381 1137h215l-483 -1393h-217zM897 1546l-172 293h197l143 -293h-168z" />
    <glyph glyph-name="wgrave" unicode="&#x1e81;" horiz-adv-x="1812" 
d="M1032 1071v-616q0 -133 56 -212t155 -79q110 0 170 93t60 245q0 276 -78 569h202q82 -292 82 -569q0 -247 -108.5 -384.5t-302.5 -137.5q-127 0 -206.5 49.5t-125.5 169.5q-48 -117 -131 -168t-207 -51q-189 0 -284 115.5t-95 338.5v371q0 58 -18 86.5t-58 28.5
q-46 0 -92 -39l-12 161q98 48 188 48q189 0 189 -246v-385q0 -145 52.5 -220t154.5 -75t162.5 79t60.5 220v608h186zM866 1225l-172 293h197l143 -293h-168z" />
    <glyph glyph-name="Wacute" unicode="&#x1e82;" horiz-adv-x="1931" 
d="M1190 0l-223 686l-238 -686h-215l-465 1393h211l377 -1168l244 699l-152 469h213l352 -1137l381 1137h215l-483 -1393h-217zM1204 1839l-172 -293h-168l144 293h196z" />
    <glyph glyph-name="wacute" unicode="&#x1e83;" horiz-adv-x="1812" 
d="M1032 1071v-616q0 -133 56 -212t155 -79q110 0 170 93t60 245q0 276 -78 569h202q82 -292 82 -569q0 -247 -108.5 -384.5t-302.5 -137.5q-127 0 -206.5 49.5t-125.5 169.5q-48 -117 -131 -168t-207 -51q-189 0 -284 115.5t-95 338.5v371q0 58 -18 86.5t-58 28.5
q-46 0 -92 -39l-12 161q98 48 188 48q189 0 189 -246v-385q0 -145 52.5 -220t154.5 -75t162.5 79t60.5 220v608h186zM1176 1518l-172 -293h-168l143 293h197z" />
    <glyph glyph-name="Wdieresis" unicode="&#x1e84;" horiz-adv-x="1931" 
d="M1190 0l-223 686l-238 -686h-215l-465 1393h211l377 -1168l244 699l-152 469h213l352 -1137l381 1137h215l-483 -1393h-217zM631 1698q0 110 117 110q112 0 112 -110q0 -56 -30 -83.5t-82 -27.5q-117 0 -117 111zM1073 1698q0 110 117 110q113 0 113 -110
q0 -56 -30.5 -83.5t-82.5 -27.5q-117 0 -117 111z" />
    <glyph glyph-name="wdieresis" unicode="&#x1e85;" horiz-adv-x="1812" 
d="M1032 1071v-616q0 -133 56 -212t155 -79q110 0 170 93t60 245q0 276 -78 569h202q82 -292 82 -569q0 -247 -108.5 -384.5t-302.5 -137.5q-127 0 -206.5 49.5t-125.5 169.5q-48 -117 -131 -168t-207 -51q-189 0 -284 115.5t-95 338.5v371q0 58 -18 86.5t-58 28.5
q-46 0 -92 -39l-12 161q98 48 188 48q189 0 189 -246v-385q0 -145 52.5 -220t154.5 -75t162.5 79t60.5 220v608h186zM604 1376q0 111 117 111q113 0 113 -111q0 -56 -30.5 -83t-82.5 -27q-117 0 -117 110zM1047 1376q0 111 116 111q113 0 113 -111q0 -56 -30.5 -83
t-82.5 -27q-116 0 -116 110z" />
    <glyph glyph-name="Ygrave" unicode="&#x1ef2;" horiz-adv-x="1198" 
d="M500 0v573l-475 803v17h221l354 -635l354 635h220v-17l-476 -803v-573h-198zM524 1546l-172 293h197l143 -293h-168z" />
    <glyph glyph-name="ygrave" unicode="&#x1ef3;" horiz-adv-x="1048" 
d="M47 -344l31 151q75 -45 164 -45q72 0 114 43.5t74 139.5l23 73l-424 1053h217l295 -852l272 852h201l-412 -1165q-55 -159 -132.5 -235.5t-215.5 -76.5q-119 0 -207 62zM465 1225l-172 293h196l144 -293h-168z" />
    <glyph glyph-name="endash" unicode="&#x2013;" horiz-adv-x="1146" 
d="M152 700h843v-161h-843v161z" />
    <glyph glyph-name="emdash" unicode="&#x2014;" horiz-adv-x="1568" 
d="M152 700h1265v-161h-1265v161z" />
    <glyph glyph-name="quoteleft" unicode="&#x2018;" horiz-adv-x="507" 
d="M362 1366l-75 -279q46 -9 71 -44t25 -87q0 -69 -34 -106t-97 -37q-62 0 -96.5 39.5t-34.5 103.5q0 94 44 237.5t87 219.5z" />
    <glyph glyph-name="quoteright" unicode="&#x2019;" horiz-adv-x="501" 
d="M147 856l78 279q-45 9 -69.5 44t-24.5 87q0 69 33.5 106t95.5 37q61 0 96 -39.5t35 -103.5q0 -94 -44 -237.5t-87 -219.5z" />
    <glyph glyph-name="quotesinglbase" unicode="&#x201a;" horiz-adv-x="520" 
d="M145 -303l78 278q-45 9 -69.5 44t-24.5 87q0 69 33.5 106.5t95.5 37.5q61 0 96 -40t35 -104q0 -94 -44 -237t-87 -219z" />
    <glyph glyph-name="quotedblleft" unicode="&#x201c;" horiz-adv-x="837" 
d="M696 1372l-71 -266q42 -9 64 -40.5t22 -78.5q0 -62 -29.5 -96.5t-85.5 -34.5t-87.5 36.5t-31.5 94.5q0 85 41 220.5t80 205.5zM340 1372l-74 -266q88 -17 88 -119q0 -63 -29.5 -97t-84.5 -34q-56 0 -87.5 36.5t-31.5 94.5q0 85 41 220.5t80 205.5z" />
    <glyph glyph-name="quotedblright" unicode="&#x201d;" horiz-adv-x="831" 
d="M145 895l72 266q-43 7 -65.5 39.5t-22.5 79.5q0 63 30.5 97t86.5 34q54 0 85 -36.5t31 -94.5q0 -87 -40 -223t-78 -205zM502 895l71 266q-43 7 -65.5 39.5t-22.5 79.5q0 63 30.5 97t84.5 34q55 0 87 -36.5t32 -94.5q0 -86 -40.5 -221t-78.5 -207z" />
    <glyph glyph-name="quotedblbase" unicode="&#x201e;" horiz-adv-x="847" 
d="M145 -309l72 268q-43 6 -65.5 38.5t-22.5 78.5q0 63 30 98t87 35q56 0 86 -36.5t30 -96.5q0 -87 -40 -221.5t-78 -204.5zM500 -309l73 268q-44 6 -66 38t-22 79q0 63 30 98t85 35q56 0 87.5 -36.5t31.5 -96.5q0 -87 -41 -222t-80 -204z" />
    <glyph glyph-name="dagger" unicode="&#x2020;" horiz-adv-x="1058" 
d="M997 745h-387v-1130h-159v1130h-390v162h390v547h159v-547h387v-162z" />
    <glyph glyph-name="daggerdbl" unicode="&#x2021;" horiz-adv-x="1144" 
d="M1040 131h-389v-516h-157v516h-390v162h390v452h-390v162h390v547h157v-547h389v-162h-389v-452h389v-162z" />
    <glyph glyph-name="bullet" unicode="&#x2022;" horiz-adv-x="645" 
d="M135 618q0 101 49 156t138 55t138.5 -55t49.5 -156q0 -102 -49 -156t-139 -54t-138.5 54t-48.5 156z" />
    <glyph glyph-name="ellipsis" unicode="&#x2026;" horiz-adv-x="1368" 
d="M131 100q0 64 32 98.5t89 34.5q60 0 93.5 -34.5t33.5 -98.5t-33 -97.5t-94 -33.5q-58 0 -89.5 33.5t-31.5 97.5zM561 100q0 64 32 98.5t89 34.5q59 0 92 -34.5t33 -98.5t-33 -97.5t-92 -33.5q-58 0 -89.5 33.5t-31.5 97.5zM991 100q0 64 32 98.5t91 34.5q58 0 90.5 -34.5
t32.5 -98.5t-32.5 -97.5t-90.5 -33.5q-59 0 -91 33.5t-32 97.5z" />
    <glyph glyph-name="perthousand" unicode="&#x2030;" horiz-adv-x="2248" 
d="M1542 336q0 170 87.5 266t228.5 96t228 -96t87 -266q0 -168 -87 -262t-228 -94q-142 0 -229 94t-87 262zM1692 336q0 -100 45 -153.5t121 -53.5t120.5 53.5t44.5 153.5q0 103 -44.5 158t-120.5 55t-121 -55t-45 -158zM391 16l615 1377h170v-17l-615 -1376h-170v16z
M80 1051q0 169 86 265.5t227 96.5t228.5 -96.5t87.5 -265.5t-87 -264t-229 -95q-141 0 -227 94.5t-86 264.5zM227 1051q0 -102 45 -156.5t121 -54.5q77 0 122.5 54.5t45.5 156.5t-45.5 156.5t-122.5 54.5q-76 0 -121 -54.5t-45 -156.5zM854 338q0 170 87 266t228 96
t228.5 -96t87.5 -266q0 -168 -87.5 -263t-228.5 -95t-228 95t-87 263zM1001 338q0 -101 46 -155t122 -54q77 0 121.5 53.5t44.5 155.5q0 103 -44.5 157t-121.5 54q-76 0 -122 -54t-46 -157z" />
    <glyph glyph-name="guilsinglleft" unicode="&#x2039;" horiz-adv-x="593" 
d="M102 598v41l279 412h16l72 -47l-201 -386l201 -385l-72 -47h-16z" />
    <glyph glyph-name="guilsinglright" unicode="&#x203a;" horiz-adv-x="593" 
d="M494 639v-41l-281 -412h-14l-72 47l199 385l-201 386l74 47h14z" />
    <glyph glyph-name="fraction" unicode="&#x2044;" horiz-adv-x="282" 
d="M-240 16l643 1377h117v-17l-641 -1376h-119v16z" />
    <glyph glyph-name="zerosuperior" unicode="&#x2070;" horiz-adv-x="667" 
d="M82 1272q0 160 64.5 253t187.5 93q124 0 188 -93t64 -253t-64 -252t-188 -92q-123 0 -187.5 92.5t-64.5 251.5zM193 1272q0 -238 141 -238t141 238q0 237 -141 237t-141 -237z" />
    <glyph glyph-name="foursuperior" unicode="&#x2074;" horiz-adv-x="638" 
d="M586 1069h-105v-133h-114v133h-324v78l289 459l35 -2v2h114v-449h105v-88zM162 1157h205v332z" />
    <glyph glyph-name="fivesuperior" unicode="&#x2075;" horiz-adv-x="591" 
d="M102 1255l-4 5l25 346h373v-103h-277l-10 -157h65q114 0 177 -47.5t63 -143.5q0 -115 -67.5 -172t-180.5 -57q-103 0 -200 47l30 96q85 -41 164 -41q60 0 99.5 30.5t39.5 92.5q0 104 -131 104h-166z" />
    <glyph glyph-name="sixsuperior" unicode="&#x2076;" horiz-adv-x="643" 
d="M547 1563l-33 -99q-70 52 -156 52q-153 0 -163 -216q67 80 163 80q101 0 157 -56t56 -159q0 -107 -63.5 -172t-163.5 -65q-126 0 -195 93.5t-69 252.5q0 156 70.5 250t195.5 94q110 0 201 -55zM342 1290q-78 0 -143 -80q9 -82 45.5 -129t99.5 -47q51 0 82 37.5t31 93.5
q0 62 -30.5 93.5t-84.5 31.5z" />
    <glyph glyph-name="sevensuperior" unicode="&#x2077;" horiz-adv-x="518" 
d="M117 946l233 557h-303v103h430v-82l-237 -588h-123v10z" />
    <glyph glyph-name="eightsuperior" unicode="&#x2078;" horiz-adv-x="651" 
d="M326 928q-117 0 -181.5 51t-64.5 141q0 68 34.5 111t98.5 57q-50 10 -81.5 52t-31.5 94q0 89 58.5 136.5t167.5 47.5t167 -47.5t58 -136.5q0 -53 -31 -94.5t-82 -51.5q64 -14 98.5 -57t34.5 -111q0 -90 -64 -141t-181 -51zM326 1243q-64 0 -96.5 -29t-32.5 -75
q0 -52 36 -84.5t93 -32.5q59 0 95 32.5t36 84.5q0 46 -33.5 75t-97.5 29zM326 1522q-52 0 -82.5 -26t-30.5 -73q0 -41 28.5 -69.5t84.5 -28.5t84 28.5t28 69.5q0 47 -29.5 73t-82.5 26z" />
    <glyph glyph-name="ninesuperior" unicode="&#x2079;" horiz-adv-x="645" 
d="M287 1028q81 0 122 59t44 162q-70 -84 -168 -84q-101 0 -156 56t-55 157q0 107 64.5 173.5t164.5 66.5q124 0 193 -94t69 -252q0 -157 -69.5 -250.5t-194.5 -93.5q-63 0 -118 17t-85 38l33 96q73 -51 156 -51zM301 1255q83 0 148 80q-11 80 -48 127t-98 47
q-52 0 -84.5 -37.5t-32.5 -93.5q0 -61 31 -92t84 -31z" />
    <glyph glyph-name="zeroinferior" unicode="&#x2080;" horiz-adv-x="665" 
d="M80 129q0 161 64.5 253.5t187.5 92.5q126 0 190 -92t64 -254q0 -159 -64.5 -251.5t-189.5 -92.5q-123 0 -187.5 93t-64.5 251zM193 129q0 -233 139 -233q143 0 143 233q0 240 -143 240q-139 0 -139 -240z" />
    <glyph glyph-name="oneinferior" unicode="&#x2081;" horiz-adv-x="479" 
d="M27 313l249 152h84v-670h-114v537l-174 -107z" />
    <glyph glyph-name="twoinferior" unicode="&#x2082;" horiz-adv-x="606" 
d="M88 -205v90l225 201q88 76 88 162q0 53 -28 87t-80 34q-56 0 -85.5 -41.5t-29.5 -108.5l-106 19q3 109 63 173t164 64q105 0 161 -60.5t56 -156.5q0 -66 -28 -121.5t-93 -111.5l-145 -127h280v-103h-442z" />
    <glyph glyph-name="threeinferior" unicode="&#x2083;" horiz-adv-x="595" 
d="M141 188h138q48 0 74 27t26 66q0 45 -30.5 69.5t-86.5 24.5q-89 0 -164 -43l-24 100q94 43 198 43q106 0 165 -47.5t59 -134.5q0 -53 -26 -92t-73 -56q56 -14 87.5 -57t31.5 -111q0 -89 -64 -140.5t-180 -51.5q-89 0 -200 43l28 98q81 -39 166 -39q59 0 95 29.5t36 79.5
q0 92 -118 92h-138v100z" />
    <glyph glyph-name="fourinferior" unicode="&#x2084;" horiz-adv-x="638" 
d="M586 -74h-105v-131h-114v131h-322v80l289 459l33 -2v2h114v-449h105v-90zM162 16h205v328z" />
    <glyph glyph-name="fiveinferior" unicode="&#x2085;" horiz-adv-x="589" 
d="M102 115l-4 4l25 346h371v-103h-275l-10 -157h67q114 0 177 -48t63 -145q0 -113 -69 -170t-181 -57q-100 0 -200 45l30 98q85 -41 164 -41q61 0 99 30t38 93q0 105 -129 105h-166z" />
    <glyph glyph-name="sixinferior" unicode="&#x2086;" horiz-adv-x="643" 
d="M358 375q-80 0 -120 -57.5t-43 -159.5q67 80 163 80q101 0 157 -56t56 -159q0 -106 -64 -172t-163 -66q-125 0 -194.5 94t-69.5 252q0 156 70.5 250t195.5 94q63 0 117 -17t84 -38l-33 -96q-69 51 -156 51zM342 147q-78 0 -143 -79q9 -81 45.5 -127.5t99.5 -46.5
q51 0 82 37t31 92q0 63 -30.5 93.5t-84.5 30.5z" />
    <glyph glyph-name="seveninferior" unicode="&#x2087;" horiz-adv-x="520" 
d="M117 -195l233 557h-301v103h428v-82l-235 -588h-125v10z" />
    <glyph glyph-name="eightinferior" unicode="&#x2088;" horiz-adv-x="651" 
d="M326 -215q-117 0 -181.5 51.5t-64.5 140.5q0 68 34.5 111t98.5 57q-50 10 -81.5 52.5t-31.5 95.5q0 88 58.5 135t167.5 47t167 -47t58 -135q0 -54 -31 -96t-82 -52q64 -14 98.5 -57t34.5 -111q0 -89 -64 -140.5t-181 -51.5zM326 100q-65 0 -97 -28.5t-32 -75.5
q0 -51 36 -83t93 -32q58 0 94.5 32t36.5 83q0 47 -33 75.5t-98 28.5zM326 381q-52 0 -82.5 -25.5t-30.5 -72.5q0 -42 28.5 -71.5t84.5 -29.5t84 29.5t28 71.5q0 47 -29.5 72.5t-82.5 25.5z" />
    <glyph glyph-name="nineinferior" unicode="&#x2089;" horiz-adv-x="643" 
d="M96 -160l33 99q75 -52 156 -52q156 0 166 219q-70 -83 -166 -83q-103 0 -158 56t-55 159q0 106 64 171.5t165 65.5q124 0 193 -93.5t69 -252.5q0 -157 -69.5 -250.5t-194.5 -93.5q-107 0 -203 55zM299 113q82 0 147 80q-11 81 -47 128.5t-98 47.5q-51 0 -83 -38t-32 -93
q0 -61 31 -93t82 -32z" />
    <glyph glyph-name="Euro" unicode="&#x20ac;" 
d="M756 750h-410v-50q0 -55 2 -82h365l-41 -124h-310q28 -161 102 -244.5t187 -83.5q136 0 248 88l74 -158q-155 -116 -346 -116q-185 0 -309 133.5t-160 380.5h-97v124h84q-2 27 -2 82v50h-82v124h93q32 261 157.5 400t319.5 139q215 0 348 -133l-70 -160
q-104 109 -258 109q-117 0 -193 -88.5t-102 -266.5h447z" />
    <glyph glyph-name="afii61289" unicode="&#x2113;" horiz-adv-x="825" 
d="M131 256l-61 104l145 101v545q0 197 80 301t223 104q238 0 238 -281q0 -145 -53.5 -289t-128.5 -246.5t-164 -178.5v-105q0 -88 34.5 -124.5t102.5 -36.5q73 0 135 43l-8 -183q-72 -30 -191 -30q-133 0 -200.5 63.5t-67.5 204.5v67zM410 1032v-459q96 91 157.5 233
t61.5 337q0 139 -94 139q-57 0 -91 -63t-34 -187z" />
    <glyph glyph-name="uni2117" unicode="&#x2117;" horiz-adv-x="1648" 
d="M109 694q0 203 93 368t256.5 258t364.5 93q152 0 285.5 -55t228.5 -150t150 -228.5t55 -285.5q0 -201 -93 -364.5t-258 -256.5t-368 -93q-201 0 -364.5 93t-256.5 256.5t-93 364.5zM225 694q0 -170 77 -307t214 -215t307 -78q127 0 238.5 45.5t191 125t125 191
t45.5 238.5q0 171 -77.5 309t-215 216.5t-307.5 78.5t-307 -78.5t-214 -216.5t-77 -309zM604 346v696h326q108 0 179 -64t71 -187q0 -113 -72.5 -180.5t-177.5 -67.5h-172v-197h-154zM909 920h-151v-252h151q54 0 89.5 33.5t35.5 91.5q0 60 -35.5 93.5t-89.5 33.5z" />
    <glyph glyph-name="trademark" unicode="&#x2122;" horiz-adv-x="1505" 
d="M1325 1358v-627h-111v428l-178 -254h-22l-178 254v-428h-111v627h98l201 -289l203 289h98zM592 1243h-170v-512h-111v512h-174v115h455v-115z" />
    <glyph glyph-name="Omega" unicode="&#x2126;" horiz-adv-x="1486" 
d="M1319 160v-160h-483v164q141 55 232 207.5t91 345.5q0 232 -114 370t-304 138q-186 0 -299.5 -138t-113.5 -370q0 -198 86.5 -347.5t230.5 -205.5v-164h-477v160h240q-126 71 -199.5 233t-73.5 359q0 194 77.5 345t215.5 233.5t313 82.5q177 0 316.5 -82.5t218 -233.5
t78.5 -345q0 -192 -76 -355t-197 -237h238z" />
    <glyph glyph-name="estimated" unicode="&#x212e;" horiz-adv-x="1380" 
d="M1079 297h135q-62 -149 -190.5 -235.5t-321.5 -86.5q-116 0 -211.5 35t-161 94.5t-110.5 140t-65.5 170.5t-20.5 187q0 123 34 233.5t101 200t179 142.5t255 53q145 0 257.5 -53t179.5 -142.5t101 -199.5t34 -234v-53h-883v-346q119 -119 311 -119q263 0 377 213z
M391 655h623v349q-115 118 -312 118q-196 0 -311 -118v-349z" />
    <glyph glyph-name="onethird" unicode="&#x2153;" horiz-adv-x="1466" 
d="M293 16l643 1377h117v-17l-641 -1376h-119v16zM59 1251l252 150h82v-670h-112v537l-177 -105zM995 389h138q48 0 74 26.5t26 65.5q0 45 -30.5 69.5t-86.5 24.5q-89 0 -164 -43l-24 101q94 43 198 43q106 0 165 -47.5t59 -134.5q0 -53 -26 -92t-73 -56q56 -14 87.5 -57
t31.5 -111q0 -89 -64 -140.5t-180 -51.5q-89 0 -200 43l28 98q81 -39 166 -39q59 0 95 29.5t36 79.5q0 92 -118 92h-138v100z" />
    <glyph glyph-name="twothirds" unicode="&#x2154;" horiz-adv-x="1591" 
d="M428 16l643 1377h117v-17l-641 -1376h-119v16zM1133 389h137q48 0 74 26.5t26 65.5q0 45 -30.5 69.5t-86.5 24.5q-88 0 -163 -43l-25 101q94 43 199 43q106 0 164.5 -47.5t58.5 -134.5q0 -53 -25.5 -92t-72.5 -56q56 -14 87 -57t31 -111q0 -89 -63.5 -140.5t-179.5 -51.5
q-90 0 -201 43l29 98q81 -39 165 -39q59 0 95.5 29.5t36.5 79.5q0 92 -119 92h-137v100zM106 733v88l226 203q88 76 88 162q0 52 -28.5 85.5t-80.5 33.5q-56 0 -85 -40.5t-29 -107.5l-107 19q3 109 63 173t164 64q105 0 161.5 -60.5t56.5 -156.5q0 -66 -28 -121.5
t-93 -111.5l-146 -127h281v-103h-443z" />
    <glyph glyph-name="oneeighth" unicode="&#x215b;" horiz-adv-x="1462" 
d="M293 16l643 1377h117v-17l-641 -1376h-119v16zM1122 -10q-117 0 -181 51.5t-64 140.5q0 68 34.5 111t98.5 57q-50 10 -81.5 52.5t-31.5 95.5q0 88 58 135t167 47t167.5 -47t58.5 -135q0 -54 -31 -96t-82 -52q64 -14 98.5 -57t34.5 -111q0 -89 -64.5 -140.5t-181.5 -51.5z
M1122 305q-65 0 -97 -28.5t-32 -75.5q0 -51 36 -83t93 -32q58 0 94.5 32t36.5 83q0 47 -33 75.5t-98 28.5zM1122 586q-52 0 -82 -26t-30 -73q0 -42 28 -71t84 -29t84.5 29t28.5 71q0 47 -30 73t-83 26zM59 1251l252 150h82v-670h-112v537l-177 -105z" />
    <glyph glyph-name="threeeighths" unicode="&#x215c;" horiz-adv-x="1560" 
d="M401 16l643 1377h117v-17l-641 -1376h-119v16zM1229 -10q-117 0 -181.5 51.5t-64.5 140.5q0 68 34.5 111t98.5 57q-50 10 -81 52t-31 96q0 88 58 135t167 47t167 -47t58 -135q0 -54 -31 -96t-82 -52q64 -14 99 -57t35 -111q0 -89 -64.5 -140.5t-181.5 -51.5zM1229 305
q-65 0 -97 -28.5t-32 -75.5q0 -51 36 -83t93 -32q58 0 94.5 32t36.5 83q0 47 -33 75.5t-98 28.5zM1229 586q-52 0 -82.5 -26t-30.5 -73q0 -42 28.5 -71t84.5 -29t84 29t28 71q0 47 -29.5 73t-82.5 26zM160 1126h137q48 0 74 27t26 66q0 92 -116 92q-88 0 -164 -41l-25 100
q94 43 199 43q106 0 164.5 -47.5t58.5 -136.5q0 -52 -25.5 -90.5t-72.5 -55.5q56 -14 87.5 -57t31.5 -111q0 -90 -64 -141t-180 -51q-95 0 -201 41l29 98q81 -39 166 -39q59 0 95 29.5t36 81.5q0 92 -119 92h-137v100z" />
    <glyph glyph-name="fiveeighths" unicode="&#x215d;" horiz-adv-x="1558" 
d="M1227 -10q-117 0 -181.5 51.5t-64.5 140.5q0 68 34.5 111t98.5 57q-50 10 -81.5 52.5t-31.5 95.5q0 88 58.5 135t167.5 47t167 -47t58 -135q0 -54 -31 -96t-82 -52q64 -14 99 -57t35 -111q0 -89 -64.5 -140.5t-181.5 -51.5zM399 16l643 1377h117v-17l-641 -1376h-119v16z
M121 1051l-4 4l24 346h373v-103h-276l-11 -157h66q113 0 176 -47.5t63 -143.5q0 -115 -67 -172t-180 -57q-104 0 -201 47l31 96q85 -41 164 -41q60 0 99.5 30.5t39.5 92.5q0 105 -131 105h-166zM1227 305q-65 0 -97 -28.5t-32 -75.5q0 -51 36 -83t93 -32q58 0 94.5 32
t36.5 83q0 47 -33 75.5t-98 28.5zM1227 586q-52 0 -82.5 -26t-30.5 -73q0 -42 28.5 -71t84.5 -29t84 29t28 71q0 47 -29.5 73t-82.5 26z" />
    <glyph glyph-name="seveneighths" unicode="&#x215e;" horiz-adv-x="1454" 
d="M293 16l643 1377h117v-17l-641 -1376h-119v16zM1122 -10q-117 0 -181 51.5t-64 140.5q0 68 34.5 111t98.5 57q-50 10 -81.5 52.5t-31.5 95.5q0 88 58 135t167 47t167.5 -47t58.5 -135q0 -54 -31 -96t-82 -52q64 -14 98.5 -57t34.5 -111q0 -89 -64.5 -140.5t-181.5 -51.5z
M1122 305q-65 0 -97 -28.5t-32 -75.5q0 -51 36 -83t93 -32q58 0 94.5 32t36.5 83q0 47 -33 75.5t-98 28.5zM1122 586q-52 0 -82 -26t-30 -73q0 -42 28 -71t84 -29t84.5 29t28.5 71q0 47 -30 73t-83 26zM137 741l234 557h-303v103h430v-82l-238 -588h-123v10z" />
    <glyph glyph-name="arrowleft" unicode="&#x2190;" horiz-adv-x="1476" 
d="M657 1120l103 -106l-348 -326h917v-151h-915l344 -332l-99 -105l-514 514z" />
    <glyph glyph-name="arrowup" unicode="&#x2191;" horiz-adv-x="1476" 
d="M739 1200l506 -510l-106 -102l-326 346v-916h-149v916l-334 -346l-103 100z" />
    <glyph glyph-name="arrowright" unicode="&#x2192;" horiz-adv-x="1476" 
d="M817 1120l512 -514l-510 -506l-104 109l348 326h-918v149h918l-346 334z" />
    <glyph glyph-name="arrowdown" unicode="&#x2193;" horiz-adv-x="1476" 
d="M811 1200v-913l332 344l102 -99l-512 -514l-506 512l107 101l325 -348v917h152z" />
    <glyph glyph-name="uni2196" unicode="&#x2196;" horiz-adv-x="1476" 
d="M1040 1028l-2 -147l-477 14l649 -649l-106 -107l-647 647l10 -477l-145 -4v727z" />
    <glyph glyph-name="uni2197" unicode="&#x2197;" horiz-adv-x="1476" 
d="M1157 1026l-4 -719q-25 0 -73 1t-72 1l14 477l-649 -649l-107 105l647 649l-479 -8q0 23 -1 70.5t-1 72.5h725z" />
    <glyph glyph-name="uni2198" unicode="&#x2198;" horiz-adv-x="1476" 
d="M1153 915l2 -725l-721 3l4 149l477 -16l-649 649l105 106l647 -647l-8 479z" />
    <glyph glyph-name="uni2199" unicode="&#x2199;" horiz-adv-x="1476" 
d="M1102 1081l106 -104l-649 -649l479 10l4 -143l-727 -2l4 720l148 -4l-16 -475z" />
    <glyph glyph-name="partialdiff" unicode="&#x2202;" horiz-adv-x="1105" 
d="M399 1346l78 129q97 -27 186 -93t160 -163.5t113.5 -233t42.5 -287.5q0 -339 -125.5 -528.5t-355.5 -189.5q-180 0 -296 136t-116 357q0 207 99 331t272 124q183 0 321 -187q-5 118 -40.5 222t-91 178t-118 125.5t-129.5 79.5zM506 164q114 0 181.5 103.5t86.5 295.5
q-117 199 -266 199q-102 0 -163.5 -74.5t-61.5 -216.5q0 -135 62.5 -221t160.5 -86z" />
    <glyph glyph-name="Delta" unicode="&#x2206;" horiz-adv-x="1302" 
d="M59 0l484 1393h231l467 -1393h-1182zM657 1192l-346 -1038h678z" />
    <glyph glyph-name="product" unicode="&#x220f;" horiz-adv-x="1300" 
d="M379 -385h-186v1778h915v-1778h-190v1599h-539v-1599z" />
    <glyph glyph-name="summation" unicode="&#x2211;" horiz-adv-x="970" 
d="M115 0v113l336 585l-340 586v109h749v-162h-510l297 -535l-293 -536h506v-160h-745z" />
    <glyph glyph-name="minus" unicode="&#x2212;" 
d="M113 700h819v-161h-819v161z" />
    <glyph glyph-name="uni2215" unicode="&#x2215;" horiz-adv-x="743" 
d="M-8 16l643 1377h117v-17l-641 -1376h-119v16z" />
    <glyph glyph-name="uni2219" unicode="&#x2219;" horiz-adv-x="542" 
d="M141 608q0 66 34 103t95 37q63 0 98 -37t35 -103q0 -67 -35 -103t-98 -36q-62 0 -95.5 36t-33.5 103z" />
    <glyph glyph-name="radical" unicode="&#x221a;" horiz-adv-x="1126" 
d="M342 930l291 -707l317 1215l113 -39l-383 -1399h-131l-295 709l-162 -101l-67 135z" />
    <glyph glyph-name="infinity" unicode="&#x221e;" horiz-adv-x="1673" 
d="M281 612q0 -92 53.5 -143t136.5 -51q90 0 180 100l88 94l-88 97q-87 100 -180 100q-83 0 -136.5 -52t-53.5 -145zM838 516l-93 -96q-73 -74 -140.5 -111t-155.5 -37q-136 0 -228 93t-92 247q0 155 92 248.5t228 93.5q88 0 157 -37t139 -110l93 -96l92 96q72 74 140 110.5
t155 36.5q136 0 227.5 -93t91.5 -249q0 -154 -91.5 -247t-227.5 -93q-87 0 -156 37t-141 111zM1393 612q0 94 -53 145.5t-136 51.5q-90 0 -180 -100l-88 -97l88 -94q87 -100 180 -100q83 0 136 51t53 143z" />
    <glyph glyph-name="integral" unicode="&#x222b;" horiz-adv-x="825" 
d="M20 -326l35 168q58 -67 135 -67q59 0 90 40t31 113v1211q0 158 69 247t204 89q57 0 118.5 -25t98.5 -55l-35 -168q-62 67 -135 67q-60 0 -90.5 -39t-30.5 -110v-1211q0 -159 -68 -249.5t-204 -90.5q-57 0 -120 25t-98 55z" />
    <glyph glyph-name="approxequal" unicode="&#x2248;" 
d="M889 991l51 -125q-41 -67 -92.5 -95t-118.5 -28q-46 0 -105 19t-106.5 42.5t-103.5 42.5t-95 19q-113 0 -169 -86l-48 129q71 121 209 121q47 0 108.5 -19.5t110.5 -43t103 -43t88 -19.5q104 0 168 86zM887 434l53 -125q-42 -69 -94 -97t-119 -28q-46 0 -105 19
t-106.5 42.5t-103.5 42.5t-95 19q-113 0 -167 -86l-48 131q67 119 207 119q47 0 109 -19t111 -42.5t102.5 -42.5t87.5 -19q109 0 168 86z" />
    <glyph glyph-name="notequal" unicode="&#x2260;" 
d="M281 84l51 168h-219v160h268l129 415h-397v160h448l72 232l119 -45l-60 -187h240v-160h-289l-131 -415h420v-160h-469l-66 -211z" />
    <glyph glyph-name="lessequal" unicode="&#x2264;" 
d="M113 303h817v-162h-817v162zM113 768v158l802 352h17v-150l-637 -278l637 -277v-151h-17z" />
    <glyph glyph-name="greaterequal" unicode="&#x2265;" 
d="M113 303h819v-162h-819v162zM932 926v-158l-805 -346h-14v151l635 277l-635 278v150h14z" />
    <glyph glyph-name="lozenge" unicode="&#x25ca;" horiz-adv-x="1011" 
d="M938 678l-369 -678h-127l-366 678l366 715h127zM770 676l-264 538l-262 -538l262 -506z" />
    <glyph glyph-name="commaaccent" unicode="&#xf6c3;" 
d="M459 -496l41 140q-46 6 -70 34.5t-24 71.5q0 55 30.5 86t79.5 31q63 0 97 -34.5t34 -96.5q0 -125 -92 -268z" />
    <glyph glyph-name="uniF8FF" unicode="&#xf8ff;" horiz-adv-x="1253" 
d="M102 1475h1049v-1475h-1049v1475zM545 580h98q0 45 20.5 83.5t51.5 63.5t67.5 53t67.5 53.5t51.5 64.5t20.5 85q0 104 -75 174t-208 70q-65 0 -115 -20.5t-79 -51t-47.5 -70t-24.5 -73t-6 -64.5h96q0 82 43.5 136.5t132.5 54.5q83 0 130.5 -44.5t47.5 -111.5
q0 -39 -28 -74.5t-68 -65t-80 -63.5t-68 -85.5t-28 -114.5zM522 397v-145h140v145h-140z" />
    <glyph glyph-name="fi" unicode="&#xfb01;" horiz-adv-x="1376" 
d="M74 852v160h174v114q0 349 307 349q132 0 229 -74l-49 -170q-75 65 -149 65q-142 0 -142 -161v-123h301v-160h-301v-852h-196v852h-174zM926 1380q0 115 125 115q118 0 118 -115q0 -116 -118 -116q-125 0 -125 116zM948 1071h199v-821q0 -53 17 -75.5t53 -22.5
q45 0 94 36l12 -157q-72 -51 -176 -51q-101 0 -150 52.5t-49 166.5v872z" />
    <glyph glyph-name="fl" unicode="&#xfb02;" horiz-adv-x="1384" 
d="M74 852v160h174v114q0 349 307 349q132 0 229 -74l-49 -170q-75 65 -149 65q-142 0 -142 -161v-123h301v-160h-301v-852h-196v852h-174zM944 1454h199v-1184q0 -66 21 -92t65 -26q54 0 110 36l13 -157q-88 -51 -193 -51q-108 0 -161.5 56.5t-53.5 184.5v1233z" />
    <glyph glyph-name="commaaccent.alt" 
d="M582 1556l-39 -139q45 -6 69.5 -35t24.5 -71q0 -55 -32 -86t-81 -31q-61 0 -95 34.5t-34 96.5q0 64 25.5 137.5t64.5 130.5z" />
    <glyph glyph-name="zero.tf" 
d="M66 694q0 164 26 293.5t79.5 226t141.5 148t207 51.5q120 0 209 -51.5t143 -148t80.5 -226t26.5 -293.5q0 -163 -26.5 -291.5t-80.5 -224t-143 -147t-209 -51.5q-119 0 -207 51.5t-141.5 147.5t-79.5 224t-26 291zM258 694q0 -261 62 -393.5t200 -132.5q142 0 204 132
t62 394q0 265 -62.5 400t-203.5 135q-138 0 -200 -135.5t-62 -399.5z" />
    <glyph glyph-name="one.tf" 
d="M961 0h-865v176h375v995l-319 -184l-68 162l436 244h148v-1217h293v-176z" />
    <glyph glyph-name="two.tf" 
d="M111 0v154l428 442q98 100 143 186t45 189q0 118 -58.5 188t-170.5 70q-117 0 -176.5 -81.5t-61.5 -229.5l-178 24q5 220 116.5 345.5t311.5 125.5q137 0 234 -58t142.5 -154t45.5 -222q0 -129 -63 -242.5t-191 -244.5l-309 -316h592v-176h-850z" />
    <glyph glyph-name="three.tf" 
d="M229 795h275q98 0 153.5 65t55.5 158q0 103 -71.5 163t-184.5 60q-88 0 -176 -30t-138 -62l-47 168q64 36 167.5 66t205.5 30q213 0 327.5 -97t114.5 -276q0 -114 -56 -202t-153 -111q117 -27 182.5 -114.5t65.5 -225.5q0 -192 -125.5 -299.5t-355.5 -107.5
q-179 0 -373 92l49 168q156 -88 322 -88q124 0 202.5 68.5t78.5 187.5q0 109 -62.5 171t-181.5 62h-275v154z" />
    <glyph glyph-name="four.tf" 
d="M989 289h-139v-289h-197v289h-600v135l537 969h260v-953h139v-151zM246 440h407v762z" />
    <glyph glyph-name="five.tf" 
d="M158 686l-11 10l52 697h723v-176h-555l-27 -379h152q223 0 344.5 -94.5t121.5 -294.5q0 -120 -37 -211t-103 -147t-152.5 -83.5t-190.5 -27.5q-202 0 -391 96l51 170q162 -94 328 -94q128 0 210.5 71.5t82.5 218.5q0 128 -77.5 186t-209.5 58h-311z" />
    <glyph glyph-name="six.tf" 
d="M922 1294l-58 -161q-48 43 -125.5 75.5t-160.5 32.5q-141 0 -218.5 -130.5t-85.5 -369.5q136 187 326 187q172 0 270.5 -122t98.5 -333q0 -225 -116.5 -359t-299.5 -134q-229 0 -354 189.5t-125 528.5q0 327 127 521t356 194q113 0 213 -37.5t152 -81.5zM543 762
q-144 0 -262 -207q17 -191 84 -291t180 -100q99 0 163 87.5t64 221.5q0 143 -62.5 216t-166.5 73z" />
    <glyph glyph-name="seven.tf" 
d="M240 18l489 1199h-637v176h858v-146l-491 -1247h-219v18z" />
    <glyph glyph-name="eight.tf" 
d="M522 -20q-215 0 -333.5 106.5t-118.5 292.5q0 141 67.5 227.5t186.5 120.5q-97 24 -157.5 112.5t-60.5 200.5q0 180 108 276.5t308 96.5t308 -96.5t108 -276.5q0 -111 -60.5 -199.5t-156.5 -113.5q118 -34 186 -121t68 -227q0 -186 -119 -292.5t-334 -106.5zM524 651
q-256 0 -256 -243q0 -126 71 -195.5t183 -69.5t183 69.5t71 195.5q0 243 -252 243zM522 1251q-102 0 -163.5 -58t-61.5 -171q0 -101 55 -164t172 -63q113 0 168.5 63.5t55.5 163.5q0 113 -61.5 171t-164.5 58z" />
    <glyph glyph-name="nine.tf" 
d="M121 98l57 162q48 -43 125 -75.5t162 -32.5q138 0 215 125t86 356q-130 -168 -326 -168q-170 0 -268 122t-98 333q0 225 116 359t299 134q229 0 354.5 -190t125.5 -529q0 -215 -55.5 -375t-165.5 -249.5t-263 -89.5q-113 0 -213 37t-151 81zM500 631q146 0 264 188
q-15 199 -83 304.5t-183 105.5q-99 0 -163.5 -87.5t-64.5 -221.5q0 -142 63 -215.5t167 -73.5z" />
    <glyph glyph-name="Euro.tf" 
d="M756 750h-410v-50q0 -55 2 -82h365l-41 -124h-310q28 -161 102 -244.5t187 -83.5q136 0 248 88l74 -158q-155 -116 -346 -116q-185 0 -309 133.5t-160 380.5h-97v124h84q-2 27 -2 82v50h-82v124h93q32 261 157.5 400t319.5 139q215 0 348 -133l-70 -160
q-104 109 -258 109q-117 0 -193 -88.5t-102 -266.5h447z" />
    <glyph glyph-name="cent.tf" 
d="M881 274l73 -155q-76 -69 -175 -108.5t-208 -39.5q-43 0 -84 6l-59 -256l-115 33l58 250q-146 57 -218.5 195t-72.5 333q0 163 58.5 292t168 202.5t252.5 73.5q48 0 68 -4l53 221l117 -35l-52 -217q182 -75 238 -328l-149 -63q-32 161 -129 223l-177 -752q36 -4 60 -4
q152 0 293 133zM264 539q0 -256 150 -353l176 748q-5 0 -14.5 1t-14.5 1q-135 0 -216 -111t-81 -286z" />
    <glyph glyph-name="sterling.tf" 
d="M797 647h-342q26 -178 26 -278q0 -42 -2 -62q16 -12 47.5 -41t57 -52.5t58 -42.5t58.5 -19q68 0 96.5 65.5t28.5 196.5v32h168q2 -27 2 -77q0 -389 -247 -389q-43 0 -90.5 24t-81 52.5t-76 67t-62.5 52.5q-35 -95 -84 -145.5t-133 -50.5q-83 0 -128.5 56t-45.5 148
q0 88 50.5 144.5t129.5 56.5q47 0 84 -23v17q0 19 -2 42.5t-4 39.5t-7.5 47t-7.5 42t-10 50.5t-10 46.5h-166v127h142q-23 122 -23 238q0 178 92 289.5t269 111.5q111 0 205.5 -46t148.5 -101l-64 -172q-115 135 -256 135q-95 0 -145.5 -72t-50.5 -190q0 -77 14 -193h361
v-127zM240 268q-36 0 -59 -25t-23 -67q0 -36 14.5 -59t44.5 -23q72 0 88 150q-28 24 -65 24z" />
    <glyph glyph-name="florin.tf" horiz-adv-x="813" 
d="M743 647h-254v-713q0 -159 -68 -249.5t-204 -90.5q-57 0 -118.5 25t-96.5 55l33 168q58 -67 135 -67q61 0 92 40t31 113v719h-244v127h244v365q0 158 67.5 247t202.5 89q57 0 119.5 -25t97.5 -55l-32 -168q-62 67 -138 67q-59 0 -90 -39.5t-31 -109.5v-371h254v-127z" />
    <glyph glyph-name="yen.tf" 
d="M895 285h-279v-285h-198v285h-277v125h277v133h-277v127h232l-318 706v17h205l258 -656l264 656h205v-17l-328 -706h236v-127h-279v-133h279v-125z" />
    <glyph glyph-name="dollar.tf" 
d="M457 -264v246q-107 5 -206.5 38t-162.5 72l47 189q152 -106 322 -117v465l-119 37q-268 80 -268 342q0 99 42.5 182t131.5 141.5t213 73.5v172h123v-166q103 -4 204.5 -33.5t169.5 -68.5l-57 -181q-58 40 -145 66t-172 31v-441l77 -24q161 -51 239.5 -135.5t78.5 -221.5
q0 -169 -107 -282t-288 -135v-250h-123zM768 391q0 75 -45.5 122t-142.5 77v-418q87 20 137.5 75.5t50.5 143.5zM266 1020q0 -140 162 -189l29 -10v398q-94 -18 -142.5 -71t-48.5 -128z" />
    <glyph glyph-name="zero.denom" horiz-adv-x="665" 
d="M80 334q0 161 64.5 253.5t187.5 92.5q126 0 190 -92t64 -254q0 -159 -64.5 -251.5t-189.5 -92.5q-123 0 -187.5 93t-64.5 251zM193 334q0 -234 139 -234q143 0 143 234q0 239 -143 239q-139 0 -139 -239z" />
    <glyph glyph-name="one.denom" horiz-adv-x="479" 
d="M29 518l250 152h83v-670h-114v537l-174 -107z" />
    <glyph glyph-name="two.denom" horiz-adv-x="606" 
d="M88 0v90l225 201q88 76 88 162q0 53 -28 86.5t-80 33.5q-56 0 -85.5 -41t-29.5 -108l-106 18q3 109 63 173.5t164 64.5q105 0 161 -60.5t56 -156.5q0 -66 -28 -122t-93 -112l-145 -127h280v-102h-442z" />
    <glyph glyph-name="three.denom" horiz-adv-x="595" 
d="M141 393h138q48 0 74 26.5t26 65.5q0 46 -30.5 70.5t-86.5 24.5q-89 0 -164 -43l-24 100q94 43 198 43q106 0 165 -47.5t59 -134.5q0 -53 -26 -92t-73 -56q56 -14 87.5 -57t31.5 -111q0 -89 -64 -140.5t-180 -51.5q-89 0 -200 43l28 98q81 -39 166 -39q59 0 95 29.5
t36 79.5q0 92 -118 92h-138v100z" />
    <glyph glyph-name="four.denom" horiz-adv-x="638" 
d="M586 131h-105v-131h-114v131h-322v80l289 459l33 -2v2h114v-449h105v-90zM162 221h205v328z" />
    <glyph glyph-name="five.denom" horiz-adv-x="589" 
d="M102 319l-4 5l25 346h371v-103h-275l-10 -157h67q114 0 177 -48t63 -145q0 -113 -69 -170t-181 -57q-100 0 -200 45l30 98q85 -41 164 -41q61 0 99 30t38 93q0 104 -129 104h-166z" />
    <glyph glyph-name="six.denom" horiz-adv-x="643" 
d="M358 580q-80 0 -120 -58t-43 -160q67 80 163 80q101 0 157 -56t56 -159q0 -106 -64 -171.5t-163 -65.5q-125 0 -194.5 94t-69.5 252q0 156 70.5 250t195.5 94q63 0 117 -17t84 -38l-33 -97q-70 52 -156 52zM342 352q-78 0 -143 -80q9 -81 45.5 -127.5t99.5 -46.5
q51 0 82 37t31 92q0 63 -30.5 94t-84.5 31z" />
    <glyph glyph-name="seven.denom" horiz-adv-x="518" 
d="M117 10l233 557h-301v103h428v-82l-235 -588h-125v10z" />
    <glyph glyph-name="eight.denom" horiz-adv-x="651" 
d="M326 -10q-117 0 -181.5 51.5t-64.5 140.5q0 68 34.5 111t98.5 57q-50 10 -81.5 52.5t-31.5 95.5q0 88 58.5 135t167.5 47t167 -47t58 -135q0 -54 -31 -96t-82 -52q64 -14 98.5 -57t34.5 -111q0 -89 -64 -140.5t-181 -51.5zM326 305q-65 0 -97 -28.5t-32 -75.5
q0 -51 36 -83t93 -32q58 0 94.5 32t36.5 83q0 47 -33 75.5t-98 28.5zM326 586q-52 0 -82.5 -26t-30.5 -73q0 -42 28.5 -71t84.5 -29t84 29t28 71q0 47 -29.5 73t-82.5 26z" />
    <glyph glyph-name="nine.denom" horiz-adv-x="643" 
d="M96 45l33 98q73 -51 156 -51q156 0 166 219q-70 -84 -166 -84q-103 0 -158 56t-55 159q0 106 64 172t165 66q124 0 193 -93.5t69 -252.5q0 -157 -69.5 -250.5t-194.5 -93.5q-107 0 -203 55zM299 317q82 0 147 80q-11 81 -47 128.5t-98 47.5q-51 0 -83 -38t-32 -93
q0 -61 31 -93t82 -32z" />
    <glyph glyph-name="zero.num" horiz-adv-x="665" 
d="M82 1057q0 160 64.5 253t187.5 93q124 0 188 -93t64 -253t-64 -252t-188 -92q-123 0 -187.5 92.5t-64.5 251.5zM193 1057q0 -238 141 -238t141 238q0 237 -141 237t-141 -237z" />
    <glyph glyph-name="one.num" horiz-adv-x="479" 
d="M27 1243l252 150h81v-670h-112v537l-176 -105z" />
    <glyph glyph-name="two.num" horiz-adv-x="606" 
d="M88 723v88l225 203q88 76 88 162q0 52 -28 85t-80 33q-57 0 -86 -40t-29 -107l-106 18q3 109 63 173.5t164 64.5q105 0 161 -60.5t56 -156.5q0 -130 -121 -234l-145 -127h280v-102h-442z" />
    <glyph glyph-name="three.num" horiz-adv-x="595" 
d="M141 1116h138q48 0 74 26.5t26 65.5q0 45 -30.5 68.5t-86.5 23.5q-90 0 -164 -40l-24 100q94 43 198 43q106 0 165 -47.5t59 -136.5q0 -51 -26 -90t-73 -56q56 -14 87.5 -57t31.5 -111q0 -90 -64 -141t-180 -51q-94 0 -200 41l28 98q81 -39 166 -39q59 0 95 29.5t36 81.5
q0 92 -118 92h-138v100z" />
    <glyph glyph-name="four.num" horiz-adv-x="638" 
d="M586 856h-105v-133h-114v133h-324v78l289 459l35 -2v2h114v-449h105v-88zM162 944h205v332z" />
    <glyph glyph-name="five.num" horiz-adv-x="589" 
d="M102 1042l-4 5l25 346h373v-103h-277l-10 -157h65q114 0 177 -47.5t63 -143.5q0 -115 -67.5 -172t-180.5 -57q-103 0 -200 47l30 96q85 -41 164 -41q60 0 99.5 30.5t39.5 92.5q0 104 -131 104h-166z" />
    <glyph glyph-name="six.num" horiz-adv-x="643" 
d="M547 1348l-33 -99q-69 51 -156 51q-153 0 -163 -215q67 80 163 80q101 0 157 -56t56 -159q0 -107 -63.5 -172t-163.5 -65q-126 0 -195 93.5t-69 252.5q0 156 70.5 250t195.5 94q110 0 201 -55zM342 1075q-78 0 -143 -80q9 -82 45.5 -129t99.5 -47q51 0 82 37.5t31 93.5
q0 62 -30.5 93.5t-84.5 31.5z" />
    <glyph glyph-name="seven.num" horiz-adv-x="520" 
d="M117 733l233 557h-303v103h430v-82l-237 -588h-123v10z" />
    <glyph glyph-name="eight.num" horiz-adv-x="649" 
d="M326 713q-117 0 -181.5 51t-64.5 141q0 68 34.5 111t98.5 57q-50 10 -81.5 52t-31.5 94q0 89 58.5 136.5t167.5 47.5t167 -47.5t58 -136.5q0 -53 -31 -94.5t-82 -51.5q64 -14 98.5 -57t34.5 -111q0 -90 -64 -141t-181 -51zM326 1028q-64 0 -96.5 -29t-32.5 -75
q0 -52 36 -84.5t93 -32.5q59 0 95 32.5t36 84.5q0 46 -33.5 75t-97.5 29zM326 1307q-52 0 -82.5 -26t-30.5 -73q0 -41 28.5 -69.5t84.5 -28.5t84 28.5t28 69.5q0 47 -29.5 73t-82.5 26z" />
    <glyph glyph-name="nine.num" horiz-adv-x="645" 
d="M287 813q81 0 122 59t44 162q-70 -84 -168 -84q-101 0 -156 56t-55 157q0 107 64.5 173.5t164.5 66.5q124 0 193 -94t69 -252q0 -157 -69.5 -250.5t-194.5 -93.5q-63 0 -118 17t-85 38l33 96q73 -51 156 -51zM301 1040q83 0 148 80q-11 80 -48 127t-98 47
q-52 0 -84.5 -37.5t-32.5 -93.5q0 -61 31 -92t84 -31z" />
    <glyph glyph-name="parenleft.case" horiz-adv-x="569" 
d="M379 1630l115 -69q-36 -58 -69 -135t-67 -185.5t-54.5 -250t-20.5 -292.5q0 -150 20.5 -291t54 -249t67.5 -185.5t69 -134.5l-115 -69q-41 48 -83.5 127t-86.5 194.5t-72 276t-28 333.5q0 172 28 332t72 276t86.5 195t83.5 127z" />
    <glyph glyph-name="parenright.case" horiz-adv-x="569" 
d="M76 1561l114 69q41 -48 83.5 -127t87 -195t72.5 -276t28 -332q0 -173 -28 -333.5t-72.5 -276t-87 -194.5t-83.5 -127l-114 69q35 57 69 134.5t67.5 185.5t54 249t20.5 291q0 151 -20.5 292.5t-54.5 250t-67 185.5t-69 135z" />
    <glyph glyph-name="hyphen.case" horiz-adv-x="983" 
d="M152 782h679v-161h-679v161z" />
    <glyph glyph-name="bracketleft.case" horiz-adv-x="630" 
d="M561 -221h-385v1839h385v-162h-225v-1515h225v-162z" />
    <glyph glyph-name="bracketright.case" horiz-adv-x="630" 
d="M70 1618h385v-1839h-385v162h225v1515h-225v162z" />
    <glyph glyph-name="braceleft.case" horiz-adv-x="600" 
d="M455 -90h47v-146h-80q-129 0 -192.5 66t-63.5 178q0 74 49 234.5t49 246.5q0 74 -42.5 108t-135.5 34v125q92 0 135 37t43 112q0 85 -49 244.5t-49 232.5q0 107 63.5 171.5t192.5 64.5h80v-145h-47q-67 0 -99 -37t-32 -95q0 -57 49 -216t49 -244q0 -80 -34 -126t-107 -63
q73 -17 107 -62.5t34 -127.5q0 -83 -49 -242.5t-49 -216.5q0 -60 32 -96.5t99 -36.5z" />
    <glyph glyph-name="bar.case" horiz-adv-x="509" 
d="M176 -221v1839h158v-1839h-158z" />
    <glyph glyph-name="braceright.case" horiz-adv-x="602" 
d="M180 -236h-82v146h52q64 0 96.5 37t32.5 96q0 57 -49.5 216.5t-49.5 242.5q0 82 33.5 127.5t108.5 62.5q-74 17 -108 63t-34 126q0 85 49.5 244t49.5 216q0 58 -32.5 95t-96.5 37h-52v145h82q128 0 191 -64.5t63 -171.5q0 -73 -48 -232.5t-48 -244.5q0 -75 42.5 -112
t135.5 -37v-125q-94 0 -136 -34t-42 -108q0 -86 48 -246.5t48 -234.5q0 -112 -63 -178t-191 -66z" />
    <glyph glyph-name="guilsinglleft.case" horiz-adv-x="565" 
d="M82 680v41l278 412h17l72 -48l-201 -385l201 -385l-72 -47h-17z" />
    <glyph glyph-name="guilsinglright.case" horiz-adv-x="565" 
d="M483 721v-41l-280 -412h-15l-71 47l198 385l-200 385l73 48h15z" />
    <glyph glyph-name="guillemotleft.case" horiz-adv-x="952" 
d="M82 680v41l278 412h17l72 -48l-201 -385l201 -385l-72 -47h-17zM469 680v41l281 412h14l72 -48l-199 -385l201 -385l-74 -47h-14z" />
    <glyph glyph-name="guillemotright.case" horiz-adv-x="954" 
d="M483 721v-41l-280 -412h-15l-71 47l198 385l-200 385l73 48h15zM870 721v-41l-278 -412h-17l-71 47l201 385l-201 385l71 48h17z" />
    <glyph glyph-name="endash.case" horiz-adv-x="1146" 
d="M152 782h843v-161h-843v161z" />
    <glyph glyph-name="emdash.case" horiz-adv-x="1568" 
d="M152 782h1265v-161h-1265v161z" />
    <glyph glyph-name="bullet.case" horiz-adv-x="641" 
d="M135 700q0 101 49 156t138 55t138.5 -55t49.5 -156q0 -102 -49 -156.5t-139 -54.5t-138.5 54.5t-48.5 156.5z" />
    <glyph glyph-name="periodcentered.case" horiz-adv-x="540" 
d="M139 690q0 66 34 102.5t95 36.5q63 0 98 -36.5t35 -102.5q0 -67 -35 -103t-98 -36q-62 0 -95.5 36t-33.5 103z" />
    <glyph glyph-name="g.alt" horiz-adv-x="1163" 
d="M98 612q0 137 46.5 243t145.5 170.5t238 64.5q74 0 150 -30t121 -79v90h198v-934q0 -128 -37 -233.5t-98.5 -171.5t-139.5 -102t-163 -36q-139 0 -221 74.5t-82 202.5q0 102 49.5 177t145.5 99q-75 10 -137.5 42t-111.5 87.5t-76.5 141.5t-27.5 194zM301 612
q0 -83 23.5 -144.5t64.5 -96.5t89 -51.5t104 -16.5h217v504q-35 43 -97.5 74.5t-126.5 31.5q-129 0 -201.5 -84.5t-72.5 -216.5zM799 76v59h-113q-124 0 -201 -53t-77 -160q0 -72 45 -113.5t116 -41.5q98 0 164 87.5t66 221.5z" />
    <glyph glyph-name="y.alt" horiz-adv-x="1048" 
d="M41 -160q0 126 97 207.5t265 91.5l-346 932h205l279 -854l270 854h201l-365 -1079q-73 -221 -151 -309.5t-205 -88.5q-117 0 -183.5 67.5t-66.5 178.5zM285 -233q58 0 91.5 47.5t74.5 171.5l10 30q-132 0 -198 -42t-66 -117q0 -41 23 -65.5t65 -24.5z" />
    <glyph glyph-name="asterisk.alt" horiz-adv-x="868" 
d="M182 825l137 224l-233 61l41 137l240 -80l-13 267h160l-12 -269l239 82l41 -137l-237 -66l141 -219l-121 -73l-131 229l-131 -229z" />
    <glyph glyph-name="a.alt" horiz-adv-x="1112" 
d="M903 -20q-126 0 -170 104q-128 -104 -315 -104q-159 0 -247.5 86.5t-88.5 236.5q0 124 64 210.5t171 126.5t248 40q74 0 146 -16v43q0 114 -50.5 159t-160.5 45q-72 0 -152 -19.5t-143 -51.5l-33 176q63 30 173.5 52t209.5 22q184 0 269 -91t85 -272v-471q0 -48 15 -76
t57 -28q41 0 96 38l13 -159q-76 -51 -187 -51zM285 319q0 -78 49.5 -121.5t134.5 -43.5q75 0 138 27.5t104 66.5v258q-50 16 -136 16q-135 0 -212.5 -52t-77.5 -151z" />
    <glyph glyph-name="agrave.alt" horiz-adv-x="1112" 
d="M903 -20q-126 0 -170 104q-128 -104 -315 -104q-159 0 -247.5 86.5t-88.5 236.5q0 124 64 210.5t171 126.5t248 40q74 0 146 -16v43q0 114 -50.5 159t-160.5 45q-72 0 -152 -19.5t-143 -51.5l-33 176q63 30 173.5 52t209.5 22q184 0 269 -91t85 -272v-471q0 -48 15 -76
t57 -28q41 0 96 38l13 -159q-76 -51 -187 -51zM285 319q0 -78 49.5 -121.5t134.5 -43.5q75 0 138 27.5t104 66.5v258q-50 16 -136 16q-135 0 -212.5 -52t-77.5 -151zM479 1225l-172 293h197l143 -293h-168z" />
    <glyph glyph-name="aacute.alt" horiz-adv-x="1112" 
d="M903 -20q-126 0 -170 104q-128 -104 -315 -104q-159 0 -247.5 86.5t-88.5 236.5q0 124 64 210.5t171 126.5t248 40q74 0 146 -16v43q0 114 -50.5 159t-160.5 45q-72 0 -152 -19.5t-143 -51.5l-33 176q63 30 173.5 52t209.5 22q184 0 269 -91t85 -272v-471q0 -48 15 -76
t57 -28q41 0 96 38l13 -159q-76 -51 -187 -51zM285 319q0 -78 49.5 -121.5t134.5 -43.5q75 0 138 27.5t104 66.5v258q-50 16 -136 16q-135 0 -212.5 -52t-77.5 -151zM774 1518l-172 -293h-168l144 293h196z" />
    <glyph glyph-name="acircumflex.alt" horiz-adv-x="1112" 
d="M903 -20q-126 0 -170 104q-128 -104 -315 -104q-159 0 -247.5 86.5t-88.5 236.5q0 124 64 210.5t171 126.5t248 40q74 0 146 -16v43q0 114 -50.5 159t-160.5 45q-72 0 -152 -19.5t-143 -51.5l-33 176q63 30 173.5 52t209.5 22q184 0 269 -91t85 -272v-471q0 -48 15 -76
t57 -28q41 0 96 38l13 -159q-76 -51 -187 -51zM285 319q0 -78 49.5 -121.5t134.5 -43.5q75 0 138 27.5t104 66.5v258q-50 16 -136 16q-135 0 -212.5 -52t-77.5 -151zM670 1225l-125 188l-127 -188h-154l182 293h197l182 -293h-155z" />
    <glyph glyph-name="atilde.alt" horiz-adv-x="1112" 
d="M903 -20q-126 0 -170 104q-128 -104 -315 -104q-159 0 -247.5 86.5t-88.5 236.5q0 124 64 210.5t171 126.5t248 40q74 0 146 -16v43q0 114 -50.5 159t-160.5 45q-72 0 -152 -19.5t-143 -51.5l-33 176q63 30 173.5 52t209.5 22q184 0 269 -91t85 -272v-471q0 -48 15 -76
t57 -28q41 0 96 38l13 -159q-76 -51 -187 -51zM285 319q0 -78 49.5 -121.5t134.5 -43.5q75 0 138 27.5t104 66.5v258q-50 16 -136 16q-135 0 -212.5 -52t-77.5 -151zM309 1260l-59 83q25 63 75 108.5t107 45.5q41 0 79.5 -20.5t63.5 -45t57 -45t60 -20.5q79 0 121 96l61 -80
q-68 -157 -182 -157q-38 0 -77 21t-65.5 45.5t-59 45.5t-58.5 21q-71 0 -123 -98z" />
    <glyph glyph-name="adieresis.alt" horiz-adv-x="1112" 
d="M903 -20q-126 0 -170 104q-128 -104 -315 -104q-159 0 -247.5 86.5t-88.5 236.5q0 124 64 210.5t171 126.5t248 40q74 0 146 -16v43q0 114 -50.5 159t-160.5 45q-72 0 -152 -19.5t-143 -51.5l-33 176q63 30 173.5 52t209.5 22q184 0 269 -91t85 -272v-471q0 -48 15 -76
t57 -28q41 0 96 38l13 -159q-76 -51 -187 -51zM285 319q0 -78 49.5 -121.5t134.5 -43.5q75 0 138 27.5t104 66.5v258q-50 16 -136 16q-135 0 -212.5 -52t-77.5 -151zM676 1376q0 111 117 111q112 0 112 -111q0 -56 -30 -83t-82 -27q-117 0 -117 110zM233 1376q0 111 117 111
q113 0 113 -111q0 -56 -30.5 -83t-82.5 -27q-117 0 -117 110z" />
    <glyph glyph-name="amacron.alt" horiz-adv-x="1112" 
d="M903 -20q-126 0 -170 104q-128 -104 -315 -104q-159 0 -247.5 86.5t-88.5 236.5q0 124 64 210.5t171 126.5t248 40q74 0 146 -16v43q0 114 -50.5 159t-160.5 45q-72 0 -152 -19.5t-143 -51.5l-33 176q63 30 173.5 52t209.5 22q184 0 269 -91t85 -272v-471q0 -48 15 -76
t57 -28q41 0 96 38l13 -159q-76 -51 -187 -51zM285 319q0 -78 49.5 -121.5t134.5 -43.5q75 0 138 27.5t104 66.5v258q-50 16 -136 16q-135 0 -212.5 -52t-77.5 -151zM766 1280h-432v141h432v-141z" />
    <glyph glyph-name="abreve.alt" horiz-adv-x="1112" 
d="M903 -20q-126 0 -170 104q-128 -104 -315 -104q-159 0 -247.5 86.5t-88.5 236.5q0 124 64 210.5t171 126.5t248 40q74 0 146 -16v43q0 114 -50.5 159t-160.5 45q-72 0 -152 -19.5t-143 -51.5l-33 176q63 30 173.5 52t209.5 22q184 0 269 -91t85 -272v-471q0 -48 15 -76
t57 -28q41 0 96 38l13 -159q-76 -51 -187 -51zM285 319q0 -78 49.5 -121.5t134.5 -43.5q75 0 138 27.5t104 66.5v258q-50 16 -136 16q-135 0 -212.5 -52t-77.5 -151zM305 1397l53 82q29 -44 78 -74.5t115 -30.5q65 0 114.5 30.5t77.5 74.5l54 -82q-36 -69 -97 -115.5
t-147 -46.5q-88 0 -151 47t-97 115z" />
    <glyph glyph-name="aring.alt" horiz-adv-x="1112" 
d="M903 -20q-126 0 -170 104q-128 -104 -315 -104q-159 0 -247.5 86.5t-88.5 236.5q0 124 64 210.5t171 126.5t248 40q74 0 146 -16v43q0 114 -50.5 159t-160.5 45q-72 0 -152 -19.5t-143 -51.5l-33 176q63 30 173.5 52t209.5 22q184 0 269 -91t85 -272v-471q0 -48 15 -76
t57 -28q41 0 96 38l13 -159q-76 -51 -187 -51zM285 319q0 -78 49.5 -121.5t134.5 -43.5q75 0 138 27.5t104 66.5v258q-50 16 -136 16q-135 0 -212.5 -52t-77.5 -151zM342 1372q0 83 59 142t142 59t141.5 -59t58.5 -142t-58.5 -142t-141.5 -59t-142 59t-59 142zM432 1372
q0 -46 32.5 -78t78.5 -32q44 0 76 32t32 78q0 44 -32 76.5t-76 32.5q-46 0 -78.5 -32.5t-32.5 -76.5z" />
    <glyph glyph-name="aringacute.alt" horiz-adv-x="1110" 
d="M903 -20q-126 0 -170 104q-128 -104 -315 -104q-159 0 -247.5 86.5t-88.5 236.5q0 124 64 210.5t171 126.5t248 40q74 0 146 -16v43q0 114 -50.5 159t-160.5 45q-72 0 -152 -19.5t-143 -51.5l-33 176q63 30 173.5 52t209.5 22q184 0 269 -91t85 -272v-471q0 -48 15 -76
t57 -28q41 0 96 38l13 -159q-76 -51 -187 -51zM285 319q0 -78 49.5 -121.5t134.5 -43.5q75 0 138 27.5t104 66.5v258q-50 16 -136 16q-135 0 -212.5 -52t-77.5 -151zM344 1343q0 78 55 123t146 45t145.5 -45t54.5 -123q0 -81 -54 -124t-146 -43t-146.5 43t-54.5 124z
M436 1343q0 -83 109 -83q110 0 110 83q0 42 -30.5 62t-79.5 20t-79 -20t-30 -62zM709 1710l-107 -160h-127l86 160h148z" />
    <glyph glyph-name="aogonek.alt" horiz-adv-x="1112" 
d="M758 -176q0 100 88 162q-83 22 -113 98q-128 -104 -315 -104q-159 0 -247.5 86.5t-88.5 236.5q0 124 64 210.5t171 126.5t248 40q74 0 146 -16v43q0 114 -50.5 159t-160.5 45q-72 0 -152 -19.5t-143 -51.5l-33 176q63 30 173.5 52t209.5 22q184 0 269 -91t85 -272v-471
q0 -48 15 -76t57 -28q41 0 96 38l13 -159q-59 -40 -150 -49q-80 -43 -80 -134q0 -53 29 -82.5t74 -29.5q53 0 96 28l20 -96q-72 -33 -145 -33q-77 0 -126.5 51t-49.5 138zM285 319q0 -78 49.5 -121.5t134.5 -43.5q75 0 138 27.5t104 66.5v258q-50 16 -136 16
q-135 0 -212.5 -52t-77.5 -151z" />
    <glyph glyph-name="gcircumflex.alt" horiz-adv-x="1163" 
d="M98 612q0 137 46.5 243t145.5 170.5t238 64.5q74 0 150 -30t121 -79v90h198v-934q0 -128 -37 -233.5t-98.5 -171.5t-139.5 -102t-163 -36q-139 0 -221 74.5t-82 202.5q0 102 49.5 177t145.5 99q-75 10 -137.5 42t-111.5 87.5t-76.5 141.5t-27.5 194zM301 612
q0 -83 23.5 -144.5t64.5 -96.5t89 -51.5t104 -16.5h217v504q-35 43 -97.5 74.5t-126.5 31.5q-129 0 -201.5 -84.5t-72.5 -216.5zM799 76v59h-113q-124 0 -201 -53t-77 -160q0 -72 45 -113.5t116 -41.5q98 0 164 87.5t66 221.5zM725 1225l-125 188l-127 -188h-154l183 293
h196l183 -293h-156z" />
    <glyph glyph-name="gbreve.alt" horiz-adv-x="1163" 
d="M356 1397l54 82q71 -105 192 -105q65 0 115 30.5t78 74.5l53 -82q-36 -69 -97 -115.5t-147 -46.5q-88 0 -151 47t-97 115zM98 612q0 137 46.5 243t145.5 170.5t238 64.5q74 0 150 -30t121 -79v90h198v-934q0 -128 -37 -233.5t-98.5 -171.5t-139.5 -102t-163 -36
q-139 0 -221 74.5t-82 202.5q0 102 49.5 177t145.5 99q-75 10 -137.5 42t-111.5 87.5t-76.5 141.5t-27.5 194zM301 612q0 -83 23.5 -144.5t64.5 -96.5t89 -51.5t104 -16.5h217v504q-35 43 -97.5 74.5t-126.5 31.5q-129 0 -201.5 -84.5t-72.5 -216.5zM799 76v59h-113
q-124 0 -201 -53t-77 -160q0 -72 45 -113.5t116 -41.5q98 0 164 87.5t66 221.5z" />
    <glyph glyph-name="gdotaccent.alt" horiz-adv-x="1163" 
d="M98 612q0 137 46.5 243t145.5 170.5t238 64.5q74 0 150 -30t121 -79v90h198v-934q0 -128 -37 -233.5t-98.5 -171.5t-139.5 -102t-163 -36q-139 0 -221 74.5t-82 202.5q0 102 49.5 177t145.5 99q-75 10 -137.5 42t-111.5 87.5t-76.5 141.5t-27.5 194zM301 612
q0 -83 23.5 -144.5t64.5 -96.5t89 -51.5t104 -16.5h217v504q-35 43 -97.5 74.5t-126.5 31.5q-129 0 -201.5 -84.5t-72.5 -216.5zM799 76v59h-113q-124 0 -201 -53t-77 -160q0 -72 45 -113.5t116 -41.5q98 0 164 87.5t66 221.5zM492 1380q0 115 122 115q119 0 119 -115
q0 -116 -119 -116q-122 0 -122 116z" />
    <glyph glyph-name="gcommaaccent.alt" horiz-adv-x="1163" 
d="M98 612q0 137 46.5 243t145.5 170.5t238 64.5q74 0 150 -30t121 -79v90h198v-934q0 -128 -37 -233.5t-98.5 -171.5t-139.5 -102t-163 -36q-139 0 -221 74.5t-82 202.5q0 102 49.5 177t145.5 99q-75 10 -137.5 42t-111.5 87.5t-76.5 141.5t-27.5 194zM301 612
q0 -83 23.5 -144.5t64.5 -96.5t89 -51.5t104 -16.5h217v504q-35 43 -97.5 74.5t-126.5 31.5q-129 0 -201.5 -84.5t-72.5 -216.5zM799 76v59h-113q-124 0 -201 -53t-77 -160q0 -72 45 -113.5t116 -41.5q98 0 164 87.5t66 221.5zM676 1581l-39 -139q45 -6 69.5 -35.5
t24.5 -71.5q0 -55 -32 -85.5t-81 -30.5q-61 0 -95 34.5t-34 96.5q0 64 25.5 137t65.5 131z" />
    <glyph glyph-name="yacute.alt" horiz-adv-x="1048" 
d="M793 1518l-172 -293h-168l143 293h197zM41 -160q0 126 97 207.5t265 91.5l-346 932h205l279 -854l270 854h201l-365 -1079q-73 -221 -151 -309.5t-205 -88.5q-117 0 -183.5 67.5t-66.5 178.5zM285 -233q58 0 91.5 47.5t74.5 171.5l10 30q-132 0 -198 -42t-66 -117
q0 -41 23 -65.5t65 -24.5z" />
    <glyph glyph-name="ycircumflex.alt" horiz-adv-x="1048" 
d="M668 1225l-125 188l-127 -188h-154l182 293h197l182 -293h-155zM41 -160q0 126 97 207.5t265 91.5l-346 932h205l279 -854l270 854h201l-365 -1079q-73 -221 -151 -309.5t-205 -88.5q-117 0 -183.5 67.5t-66.5 178.5zM285 -233q58 0 91.5 47.5t74.5 171.5l10 30
q-132 0 -198 -42t-66 -117q0 -41 23 -65.5t65 -24.5z" />
    <glyph glyph-name="ydieresis.alt" horiz-adv-x="1048" 
d="M225 1352q0 102 109 102q104 0 104 -102q0 -52 -28 -77.5t-76 -25.5q-109 0 -109 103zM668 1352q0 102 108 102q105 0 105 -102q0 -52 -28.5 -77.5t-76.5 -25.5q-108 0 -108 103zM41 -160q0 126 97 207.5t265 91.5l-346 932h205l279 -854l270 854h201l-365 -1079
q-73 -221 -151 -309.5t-205 -88.5q-117 0 -183.5 67.5t-66.5 178.5zM285 -233q58 0 91.5 47.5t74.5 171.5l10 30q-132 0 -198 -42t-66 -117q0 -41 23 -65.5t65 -24.5z" />
    <glyph glyph-name="ygrave.alt" horiz-adv-x="1048" 
d="M481 1225l-172 293h197l143 -293h-168zM41 -160q0 126 97 207.5t265 91.5l-346 932h205l279 -854l270 854h201l-365 -1079q-73 -221 -151 -309.5t-205 -88.5q-117 0 -183.5 67.5t-66.5 178.5zM285 -233q58 0 91.5 47.5t74.5 171.5l10 30q-132 0 -198 -42t-66 -117
q0 -41 23 -65.5t65 -24.5z" />
    </font>
</defs>
</svg>
